<svg width="705" xmlns="http://www.w3.org/2000/svg" height="525" viewBox="0 0 564 420" xmlns:xlink="http://www.w3.org/1999/xlink"><defs><clipPath id="a"><path d="m7.2 7.2h550.08v406.08h-550.08z"/></clipPath><path stroke="#000" id="b" stroke-width=".5" d="m0 0v-4"/><path id="c" d="m31.781 66.41q-7.609 0-11.453-7.5-3.828-7.484-3.828-22.531 0-14.984 3.828-22.484 3.844-7.5 11.453-7.5 7.672 0 11.5 7.5 3.844 7.5 3.844 22.484 0 15.05-3.844 22.531-3.828 7.5-11.5 7.5m0 7.813q12.266 0 18.734-9.703 6.469-9.688 6.469-28.14 0-18.406-6.469-28.11-6.469-9.688-18.734-9.688-12.25 0-18.719 9.688-6.469 9.703-6.469 28.11 0 18.453 6.469 28.14 6.469 9.703 18.719 9.703"/><path id="d" d="m12.406 8.297h16.11v55.625l-17.531-3.516v8.984l17.438 3.516h9.859v-64.61h16.11v-8.297h-41.984z"/><path id="e" d="m4.891 31.391h26.312v-8h-26.312z"/><path id="f" d="m10.797 72.906h38.719v-8.312h-29.688v-17.859q2.141.734 4.281 1.094 2.156.359 4.313.359 12.203 0 19.328-6.688 7.141-6.688 7.141-18.11 0-11.766-7.328-18.297-7.328-6.516-20.656-6.516-4.594 0-9.359.781-4.75.781-9.828 2.344v9.922q4.391-2.391 9.08-3.563 4.688-1.172 9.906-1.172 8.453 0 13.375 4.437 4.938 4.438 4.938 12.06 0 7.609-4.938 12.05-4.922 4.453-13.375 4.453-3.953 0-7.891-.875-3.922-.875-8.02-2.734z"/><path stroke="#000" id="g" stroke-width=".5" d="m0 0v-2"/><path stroke="#000" id="h" stroke-width=".5" d="m0 0h4"/><path stroke="#000" id="i" stroke-width=".5" d="m0 0h2"/><path id="j" d="m8.406-14.313q2.094-3.609 7.313-3.609 4.734 0 8.203 3.328 3.469 3.313 5.594 8.03 2.125 4.703 3.297 9.641-4.438-4.203-9.625-4.203-3.953 0-6.734 1.359-2.781 1.375-4.328 4.078-1.531 2.719-1.531 6.578 0 3.266.875 6.703.891 3.453 2.469 7.672 1.594 4.234 2.766 7.359 1.313 3.656 1.313 6 0 2.984-2.188 2.984-3.969 0-6.531-4.078-2.563-4.078-3.781-9.109-.188-.641-.828-.641h-1.172q-.828 0-.828.938v.281q1.609 5.969 4.922 10.578 3.328 4.609 8.406 4.609 3.563 0 6.03-2.344 2.469-2.344 2.469-5.953 0-1.859-.828-3.906-.438-1.219-2-5.328-1.563-4.094-2.406-6.781-.828-2.688-1.359-5.281-.531-2.578-.531-5.172 0-3.313 1.406-5.609 1.422-2.297 4.5-2.297 6.203 0 11.125 7.563l7.578 30.812q.328 1.328 1.547 2.266 1.234.953 2.641.953 1.219 0 2.125-.781.906-.781.906-2.047 0-.578-.094-.781l-9.922-39.797q-1.313-5.125-4.828-9.813-3.516-4.688-8.469-7.547-4.953-2.859-10.328-2.859-2.594 0-5.141 1.016-2.531 1-4.094 3-1.563 2-1.563 4.688 0 2.734 1.609 4.734 1.625 2 4.297 2 1.625 0 2.719-1 1.094-1 1.094-2.609 0-2.297-1.719-4-1.703-1.719-3.984-1.719-.109.047-.203.078-.094.016-.188.016"/><path id="k" d="m7.813 2.875q1.766-1.359 4.984-1.359 3.125 0 5.516 3 2.391 3 3.266 6.562l4.547 17.734q1.078 4.828 1.078 6.594 0 2.484-1.391 4.344-1.391 1.859-3.891 1.859-3.172 0-5.953-1.984-2.781-1.984-4.688-5.03-1.906-3.047-2.687-6.172-.188-.641-.781-.641h-1.219q-.781 0-.781.938v.281q.969 3.719 3.313 7.25 2.344 3.547 5.734 5.734 3.406 2.203 7.266 2.203 3.656 0 6.609-1.953 2.953-1.953 4.172-5.313 1.719 3.063 4.375 5.156 2.656 2.109 5.828 2.109 2.156 0 4.391-.766 2.25-.75 3.672-2.313 1.422-1.563 1.422-3.906 0-2.531-1.641-4.375-1.641-1.828-4.172-1.828-1.609 0-2.687 1.031-1.078 1.031-1.078 2.594 0 2.094 1.438 3.672 1.453 1.594 3.453 1.891-1.812 1.422-4.984 1.422-3.219 0-5.594-2.984-2.359-2.984-3.344-6.641l-4.391-17.672q-1.078-4.02-1.078-6.594 0-2.547 1.438-4.375 1.438-1.828 3.844-1.828 4.688 0 8.359 4.125 3.688 4.125 4.859 9.06.203.578.781.578h1.234q.391 0 .625-.266.25-.266.25-.609 0-.094-.094-.297-1.422-5.953-5.969-10.594-4.531-4.641-10.25-4.641-3.656 0-6.609 1.969-2.953 1.984-4.188 5.359-1.563-2.938-4.328-5.141-2.75-2.188-5.875-2.188-2.141 0-4.422.766-2.266.75-3.688 2.312-1.406 1.563-1.406 3.953 0 2.344 1.625 4.266 1.641 1.938 4.094 1.938 1.656 0 2.781-1 1.125-1 1.125-2.609 0-2.109-1.406-3.672-1.391-1.563-3.484-1.953"/><path id="l" d="m31-24.813q-5.563 4.406-9.594 10.09-4.02 5.688-6.594 12.141-2.563 6.438-3.828 13.469-1.266 7.03-1.266 14.11 0 7.172 1.266 14.203 1.266 7.03 3.875 13.531 2.625 6.5 6.672 12.156 4.063 5.672 9.469 9.922 0 .188.5.188h.922q.297 0 .531-.266.25-.266.25-.609 0-.438-.188-.641-4.891-4.781-8.141-10.25-3.25-5.469-5.234-11.656-1.969-6.172-2.844-12.797-.875-6.609-.875-13.781 0-31.781 16.984-48.3.297-.281.297-.828 0-.234-.266-.547-.266-.328-.516-.328h-.922q-.5 0-.5.188"/><path id="m" d="m6.5-25q-.891 0-.891.875 0 .438.203.641 17.09 16.703 17.09 48.48 0 31.781-16.906 48.3-.391.234-.391.828 0 .344.266.609.281.266.625.266h.922q.297 0 .484-.188 7.188-5.672 11.969-13.781 4.781-8.094 7-17.281 2.234-9.172 2.234-18.75 0-7.078-1.203-13.938-1.203-6.859-3.812-13.516-2.609-6.672-6.609-12.312-4-5.641-9.578-10.05-.188-.188-.484-.188z"/><path id="n" d="m7.516 23q-.828 0-1.375.625-.531.641-.531 1.375 0 .734.531 1.359.547.641 1.375.641h29.406v29.5q0 .781.578 1.281.594.516 1.422.516.734 0 1.359-.516.641-.5.641-1.281v-29.5h29.391q.734 0 1.266-.641.547-.625.547-1.359 0-.734-.547-1.375-.531-.625-1.266-.625h-29.391v-29.5q0-.781-.641-1.281-.625-.516-1.359-.516-.828 0-1.422.516-.578.5-.578 1.281v29.5z"/><path id="o" d="m9.906-18.02q0 .438.391.828 3.625 3.469 5.625 8.02 2 4.531 2 9.563v1.219q-1.609-1.609-4-1.609-2.297 0-3.906 1.609-1.609 1.609-1.609 3.906 0 2.344 1.609 3.906 1.609 1.563 3.906 1.563 3.563 0 5.078-3.297 1.516-3.297 1.516-7.297 0-5.563-2.234-10.563-2.219-5.02-6.266-9.02-.391-.203-.641-.203-.484 0-.984.453-.484.438-.484.922"/><path id="p" d="m9.281 0v3.516q12.5 0 12.5 3.172v52.5q-5.172-2.5-13.09-2.5v3.516q12.266 0 18.516 6.406h1.406q.344 0 .656-.281.328-.266.328-.609v-59.03q0-3.172 12.5-3.172v-3.516z"/><path id="q" d="m10.203 23q-.828 0-1.375.625-.531.641-.531 1.375 0 .734.531 1.359.547.641 1.375.641h57.38q.781 0 1.297-.641.516-.625.516-1.359 0-.734-.516-1.375-.516-.625-1.297-.625z"/></defs><g fill="#fff"><path d="m0 420.48h564.48v-420.48h-564.48z"/><path d="m7.2 413.28h550.08v-406.08h-550.08z"/></g><g fill="none" stroke-linecap="square"><path stroke="#00f" clip-path="url(#a)" d="m17.779 210.26l132.52.138 34.12.232 15.557.269 13.189.466 8.605.572 4.689.486 5.231.792 2.774.582 3.485.968 2.471.908 2.301 1.071 2.302 1.353 1.547 1.103 2.01 1.713 1.789 1.809 1.788 2.085 2.233 2.95 2.849 4.211 2.076 3.401 1.81 3.339 1.702 3.649 1.276 3.205 1.534 4.584 1.108 3.962 1.075 4.51 1.01 4.976 1.01 5.887 1.176 8.362 1.051 9.25 1.05 11.527.95 13.11.972 17.11.796 17.938.797 23.16.714 27.12.502 24.427m4.531 0v-422.48m4.976 0l.71 26.327.902 26 .953 21.437 1.01 18.08 1.091 15.898 1.252 14.863 1.227 11.974 1.227 10.01 1.227 8.456 1.318 7.673 1.314 6.451 1.568 6.416 1.568 5.266 1.35 3.777 1.664 3.867 1.665 3.157 1.224 1.956 1.716 2.323 2.092 2.324 1.708 1.586 2.333 1.834 2.333 1.542 3 1.654 3.263 1.466 3.05 1.116 4.498 1.292 3.068.691 5.176.899 6.156.756 6.663.561 7.653.435 8.642.322 16.571.351 20.746.207 43.1.16 96.31.076"/><path stroke="#f00" stroke-width="2" clip-path="url(#a)" d="m17.779 210.26l157.32.136 48 .052 5.123-.15 5.408-.381 3.235-.452 3.01-.705 1.411-.476 1.411-.607 1.816-1.031 1.21-.889 1.211-1.088 1.32-1.452 1.639-2.234 1.848-3.074 3.52-6.364 1.352-1.934 1.157-1.193.771-.542.914-.4 1.057-.182 1.37.096.842.182 7.314 2.206 3.512.598 3.572.274 12.989.328 2.638.351 3.055.685 2.069.66 2.068.829 2.97 1.473 3.5 2.087 7.087 4.452 3.497 1.806 2.908 1.216 2.544.869 2.946.819 2.997.665 4.783.8 6.616.747 5.97.447 6.857.351 10.331.334 17.1.293 24.52.186 54.02.13 88.11.046"/><g stroke="#000" stroke-width=".8"><path d="m7.2 210.24h550.08"/><path d="m282.24 413.28v-406.08"/></g></g><use x="17.778" y="210.24" xlink:href="#b"/><g transform="matrix(.1 0 0-.1 10.189 221.84)"><use xlink:href="#e"/><use x="36.08" xlink:href="#d"/><use x="99.71" xlink:href="#c"/></g><use x="150.01" y="210.24" xlink:href="#b"/><g transform="matrix(.1 0 0-.1 145.71 221.84)"><use xlink:href="#e"/><use x="36.08" xlink:href="#f"/></g><use x="282.24" y="210.24" xlink:href="#b"/><use x="414.47" y="210.24" xlink:href="#b"/><use xlink:href="#f" transform="matrix(.1 0 0-.1 412.11 221.84)"/><use x="546.7" y="210.24" xlink:href="#b"/><g transform="matrix(.1 0 0-.1 541.22 221.84)"><use xlink:href="#d"/><use x="63.62" xlink:href="#c"/></g><use x="44.22" y="210.24" xlink:href="#g"/><use x="70.67" y="210.24" xlink:href="#g"/><use x="97.12" y="210.24" xlink:href="#g"/><use x="123.56" y="210.24" xlink:href="#g"/><use x="176.46" y="210.24" xlink:href="#g"/><use x="202.9" y="210.24" xlink:href="#g"/><use x="229.35" y="210.24" xlink:href="#g"/><use x="255.79" y="210.24" xlink:href="#g"/><use x="308.69" y="210.24" xlink:href="#g"/><use x="335.13" y="210.24" xlink:href="#g"/><use x="361.58" y="210.24" xlink:href="#g"/><use x="388.02" y="210.24" xlink:href="#g"/><use x="440.92" y="210.24" xlink:href="#g"/><use x="467.36" y="210.24" xlink:href="#g"/><use x="493.81" y="210.24" xlink:href="#g"/><use x="520.26" y="210.24" xlink:href="#g"/><use x="282.24" y="405.47" xlink:href="#h"/><g transform="matrix(.1 0 0-.1 263.06 408.23)"><use xlink:href="#e"/><use x="36.08" xlink:href="#d"/><use x="99.71" xlink:href="#c"/></g><use x="282.24" y="307.86" xlink:href="#h"/><g transform="matrix(.1 0 0-.1 269.63 310.61)"><use xlink:href="#e"/><use x="36.08" xlink:href="#f"/></g><use x="282.24" y="210.24" xlink:href="#h"/><use x="282.24" y="112.62" xlink:href="#h"/><use xlink:href="#f" transform="matrix(.1 0 0-.1 273.52 115.38)"/><use x="282.24" y="15.01" xlink:href="#h"/><g transform="matrix(.1 0 0-.1 267.28 17.769)"><use xlink:href="#d"/><use x="63.62" xlink:href="#c"/></g><use x="282.24" y="385.95" xlink:href="#i"/><use x="282.24" y="366.42" xlink:href="#i"/><use x="282.24" y="346.9" xlink:href="#i"/><use x="282.24" y="327.38" xlink:href="#i"/><use x="282.24" y="288.33" xlink:href="#i"/><use x="282.24" y="268.81" xlink:href="#i"/><use x="282.24" y="249.29" xlink:href="#i"/><use x="282.24" y="229.76" xlink:href="#i"/><use x="282.24" y="190.72" xlink:href="#i"/><use x="282.24" y="171.19" xlink:href="#i"/><use x="282.24" y="151.67" xlink:href="#i"/><use x="282.24" y="132.15" xlink:href="#i"/><use x="282.24" y="93.1" xlink:href="#i"/><use x="282.24" y="73.58" xlink:href="#i"/><use x="282.24" y="54.06" xlink:href="#i"/><use x="282.24" y="34.532" xlink:href="#i"/><use xlink:href="#j" transform="matrix(.2 0 0-.2 250.79 39.848)"/><use xlink:href="#k" transform="matrix(.2 0 0-.2 514.46 235.12)"/><path fill="#e6e6e6" stroke="#000" d="m484.08 53.04h67.2v-39.838h-67.2z"/><path fill="none" stroke="#00f" stroke-linecap="square" d="m494.88 26.28h-6.6"/><g transform="matrix(.12 0 0-.12 497.88 30.48)"><use xlink:href="#j" transform="translate(0 .677)"/><use xlink:href="#n" transform="matrix(.7 0 0 .7 61.31 43.19)"/><use xlink:href="#l" transform="translate(137.16.677)"/><use xlink:href="#k" transform="translate(175.98.677)"/><use xlink:href="#o" transform="translate(233.06.677)"/><use xlink:href="#p" transform="translate(289.07.677)"/><use xlink:href="#m" transform="translate(339.07.677)"/></g><path fill="none" stroke="#f00" stroke-linecap="square" stroke-width="2" d="m494.88 38.638h-6.6"/><g transform="matrix(.12 0 0-.12 497.88 42.838)"><use xlink:href="#j"/><use xlink:href="#q" transform="matrix(.7 0 0 .7 49.02 42.516)"/><use xlink:href="#l" transform="translate(143.72)"/><use xlink:href="#k" transform="translate(182.53)"/><use xlink:href="#o" transform="translate(239.61)"/><use xlink:href="#p" transform="translate(295.62)"/><use xlink:href="#m" transform="translate(345.62)"/></g></svg>