<svg width="703.75" xmlns="http://www.w3.org/2000/svg" height="503.75" viewBox="0 0 563 403" xmlns:xlink="http://www.w3.org/1999/xlink"><defs><clipPath id="a"><path d="m7.2 30.685h531.84v358.68h-531.84z"/></clipPath><path stroke="#000" id="b" stroke-width=".5" d="m0 0v-4"/><path id="c" d="m31.781 66.41q-7.609 0-11.453-7.5-3.828-7.484-3.828-22.531 0-14.984 3.828-22.484 3.844-7.5 11.453-7.5 7.672 0 11.5 7.5 3.844 7.5 3.844 22.484 0 15.05-3.844 22.531-3.828 7.5-11.5 7.5m0 7.813q12.266 0 18.734-9.703 6.469-9.688 6.469-28.14 0-18.406-6.469-28.11-6.469-9.688-18.734-9.688-12.25 0-18.719 9.688-6.469 9.703-6.469 28.11 0 18.453 6.469 28.14 6.469 9.703 18.719 9.703"/><path id="d" d="m12.406 8.297h16.11v55.625l-17.531-3.516v8.984l17.438 3.516h9.859v-64.61h16.11v-8.297h-41.984z"/><path id="e" d="m4.891 31.391h26.312v-8h-26.312z"/><path id="f" d="m31.781 34.625q-7.03 0-11.06-3.766-4.02-3.766-4.02-10.344 0-6.594 4.02-10.359 4.03-3.766 11.06-3.766 7.03 0 11.08 3.781 4.063 3.797 4.063 10.344 0 6.578-4.03 10.344-4.02 3.766-11.11 3.766m-9.859 4.188q-6.344 1.563-9.891 5.906-3.531 4.359-3.531 10.609 0 8.734 6.219 13.813 6.234 5.078 17.06 5.078 10.891 0 17.09-5.078 6.203-5.078 6.203-13.813 0-6.25-3.547-10.609-3.531-4.344-9.828-5.906 7.125-1.656 11.09-6.5 3.984-4.828 3.984-11.797 0-10.609-6.469-16.281-6.469-5.656-18.531-5.656-12.05 0-18.531 5.656-6.469 5.672-6.469 16.281 0 6.969 4 11.797 4.02 4.844 11.141 6.5m-3.609 15.578q0-5.656 3.531-8.828 3.547-3.172 9.937-3.172 6.359 0 9.938 3.172 3.594 3.172 3.594 8.828 0 5.672-3.594 8.844-3.578 3.172-9.938 3.172-6.391 0-9.937-3.172-3.531-3.172-3.531-8.844"/><path id="g" d="m33.02 40.38q-6.641 0-10.531-4.547-3.875-4.531-3.875-12.438 0-7.859 3.875-12.438 3.891-4.562 10.531-4.562 6.641 0 10.516 4.562 3.875 4.578 3.875 12.438 0 7.906-3.875 12.438-3.875 4.547-10.516 4.547m19.578 30.922v-8.984q-3.719 1.75-7.5 2.672-3.781.938-7.5.938-9.766 0-14.922-6.594-5.141-6.594-5.875-19.922 2.875 4.25 7.219 6.516 4.359 2.266 9.578 2.266 10.984 0 17.359-6.672 6.375-6.656 6.375-18.12 0-11.234-6.641-18.03-6.641-6.781-17.672-6.781-12.656 0-19.344 9.688-6.688 9.703-6.688 28.11 0 17.281 8.203 27.563 8.203 10.281 22.02 10.281 3.719 0 7.5-.734 3.781-.734 7.891-2.188"/><path id="h" d="m37.797 64.31l-24.906-38.922h24.906zm-2.594 8.594h12.406v-47.52h10.406v-8.203h-10.406v-17.188h-9.813v17.188h-32.906v9.516z"/><path id="i" d="m19.19 8.297h34.422v-8.297h-46.28v8.297q5.609 5.813 15.297 15.594 9.703 9.797 12.188 12.641 4.734 5.313 6.609 9 1.891 3.688 1.891 7.25 0 5.813-4.078 9.469-4.078 3.672-10.625 3.672-4.641 0-9.797-1.609-5.141-1.609-11-4.891v9.969q5.953 2.391 11.125 3.609 5.188 1.219 9.484 1.219 11.328 0 18.06-5.672 6.734-5.656 6.734-15.12 0-4.5-1.688-8.531-1.672-4.02-6.125-9.484-1.219-1.422-7.766-8.187-6.531-6.766-18.453-18.922"/><path stroke="#000" id="j" stroke-width=".5" d="m0 0v-2"/><path stroke-linejoin="round" id="k" d="m7.813 2.875q1.766-1.359 4.984-1.359 3.125 0 5.516 3 2.391 3 3.266 6.562l4.547 17.734q1.078 4.828 1.078 6.594 0 2.484-1.391 4.344-1.391 1.859-3.891 1.859-3.172 0-5.953-1.984-2.781-1.984-4.688-5.03-1.906-3.047-2.687-6.172-.188-.641-.781-.641h-1.219q-.781 0-.781.938v.281q.969 3.719 3.313 7.25 2.344 3.547 5.734 5.734 3.406 2.203 7.266 2.203 3.656 0 6.609-1.953 2.953-1.953 4.172-5.313 1.719 3.063 4.375 5.156 2.656 2.109 5.828 2.109 2.156 0 4.391-.766 2.25-.75 3.672-2.313 1.422-1.563 1.422-3.906 0-2.531-1.641-4.375-1.641-1.828-4.172-1.828-1.609 0-2.687 1.031-1.078 1.031-1.078 2.594 0 2.094 1.438 3.672 1.453 1.594 3.453 1.891-1.812 1.422-4.984 1.422-3.219 0-5.594-2.984-2.359-2.984-3.344-6.641l-4.391-17.672q-1.078-4.02-1.078-6.594 0-2.547 1.438-4.375 1.438-1.828 3.844-1.828 4.688 0 8.359 4.125 3.688 4.125 4.859 9.06.203.578.781.578h1.234q.391 0 .625-.266.25-.266.25-.609 0-.094-.094-.297-1.422-5.953-5.969-10.594-4.531-4.641-10.25-4.641-3.656 0-6.609 1.969-2.953 1.984-4.188 5.359-1.563-2.938-4.328-5.141-2.75-2.188-5.875-2.188-2.141 0-4.422.766-2.266.75-3.688 2.312-1.406 1.563-1.406 3.953 0 2.344 1.625 4.266 1.641 1.938 4.094 1.938 1.656 0 2.781-1 1.125-1 1.125-2.609 0-2.109-1.406-3.672-1.391-1.563-3.484-1.953"/><path stroke="#000" id="l" stroke-width=".5" d="m0 0h4"/><path stroke-linejoin="round" id="m" d="m10.688 12.406h10.313v-12.406h-10.313z"/><path stroke-linejoin="round" id="n" d="m40.578 39.31q7.078-1.516 11.05-6.313 3.984-4.781 3.984-11.813 0-10.781-7.422-16.703-7.422-5.906-21.09-5.906-4.578 0-9.438.906-4.859.906-10.03 2.719v9.516q4.094-2.391 8.969-3.609 4.891-1.219 10.219-1.219 9.266 0 14.13 3.656 4.859 3.656 4.859 10.641 0 6.453-4.516 10.08-4.516 3.641-12.562 3.641h-8.5v8.109h8.891q7.266 0 11.125 2.906 3.859 2.906 3.859 8.375 0 5.609-3.984 8.609-3.969 3.02-11.391 3.02-4.063 0-8.703-.891-4.641-.875-10.203-2.719v8.781q5.625 1.562 10.531 2.344 4.906.781 9.25.781 11.234 0 17.766-5.109 6.547-5.094 6.547-13.781 0-6.06-3.469-10.234-3.469-4.172-9.859-5.781"/><path stroke-linejoin="round" id="o" d="m10.797 72.906h38.719v-8.312h-29.688v-17.859q2.141.734 4.281 1.094 2.156.359 4.313.359 12.203 0 19.328-6.688 7.141-6.688 7.141-18.11 0-11.766-7.328-18.297-7.328-6.516-20.656-6.516-4.594 0-9.359.781-4.75.781-9.828 2.344v9.922q4.391-2.391 9.08-3.563 4.688-1.172 9.906-1.172 8.453 0 13.375 4.437 4.938 4.438 4.938 12.06 0 7.609-4.938 12.05-4.922 4.453-13.375 4.453-3.953 0-7.891-.875-3.922-.875-8.02-2.734z"/><path stroke-linejoin="round" id="p" d="m8.203 72.906h46.875v-4.203l-26.469-68.7h-10.297l24.906 64.59h-35.02z"/><path stroke="#000" id="q" stroke-width=".5" d="m0 0h2"/><path id="r" d="m10.688 11.281q0 2.25.531 4.922.547 2.688 1.078 4.422.547 1.734 2.453 6.766 1.906 5.03 1.953 5.234 1.313 3.656 1.313 6 0 2.984-2.188 2.984-3.969 0-6.531-4.078-2.563-4.078-3.781-9.109-.188-.641-.828-.641h-1.172q-.828 0-.828.938v.281q1.609 5.969 4.922 10.578 3.328 4.609 8.406 4.609 3.563 0 6.03-2.344 2.469-2.344 2.469-5.953 0-1.859-.828-3.906-1.953-5.078-3.078-8.141-1.125-3.047-2.078-6.828-.953-3.781-.953-7 0-3.766 1.734-6.141 1.734-2.359 5.391-2.359 6.938 0 12.5 10.687 1.766 3.469 3.328 8.156 1.563 4.688 1.563 7.625 0 3.02-.984 4.703-.969 1.688-2.531 3.516-1.563 1.828-1.563 2.906 0 1.953 1.609 3.563 1.609 1.609 3.563 1.609 2.391 0 3.438-2.203 1.063-2.188 1.063-4.969 0-3.313-.953-7.906-.953-4.594-2.641-9.531-1.688-4.922-3.109-7.75-6.578-13.05-15.375-13.05-6.297 0-10.11 3.141-3.813 3.156-3.813 9.266"/><path id="s" d="m4.891 0q-.984 0-.984 1.313.047.25.188.859.156.609.422.969.266.375.656.375 6.109 0 8.547.688 1.266.438 1.859 2.688l13.719 54.922q.203.984.203 1.375 0 1.078-1.172 1.219-1.906.391-7.234.391-.969 0-.969 1.313.047.25.188.859.141.609.406.969.281.375.672.375h35.938q6.984 0 12.203-3.391 5.219-3.391 8-9.141 2.797-5.734 2.797-12.672 0-7.656-3.188-15.328-3.172-7.656-8.891-14.02-5.703-6.344-13.03-10.06-7.313-3.703-15.03-3.703zm18.687 4.297q0-.781 3.422-.781h11.625q5.563 0 10.734 2.297 5.188 2.297 9.234 6.297 3.766 3.766 6.641 9.859 2.875 6.109 4.469 12.75 1.594 6.641 1.594 12.203 0 4.063-1.203 7.328-1.203 3.266-3.375 5.609-2.172 2.344-5.438 3.641-3.266 1.297-7.375 1.297h-10.984q-2.734 0-3.625-.469-.875-.453-1.594-2.953l-13.672-54.875q-.453-1.219-.453-2.203"/><path id="t" d="m5.422 0q-.828 0-.828.781.047.094.063.141.031.063.031.203l34.422 69.39q.438 1.063 1.813 1.063h1.359q1.375 0 1.813-1.063l34.422-69.39q.047-.094.063-.172.031-.078.031-.172 0-.781-.828-.781zm6.594 8.02h52.688l-26.328 53.06z"/><path id="u" d="m25-2.203q-12.25 0-16.672 10.08-4.422 10.09-4.422 24.02 0 8.688 1.578 16.344 1.594 7.672 6.297 13.02 4.719 5.359 13.219 5.359 6.594 0 10.781-3.234 4.203-3.219 6.406-8.328 2.203-5.094 3-10.938.813-5.828.813-12.219 0-8.594-1.594-16.09-1.578-7.5-6.219-12.75-4.641-5.25-13.188-5.25m0 2.594q5.563 0 8.297 5.703 2.734 5.719 3.375 12.656.641 6.938.641 14.75 0 7.516-.641 13.859-.641 6.359-3.359 11.5-2.703 5.156-8.313 5.156-5.656 0-8.391-5.188-2.734-5.172-3.375-11.5-.641-6.313-.641-13.828 0-5.563.266-10.5.281-4.938 1.453-10.188 1.172-5.25 3.781-8.844 2.609-3.578 6.906-3.578"/><path id="v" d="m7.516 13.281q-.828 0-1.375.625-.531.641-.531 1.375 0 .828.531 1.406.547.594 1.375.594h62.797q.734 0 1.266-.594.547-.578.547-1.406 0-.734-.547-1.375-.531-.625-1.266-.625zm0 19.438q-.828 0-1.375.578-.531.594-.531 1.422 0 .734.531 1.359.547.641 1.375.641h62.797q.734 0 1.266-.641.547-.625.547-1.359 0-.828-.547-1.422-.531-.578-1.266-.578z"/><path id="w" d="m31-24.813q-5.563 4.406-9.594 10.09-4.02 5.688-6.594 12.141-2.563 6.438-3.828 13.469-1.266 7.03-1.266 14.11 0 7.172 1.266 14.203 1.266 7.03 3.875 13.531 2.625 6.5 6.672 12.156 4.063 5.672 9.469 9.922 0 .188.5.188h.922q.297 0 .531-.266.25-.266.25-.609 0-.438-.188-.641-4.891-4.781-8.141-10.25-3.25-5.469-5.234-11.656-1.969-6.172-2.844-12.797-.875-6.609-.875-13.781 0-31.781 16.984-48.3.297-.281.297-.828 0-.234-.266-.547-.266-.328-.516-.328h-.922q-.5 0-.5.188"/><path id="x" d="m6.5-25q-.891 0-.891.875 0 .438.203.641 17.09 16.703 17.09 48.48 0 31.781-16.906 48.3-.391.234-.391.828 0 .344.266.609.281.266.625.266h.922q.297 0 .484-.188 7.188-5.672 11.969-13.781 4.781-8.094 7-17.281 2.234-9.172 2.234-18.75 0-7.078-1.203-13.938-1.203-6.859-3.812-13.516-2.609-6.672-6.609-12.312-4-5.641-9.578-10.05-.188-.188-.484-.188z"/><path id="y" d="m4.688 0q-.969 0-.969 1.313.047.25.188.859.141.609.406.969.281.375.672.375 9.563 0 11.125 6.109l13.578 54.688q-2.781.484-8.781.484-.984 0-.984 1.313.047.25.188.859.156.609.422.969.266.375.656.375h17.297q.719 0 .922-.641l22.22-52.875 11.08 44.28q.203 1.078.203 1.516 0 4.203-7.719 4.203-.984 0-.984 1.313.344 1.281.531 1.734.203.469 1.188.469h21.391q.969 0 .969-1.313-.047-.25-.203-.859-.141-.609-.406-.984-.266-.359-.656-.359-9.578 0-11.141-6.109l-14.344-57.813q-.344-.875-1.031-.875h-1.219q-.687 0-.875.688l-25.5 60.5-.187.625q-.203.203-.203.297l-13.234-52.922q-.094-.25-.141-.625-.047-.359-.141-.844 0-2.594 2.234-3.406 2.25-.797 5.578-.797.969 0 .969-1.313-.344-1.375-.594-1.797-.234-.406-1.063-.406z"/><path id="z" d="m9.906-18.02q0 .438.391.828 3.625 3.469 5.625 8.02 2 4.531 2 9.563v1.219q-1.609-1.609-4-1.609-2.297 0-3.906 1.609-1.609 1.609-1.609 3.906 0 2.344 1.609 3.906 1.609 1.563 3.906 1.563 3.563 0 5.078-3.297 1.516-3.297 1.516-7.297 0-5.563-2.234-10.563-2.219-5.02-6.266-9.02-.391-.203-.641-.203-.484 0-.984.453-.484.438-.484.922"/><path id="A" d="m20.02-1.516q-3.469 0-6.453 1.297-2.969 1.297-5.188 3.734-2.219 2.438-3.297 5.438-1.078 3.02-1.078 6.531 0 6.25 2.953 12.13 2.953 5.891 8.06 10.188 5.109 4.297 11.11 5.813-2.938 5.422-4.469 9.344-1.531 3.938-1.531 8.03 0 3.03 1.406 5.344 1.422 2.328 3.906 3.641 2.5 1.328 5.563 1.328 2.984 0 11.828-2.02 2.297-.531 2.297-2.672 0-1.672-1.234-3.047-1.219-1.359-2.875-1.359-1.219 0-2.203.563-.969.563-3.078 1.969-2.094 1.422-3.75 2.172-1.656.766-3.469.766-2.047 0-3.688-1.25-1.641-1.234-1.641-3.234 0-3.172 2.813-7.297 2.813-4.125 7.984-10.578 5.906-7.516 5.906-16.594 0-4.5-1.297-9.734-1.281-5.219-3.75-9.859-2.469-4.625-6.313-7.641-3.828-3-8.516-3m.203 2.734q3.906 0 6.703 4.047 2.813 4.063 4.25 9.656 1.453 5.594 1.453 9.391 0 7.469-5.234 16.797-5.266-1.453-9.08-6.141-3.813-4.688-5.766-10.797-1.953-6.109-1.953-11.578 0-4.781 2.484-8.08 2.5-3.297 7.141-3.297"/><path id="B" d="m528.82 382.47l-.508-.423-.252-.613-.141-.345-.115-.278-.105-.413-.087-.345-.264-1.035-.051-.203-.157-.833-.064-.345-.26-1.381-.027-.146-.238-1.58-.053-.346-.208-1.381-.009-.056-.169-1.324-.22-1.727-.045-.345-.044-.345-.029-.232-.013-.113-.039-.346-.038-.345-.078-.69-.038-.345-.078-.691-.038-.345-.078-.691-.038-.345-.07-.62-.042-.416-.035-.345-.034-.345-.105-1.036-.034-.345-.105-1.036-.034-.345-.119-1.175-.019-.206-.031-.345-.128-1.381-.031-.345-.16-1.726-.031-.345-.096-1.036-.011-.124-.019-.221-.06-.691-.029-.345-.03-.345-.029-.346-.03-.345-.029-.345-.03-.345-.029-.345-.06-.691-.029-.345-.03-.345-.029-.346-.06-.69-.015-.181-.013-.164-.112-1.381-.027-.345-.112-1.381-.027-.346-.14-1.726-.027-.345-.028-.345-.022-.267-.006-.078-.026-.346-.027-.345-.052-.69-.027-.346-.026-.345-.027-.345-.026-.345-.027-.346-.052-.69-.027-.345-.026-.345-.027-.346-.026-.345-.027-.345-.026-.345-.027-.346-.026-.338v-.007l-.025-.345-.026-.345-.05-.691-.026-.345-.075-1.036-.026-.345-.05-.69-.026-.346-.05-.69-.026-.345-.05-.691-.026-.345-.025-.345-.026-.345v-.01l-.024-.336-.024-.345-.025-.345-.024-.345-.025-.346-.048-.69-.025-.345-.024-.345-.025-.346-.024-.345-.025-.345-.024-.345-.025-.346-.024-.345-.025-.345-.048-.691-.025-.345-.024-.345-.02-.275-.005-.07-.023-.345-.072-1.036-.023-.345-.072-1.036-.023-.345-.072-1.036-.023-.345-.072-1.036-.023-.345-.072-1.036-.023-.345-.005-.06-.111-1.666-.024-.345-.092-1.381-.024-.346-.092-1.38-.024-.346-.092-1.381-.024-.345-.023-.345v-.02l-.022-.325-.022-.346-.092-1.38-.022-.346-.069-1.035-.022-.346-.092-1.381-.022-.345-.092-1.381-.022-.345-.023-.345-.008-.117-.015-.228-.022-.346-.023-.345-.022-.345-.023-.345-.022-.345-.023-.346-.044-.69-.023-.345-.022-.346-.023-.345-.022-.345-.023-.345-.022-.346-.023-.345-.022-.345-.023-.345-.022-.345-.023-.346-.022-.345-.023-.345-.021-.319-.001-.026-.023-.346-.066-1.035-.023-.346-.066-1.035-.023-.345-.066-1.036-.023-.345-.044-.691-.023-.345-.066-1.036-.023-.345-.044-.69-.016-.247-.007-.099-.132-2.071-.023-.345-.11-1.726-.023-.346-.11-1.726-.023-.345-.066-1.036-.014-.216-.008-.129-.044-.69-.023-.346-.176-2.761-.023-.346-.132-2.071-.023-.345-.066-1.036-.013-.198-.009-.147-.044-.691-.023-.345-.11-1.726-.023-.345-.11-1.726-.023-.346-.088-1.381-.023-.345-.044-.69-.01-.164-.012-.181-.022-.346-.023-.345-.066-1.036-.023-.345-.044-.69-.023-.346-.066-1.035-.023-.345-.044-.691-.023-.345-.044-.691-.023-.345-.066-1.036-.006-.087-.017-.258-.022-.345-.023-.345-.022-.345-.023-.346-.022-.345-.023-.345-.022-.345-.023-.346-.022-.345-.023-.345-.044-.691-.023-.345-.022-.345-.023-.345-.022-.345-.023-.346-.022-.345-.023-.345-.022-.345-.023-.346-.019-.289-.003-.056-.069-1.036-.022-.345-.069-1.035-.022-.346-.046-.69-.022-.345-.069-1.036-.022-.345-.069-1.036-.022-.345-.069-1.036-.003-.056-.02-.289-.253-3.798-.024-.345-.207-3.107-.024-.345-.023-.345-.024-.346-.023-.345-.024-.345-.023-.345-.024-.346-.023-.345-.024-.345-.023-.345-.024-.345-.046-.691-.024-.345-.023-.345-.024-.346-.023-.345-.024-.345-.023-.345-.048-.691-.023-.345-.528-7.595-.025-.345-.024-.345-.025-.346-.024-.345-.025-.345-.024-.345-.025-.346-.024-.345-.025-.345-.024-.345-.05-.691-.024-.345-.025-.345-.024-.345-.025-.346-.024-.345-.025-.345-.024-.345-.05-.691-.026-.345-.1-1.381-.026-.345-.1-1.381-.026-.345-.1-1.381-.026-.345-.05-.691-.02-.271-.006-.074-.025-.345-.468-6.215-.009-.117-.017-.228-.108-1.381-.026-.345-.135-1.726-.026-.345-.135-1.726-.026-.346-.027-.345-.007-.091-.021-.254-.028-.345-.027-.346-.112-1.381-.027-.345-.14-1.726-.027-.345-.112-1.381-.014-.179-.188-2.238-.028-.345-.29-3.452-.002-.022-.088-1.014-.031-.345-.12-1.381-.031-.345-.09-1.036-.031-.345-.116-1.336-.005-.045-.031-.345-.064-.691-.031-.345-.064-.69-.031-.346-.064-.69-.031-.345-.064-.691-.031-.345-.064-.69-.028-.311-.003-.035-.034-.345-.033-.345-.034-.345-.066-.691-.034-.345-.066-.691-.034-.345-.066-.69-.034-.345-.066-.691-.034-.345-.004-.043-.031-.302-.07-.691-.036-.345-.105-1.036-.036-.345-.105-1.036-.036-.345-.07-.69-.018-.179-.019-.167-.037-.345-.038-.345-.037-.345-.038-.346-.037-.345-.038-.345-.037-.345-.038-.345-.037-.346-.038-.345-.037-.345-.038-.345-.039-.365-.118-1.016-.041-.346-.32-2.761-.029-.246-.012-.1-.044-.345-.129-1.035-.044-.346-.215-1.726-.044-.345-.02-.16-.072-.531-.094-.69-.046-.345-.282-2.072-.013-.099-.037-.246-.051-.345-.052-.345-.102-.691-.052-.345-.102-.69-.052-.346-.051-.345-.009-.059-.389-2.358-.056-.345-.057-.345-.192-1.036-.063-.345-.256-1.381-.002-.013-.071-.332-.438-2.071-.086-.346-.085-.345-.086-.345-.17-.691-.08-.321-.11-.369-.104-.345-.206-.691-.087-.294-.02-.051-.131-.345-.357-.945-.405-.781-.103-.2-.405-.491-.102-.125-.508-.247-.508.124-.508.498-.507.876-.244.6-.139.346-.125.309-.119.381-.389 1.256-.031.125-.348 1.381-.128.513-.038.177-.365 1.726-.072.346-.033.156-.035.189-.126.69-.062.346-.189 1.035-.062.346-.034.184-.026.161-.11.69-.056.345-.315 1.979-.014.093-.049.345-.05.345-.147 1.036-.05.345-.198 1.396-.043.33-.044.346-.045.345-.044.345-.045.345-.044.346-.045.345-.088.69-.045.345-.044.346-.021.162-.021.183-.082.69-.04.346-.041.345-.04.345-.041.345-.04.346-.041.345-.04.345-.041.345-.08.691v.002l-.038.343-.074.69-.038.346-.074.69-.038.345-.222 2.072-.024.222-.012.123-.07.69-.034.346-.035.345-.034.345-.035.345-.034.345-.035.346-.034.345-.035.345-.034.345-.035.346-.068.69-.013.127-.02.218-.032.346-.033.345-.096 1.035-.033.346-.288 3.107-.005.059-.026.286-.12 1.381-.031.345-.331 3.809-.028.334-.028.345-.029.345-.028.346-.029.345-.056.69-.029.345-.028.346-.029.345-.056.69-.029.346-.084 1.035-.029.346-.028.345-.135 1.726-.026.345-.162 2.072-.026.345-.081 1.035-.026.346-.027.345-.023.29-.029.4-.052.691-.025.345-.026.345-.025.346-.052.69-.025.345-.026.345-.025.346-.026.345-.025.345-.026.345-.025.346-.026.345-.05.69-.026.345-.018.252-.007.094-.024.345-.025.345-.024.345-.025.346-.024.345-.025.345-.024.345-.025.346-.048.69-.025.345-.048.691-.025.345-.048.69-.025.346-.072 1.035-.014.193-.01.153-.024.345-.023.345-.024.345-.023.345-.024.346-.023.345-.024.345-.046.691-.024.345-.046.69-.024.346-.046.69-.024.345-.046.691-.024.345-.046.69-.007.098-.016.248-.022.345-.046.69-.022.346-.023.345-.022.345-.023.345-.022.345-.023.346-.022.345-.023.345-.022.345-.023.346-.022.345-.023.345-.022.345-.023.345-.022.346-.023.345-.044.69-.019.294-.004.052-.021.345-.11 1.726-.021.345-.066 1.036-.021.345-.066 1.036-.021.345-.044.691-.021.345-.044.69-.021.345-.044.691-.004.071-.017.274-.063 1.036-.022.345-.168 2.762-.022.345-.21 3.452-.006.096-.015.25-.02.345-.021.345-.02.345-.042.691-.02.345-.021.345-.02.345-.042.691-.02.345-.021.345-.02.346-.021.345-.02.345-.021.345-.02.346-.021.345-.02.345-.021.345-.02.345-.021.346-.02.345-.02.341-.001.004-.1 1.726-.021.346-.16 2.761-.021.346-.2 3.452-.005.088-.035.602-.019.346-.08 1.38-.019.346-.06 1.035-.019.346-.06 1.035-.019.346-.04.69-.019.345-.04.691-.019.345-.06 1.036-.019.338v.007l-.02.345-.019.345-.02.346-.019.345-.02.345-.019.345-.02.345-.019.346-.02.345-.019.345-.02.345-.019.346-.02.345-.019.345-.02.345-.019.346-.02.345-.038.69-.02.345-.019.346-.02.345-.019.345-.02.345-.038.691-.001.019-.019.326-.038.691-.02.345-.038.69-.02.345-.038.691-.02.345-.038.691-.02.345-.057 1.035-.02.346-.038.69-.02.345-.057 1.036-.02.345-.057 1.036-.02.345-.057 1.036-.02.345-.057 1.036-.02.345-.057 1.036-.02.345-.076 1.381-.02.345-.076 1.381-.02.345-.038.691-.015.269-.004.076-.019.345-.02.345-.057 1.036-.02.345-.057 1.036-.02.345-.057 1.036-.02.345-.057 1.036-.02.345-.057 1.036-.02.345-.076 1.381-.004.056-.035.634-.02.346-.038.69-.02.345-.019.346-.02.345-.038.69-.02.345-.038.691-.02.345-.019.345-.02.346-.038.69-.02.345-.038.691-.02.345-.038.69-.02.346-.019.345-.007.125-.013.22-.019.345-.04.691-.019.345-.04.691-.019.345-.02.345-.019.345-.04.691-.019.345-.04.69-.019.346-.04.69-.019.345-.02.345-.019.346-.04.69-.019.345-.04.691-.004.077-.015.268-.04.691-.021.345-.32 5.523-.1 1.727-.012.199-.008.146-.021.345-.02.345-.021.346-.02.345-.042.69-.02.345-.021.346-.02.345-.021.345-.02.345-.042.691-.02.345-.021.345-.02.346-.042.69-.02.345-.021.345-.02.346-.042.69-.025.432-.016.259-.021.345-.022.345-.042.69-.022.346-.063 1.035-.022.346-.042.69-.022.345-.042.691-.022.345-.042.69-.022.346-.042.69-.022.345-.021.346-.022.345-.001.023-.021.322-.066 1.036-.023.345-.066 1.036-.023.345-.044.69-.023.346-.066 1.035-.023.346-.044.69-.023.345-.044.691-.023.345-.019.29-.003.055-.024.345-.023.346-.024.345-.023.345-.024.345-.023.345-.024.346-.023.345-.024.345-.023.345-.048.691-.023.345-.024.345-.023.346-.048.69-.023.345-.024.345-.023.346-.024.345-.009.135-.016.21-.175 2.417-.026.345-.1 1.381-.026.345-.05.691-.026.345-.05.69-.026.346-.013.183-.013.162-.081 1.035-.028.346-.081 1.035-.028.346-.027.345-.028.345-.054.691-.028.345-.027.345-.028.345-.027.345-.028.346-.027.345-.003.03-.027.315-.15 1.726-.031.345-.12 1.381-.031.346-.03.345-.031.345-.06.691-.027.306-.004.039-.374 3.797-.035.346-.034.345-.035.345-.026.267-.009.078-.078.691-.04.345-.039.345-.04.345-.039.346-.08.69-.039.345-.12 1.036-.024.205-.113.831-.096.69-.047.345-.192 1.381-.06.424-.046.267-.06.345-.305 1.726-.062.345-.034.192-.038.154-.084.345-.17.69-.086.345-.13.518-.216.518-.146.345-.146.341-.507.346-.332-.341-.176-.177-.061-.169-.126-.345-.127-.345-.129-.345-.065-.172-.116-.519-.079-.345-.078-.345-.16-.691-.074-.318-.005-.027-.056-.345-.171-1.036-.116-.69-.118-.691-.042-.248-.013-.097-.044-.345-.045-.345-.046-.346-.045-.345-.046-.345-.045-.345-.047-.346-.092-.69-.047-.345-.038-.276-.007-.069-.038-.346-.037-.345-.19-1.726-.039-.345-.038-.346-.117-1.035-.04-.345v-.016l-.031-.33-.033-.345-.032-.345-.198-2.072-.034-.345-.033-.345-.147-1.493-.019-.233-.145-1.726-.03-.346-.029-.345-.03-.345-.029-.345-.18-2.072-.031-.345-.015-.169-.013-.176-.052-.69-.027-.346-.052-.69-.054-.691-.026-.345-.135-1.726-.028-.345-.027-.345-.028-.346-.027-.345-.028-.345-.01-.132-.015-.213-.024-.346-.025-.345-.048-.69-.025-.346-.024-.345-.025-.345-.024-.345-.2-2.762-.026-.345-.025-.346-.026-.345-.021-.285-.027-.405-.022-.345-.046-.691-.022-.345-.115-1.726-.024-.346-.046-.69-.024-.345-.023-.345-.048-.691-.023-.345-.072-1.036-.016-.223-.007-.122-.022-.345-.021-.345-.022-.346-.021-.345-.022-.345-.021-.345-.198-3.107-.023-.346-.022-.345-.023-.345-.022-.345-.046-.691-.022-.345-.016-.229-.006-.116-.021-.346-.02-.345-.021-.345-.02-.345-.042-.691-.02-.345-.126-2.071-.022-.346-.042-.69-.022-.345-.021-.345-.044-.691-.021-.345-.044-.691-.015-.24-.046-.795-.019-.345-.1-1.727-.021-.345-.06-1.036-.021-.345-.02-.345-.042-.69-.02-.346-.159-2.613-.008-.149-.019-.345-.02-.345-.038-.69-.02-.346-.019-.345-.02-.345-.019-.345-.02-.346-.019-.345-.16-2.762-.021-.345-.04-.69-.021-.346-.02-.345-.021-.345-.02-.345-.003-.037-.016-.309-.152-2.761-.02-.346-.038-.69-.02-.345-.019-.345-.04-.691-.019-.345-.18-3.107-.003-.049-.016-.296-.019-.346-.018-.345-.038-.69-.018-.346-.133-2.416-.02-.345-.038-.691-.02-.345-.019-.345-.02-.346-.019-.345-.12-2.071-.01-.18-.009-.165-.018-.346-.019-.345-.018-.345-.019-.345-.018-.346-.038-.69-.018-.345-.133-2.417-.02-.345-.038-.691-.02-.345-.019-.345-.04-.69-.019-.346-.062-1.069-.016-.312-.019-.345-.036-.69-.019-.346-.018-.345-.057-1.035-.018-.346-.095-1.726-.02-.345-.057-1.036-.02-.345-.019-.345-.04-.691-.019-.345-.04-.69-.014-.253-.005-.093-.019-.345-.036-.69-.038-.691-.018-.345-.038-.69-.018-.346-.095-1.726-.02-.345-.038-.69-.02-.346-.019-.345-.02-.345-.019-.345-.04-.691-.019-.345-.046-.794-.013-.242-.018-.345-.038-.69-.018-.346-.057-1.035-.018-.346-.038-.69-.02-.345-.057-1.036-.02-.345-.019-.345-.02-.346-.019-.345-.02-.345-.019-.345-.1-1.727-.014-.238-.006-.107-.018-.345-.038-.69-.018-.346-.076-1.381-.02-.345-.057-1.036-.02-.345-.019-.345-.04-.69-.019-.346-.176-3.037-.004-.07-.095-1.726-.02-.345-.038-.691-.02-.345-.019-.345-.02-.345-.019-.345-.18-3.108-.021-.345-.02-.345-.021-.345-.02-.345-.011-.186-.009-.16-.019-.345-.02-.345-.038-.691-.04-.69-.019-.345-.18-3.107-.021-.346-.02-.345-.021-.345-.02-.345-.084-1.381-.017-.285-.003-.06-.04-.691-.019-.345-.12-2.071-.021-.346-.02-.345-.021-.345-.02-.345-.021-.346-.02-.345-.168-2.762-.035-.55-.008-.14-.06-1.036-.021-.345-.04-.691-.042-.69-.02-.345-.126-2.072-.022-.345-.042-.69-.044-.691-.021-.345-.044-.69-.017-.273-.005-.073-.02-.345-.042-.69-.02-.346-.042-.69-.022-.345-.063-1.036-.022-.345-.021-.345-.044-.691-.021-.345-.088-1.381-.023-.345-.044-.691-.023-.345-.008-.124-.013-.221-.022-.345-.042-.691-.044-.69-.021-.346-.154-2.416-.023-.345-.022-.346-.046-.69-.022-.345-.092-1.381-.007-.092-.038-.599-.088-1.381-.023-.345-.022-.345-.023-.345-.022-.346-.138-2.071-.024-.345-.023-.345-.024-.346-.023-.345-.048-.69-.046-.691-.022-.345-.092-1.381-.024-.345-.046-.691-.024-.345-.023-.345-.12-1.726-.025-.345-.048-.691-.025-.345-.024-.335v-.01l-.023-.346-.024-.345-.023-.345-.168-2.417-.025-.345-.024-.345-.15-2.071-.026-.346-.025-.345-.019-.251-.006-.094-.025-.345-.048-.691-.175-2.416-.026-.346-.025-.345-.156-2.071-.027-.345-.026-.346-.025-.345-.026-.345-.025-.345-.026-.346-.025-.345-.078-1.036-.027-.345-.026-.345-.027-.345-.026-.345-.135-1.727-.028-.345-.027-.341v-.004l-.027-.345-.026-.346-.027-.345-.026-.345-.135-1.726-.056-.691-.027-.345-.084-1.036-.029-.345-.028-.345-.043-.512-.041-.524-.056-.69-.027-.345-.029-.346-.084-1.035-.145-1.726-.03-.346-.029-.345-.06-.69-.006-.078-.023-.268-.028-.345-.087-1.035-.03-.346-.029-.345-.15-1.726-.031-.345-.03-.346-.093-1.035-.007-.075-.023-.27-.031-.346-.06-.69-.031-.345-.03-.346-.062-.69-.032-.345-.031-.346-.032-.345-.031-.345-.032-.345-.033-.345-.064-.691-.016-.162-.016-.183-.032-.345-.031-.346-.096-1.035-.033-.346-.032-.345-.132-1.381-.136-1.379v-.002l-.132-1.38-.136-1.381-.035-.346-.034-.345-.07-.69-.036-.346-.035-.345-.029-.277-.042-.413-.034-.345-.07-.691-.036-.345-.035-.345-.072-.691-.037-.345-.036-.345-.074-.691-.038-.345-.034-.314-.003-.031-.036-.345-.185-1.727-.076-.69-.039-.345-.038-.346-.117-1.035-.014-.115-.025-.23-.038-.346-.156-1.381-.12-1.035-.123-1.036-.042-.345-.003-.03-.037-.315-.04-.346-.082-.69-.042-.345-.041-.346-.042-.345-.043-.345-.042-.345-.043-.345-.088-.69-.042-.345-.129-1.036-.132-1.036-.09-.691-.092-.691-.031-.231-.014-.115-.045-.345-.046-.345-.045-.345-.047-.345-.046-.345-.094-.691-.144-1.036-.026-.184-.022-.161-.096-.691-.049-.345-.048-.345-.05-.345-.049-.345-.051-.345-.05-.345-.051-.345-.052-.345-.05-.345-.102-.691-.104-.691-.106-.69-.108-.691-.028-.176-.079-.515-.054-.345-.11-.69-.112-.691-.114-.69-.038-.228-.02-.118-.056-.345-.174-1.036-.06-.345-.059-.345-.183-1.036-.06-.345-.186-1.036-.128-.69-.09-.477-.039-.213-.13-.69-.067-.345-.066-.345-.068-.345-.069-.345-.068-.343v-.003l-.138-.69-.07-.345-.071-.345-.072-.345-.073-.345-.074-.345-.009-.044-.064-.301-.074-.345-.075-.345-.076-.345-.077-.345-.078-.345-.064-.278-.015-.067-.079-.345-.16-.691-.082-.345-.168-.691-.004-.015-.08-.331-.172-.691-.088-.345-.089-.345-.182-.691-.092-.345-.094-.345-.095-.345-.194-.69-.099-.345-.101-.345-.102-.345-.104-.345-.031-.101-.074-.244-.107-.345-.109-.345-.111-.345-.106-.325-.122-.365-.116-.345-.12-.345-.121-.345-.124-.345-.127-.345-.129-.345-.132-.345-.136-.345-.138-.345-.142-.345-.116-.277-.179-.413-.154-.345-.175-.383-.146-.307-.168-.345-.194-.385-.161-.306-.187-.345-.159-.287-.238-.403-.211-.345-.059-.094-.165-.251-.235-.345-.108-.155-.141-.19-.265-.345-.102-.129-.184-.217-.323-.364-.327-.327-.181-.174-.2-.171-.308-.253-.129-.092-.378-.259-.151-.086-.357-.195-.351-.15-.157-.065-.507-.151-.508-.089-.508-.031-.507.025-.508.078-.508.129-.296.105-.211.072-.508.224-.09.049-.418.219-.202.126-.306.184-.228.161-.279.19-.198.155-.31.235-.128.111-.38.316-.031.03-.378.345-.098.087-.261.259-.247.236-.102.109-.333.345-.073.073-.243.272-.264.285-.347.405-.161.182-.132.163-.286.345-.09.106-.186.24-.321.401-.217.289-.291.377-.227.314-.257.345-.024.031-.22.314-.248.345-.04.053-.197.292-.241.345-.069.097-.163.248-.233.345-.112.162-.117.183-.226.345-.165.246-.061.099-.219.345-.227.349-.21.341-.218.345-.08.124-.132.221-.211.345-.165.262-.048.083-.205.345-.254.416-.159.275-.205.345-.144.239-.06.106-.199.345-.203.345-.046.077-.15.268-.198.345-.159.273-.232.417-.196.345-.08.138-.113.208-.191.345-.204.359-.178.331-.19.345-.14.247-.051.098-.185.345-.271.491-.105.199-.184.345-.188.345-.031.055-.151.29-.183.345-.174.319-.192.371-.182.345-.133.247-.228.443-.182.345-.098.184-.082.162-.177.345-.181.345-.068.128-.109.217-.176.345-.222.425-.133.265-.175.345-.2.384-.152.306-.175.345-.178.345-.003.005-.168.341-.174.345-.177.345-.17.345-.173.345-.153.299-.192.391-.172.345-.144.282-.03.063-.169.345-.172.345-.136.269-.205.421-.171.345-.132.261-.04.084-.168.345-.17.345-.13.258-.208.433-.17.345-.13.258-.041.087-.166.345-.17.345-.13.261-.206.429-.169.345-.133.268-.036.077-.166.345-.168.345-.138.278-.031.067-.165.345-.168.345-.143.29-.191.401-.167.345-.15.304-.183.386-.167.345-.158.32-.011.025-.164.345-.166.345-.166.339-.004.007-.163.345-.166.345-.175.358-.157.332-.166.345-.168.345-.017.034-.147.312-.165.345-.195.401-.137.29-.165.345-.206.423-.126.267-.165.345-.167.345-.05.101-.115.244-.164.345-.229.469-.103.221-.165.345-.239.493-.093.198-.164.345-.167.345-.084.171-.081.174-.164.345-.167.345-.096.194-.07.151-.164.345-.167.345-.106.217-.06.128-.164.345-.167.345-.117.24-.049.105-.164.345-.167.346-.128.261-.039.084-.164.345-.166.345-.138.282-.194.409-.166.345-.169.345-.163.346-.167.345-.169.345-.163.345-.167.345-.169.346-.164.345-.167.345-.173.353-.161.338-.166.345-.181.367-.154.323-.167.345-.187.38-.148.311-.167.345-.192.39-.144.301-.167.345-.197.399-.139.291-.168.346-.201.405-.136.285-.168.345-.203.41-.135.281-.168.345-.171.345-.034.067-.134.278-.169.346-.171.345-.034.067-.134.278-.169.345-.204.41-.136.281-.17.345-.202.405-.138.285-.17.346-.173.345-.027.052-.142.293-.171.345-.194.388-.148.303-.171.345-.189.375-.155.316-.171.345-.182.359-.162.331-.173.345-.175.346-.17.345-.173.345-.175.345-.171.346-.173.345-.151.295-.024.05-.172.345-.174.345-.138.268-.038.078-.172.345-.175.345-.122.238-.227.453-.176.345-.105.204-.07.141-.174.345-.177.346-.087.167-.089.178-.175.345-.177.345-.066.127-.11.218-.176.346-.178.345-.044.084-.132.261-.177.345-.179.346-.02.037-.156.308-.178.345-.18.345-.176.346-.179.345-.146.278-.211.412-.18.345-.117.222-.063.124-.178.345-.266.506-.274.53-.182.345-.052.097-.128.248-.181.345-.183.346-.016.029-.163.316-.182.345-.163.304-.201.386-.183.346-.123.229-.242.461-.184.345-.082.151-.102.195-.182.345-.186.345-.038.069-.145.276-.184.346-.187.345-.183.345-.186.345-.13.239-.24.452-.268.491-.291.544-.216.395-.159.296-.187.345-.162.294-.027.051-.187.345-.189.346-.105.189-.083.156-.188.345-.236.427-.143.264-.19.345-.192.345-.188.345-.191.346-.112.199-.079.146-.191.345-.238.425-.145.265-.192.346-.17.301-.215.389-.194.345-.099.174-.094.172-.193.345-.221.388-.168.302-.194.346-.145.253-.051.092-.194.345-.263.46-.129.23-.196.346-.183.317-.015.028-.195.345-.297.516-.099.175-.197.345-.212.365-.185.325-.199.346-.124.211-.076.134-.198.345-.233.398-.168.292-.201.346-.139.236-.263.454-.245.416-.159.275-.202.345-.204.345-.202.345-.248.418-.159.273-.205.345-.144.24-.061.105-.204.345-.207.346-.036.058-.168.287-.339.564-.281.472-.227.374-.188.316-.208.345-.112.182-.097.163-.208.346-.211.345-.208.345-.291.475-.13.216-.21.345-.168.27-.255.42-.213.346-.039.062-.173.283-.213.345-.122.195-.091.15-.213.345-.204.325-.012.021-.213.345-.282.45-.364.586-.144.226-.073.119-.216.345-.219.345-.216.346-.219.345-.073.113-.144.232-.219.345-.144.224-.295.467-.213.33-.228.36-.222.345-.058.088-.163.258-.222.345-.122.187-.323.503-.185.283-.263.408-.245.374-.204.316-.303.462-.148.229-.36.546-.32.489-.188.282-.041.064-.227.345-.231.345-.227.345-.289.431-.171.26-.231.345-.106.155-.126.19-.231.345-.465.691-.193.283-.041.062-.233.345-.234.342-.002.004-.233.345-.273.397-.198.293-.309.449-.165.242-.343.496-.132.194-.239.345-.137.196-.102.15-.239.345-.166.236-.315.454-.193.273-.29.418-.218.307-.268.383-.245.345-.242.346-.26.363-.23.327-.278.387-.215.304-.292.406-.202.284-.306.423-.191.268-.317.435-.183.255-.251.345-.074.1-.177.245-.252.346-.078.105-.174.24-.253.345-.081.108-.172.237-.255.346-.081.107-.173.238-.334.448-.178.242-.258.346-.072.095-.184.25-.259.345-.065.085-.193.26-.314.416-.205.275-.303.398-.219.292-.289.378-.236.313-.265.345-.006.009-.256.336-.266.345-.264.345-.23.297-.303.394-.205.262-.063.083-.267.345-.177.226-.092.12-.269.345-.147.185-.124.16-.271.345-.113.142-.158.204-.349.44-.196.25-.312.391-.236.299-.277.346-.274.345-.278.345-.276.345-.182.224-.097.122-.279.345-.132.161-.147.184-.36.442-.201.249-.307.373-.258.317-.285.345-.283.345-.189.228-.096.118-.412.496-.16.194-.348.416-.228.275-.28.332-.01.013-.288.345-.292.345-.291.346-.134.157-.158.188-.35.41-.237.28-.296.345-.294.346-.188.217-.406.473-.102.117-.196.228-.311.358-.287.333-.221.251-.382.439-.126.142-.176.204-.608.69-.611.69-.128.143-.179.203-.329.367-.287.323-.311.345-.31.346-.107.117-.204.228-.314.345-.312.345-.185.202-.129.143-.379.414-.252.277-.319.345-.636.691-.322.345-.319.345-.183.194-.139.151-.368.392-.279.299-.229.241-.097.104-.652.69-.267.279-.062.067-.329.345-.116.12-.214.225-.332.345-.331.346-.139.142-.195.203-.669.69-.151.154-.186.192-.339.345-.337.345-.153.154-.187.191-.683.691-.146.145-.197.2-.689.69-.129.128-.217.218-1.047 1.035-.259.254-.092.092-.416.406-.289.284-.219.211-.136.134-.713.691-.358.345-1.081 1.036-1.093 1.035-1.475 1.381-1.119 1.036-.117.106-.259.239-1.135 1.036-.129.115-.252.23-.256.229-.127.116-.769.691-.119.105-.267.24-.241.213-.147.132-1.173 1.036-.203.177-.19.168-1.19 1.036-.143.122-.256.223-.401.345-.807.691-.059.049-.346.296-.162.136-.245.209-.408.345-.822.691-.048.039-.779.651-.236.195-.18.151-1.259 1.035-.422.345-.17.137-.254.209-.426.345-.335.269-.093.076-.861.691-.062.048-.37.297-.87.69-.283.222-.155.124-.881.69-1.334 1.036-.448.345-1.356 1.036-.456.345-1.378 1.035-.463.346-.129.094-.336.251-.936.69-.251.183-.22.163-.287.208-.186.137-1.432 1.036-.964.69-1.48 1.048-1.015.711-1.016.706-1.015.699-.928.634-.509.345-.086.057-.425.288-1.098.736-1.523 1.01-.508.334-1.046.683-1.604 1.036-.396.252-.144.093-1.087.69-1.098.691-1.225.762-1 .619-1.129.69-1.14.691-.283.169-.291.176-1.232.734-1.094.647-1.18.69-.594.345-.686.396-1.116.64-1.829 1.036-1.234.69-1.405.777-1.738.949-.639.346-1.287.69-.905.481-1.016.535-.036.02-.472.246-.187.099-1.999 1.036-1.367.698-1.35.683-1.381.69-2.101 1.036-1.768.858-1.089.523-.942.448-1.523.718-1.2.56-.831.384-1.523.698-.656.299-1.532.69-.858.383-1.523.673-1.532.67-1.01.436-1.523.653-1.015.431-1.311.552-1.735.721-1.606.66-.849.345-2.114.85-1.336.531-1.76.69-1.782.691-.9.345-2.345.888-2.25.838-1.812.665-1.523.552-2.539.906-1.816.639-2.245.777-.754.259-1.014.345-2.294.771-1.015.338-1.015.335-2.031.663-1.523.491-1.596.509-2.466.775-2.538.784-2.031.617-2.538.76-2.031.598-2.096.609-1.458.418-2.538.718-2.117.59-1.945.534-1.523.414-3.046.814-3.046.799-2.539.653-2.538.642-2.031.506-.508.125v.001l-3.046.744-3.046.73-3.046.715-1.523.353-1.523.349-1.523.346-3.554.794-3.674.802-3.434.733-2.031.427-2.03.421-3.046.622-3.554.711-3.046.597-3.554.683-4.062.763-3.083.567-4.03.724-2.538.449-4.569.79-1.523.259-3.046.511-2.265.374-3.828.621-4.798.76-3.833.592-1.523.232-2.538.382-3.554.526-5.077.733-3.554.502-4.062.561-4.569.617-3.046.403-5.585.722-3.046.385-3.046.378 5.077-.634 5.585-.718 6.092-.808 5.077-.694 2.031-.283 3.554-.503 4.609-.667 4.02-.596 5.585-.85 4.569-.716 4.062-.652 3.554-.583 2.538-.424 4.062-.691 3.046-.529 3.046-.539 3.554-.641 3.046-.56 4.331-.814 4.808-.929 3.046-.603 3.046-.614 3.046-.626 3.554-.745 2.031-.433 4.061-.883.508-.112 3.554-.794 2.089-.475 2.988-.691 3.046-.718 1.523-.364 2.656-.644 1.405-.345v-.001l3.047-.759 3.046-.774 2.538-.658 2.539-.668 2.538-.68 2.538-.692 3.047-.846 1.581-.446 1.213-.345 2.79-.806 2.539-.746 3.046-.913 2.538-.776 2.896-.902 2.689-.854 2.031-.656 1.715-.561 3.11-1.036 1.022-.345 1.014-.345 2.277-.785 1.707-.596 2.355-.836 1.523-.548 1.015-.368 2.031-.746 1.637-.609 1.917-.723 1.722-.658 1.831-.71 1.711-.671 1.843-.734 1.016-.408 1.44-.584 1.681-.691 1.66-.69 1.819-.767 2.241-.96 1.588-.69 1.57-.69 1.708-.762 1.375-.619 1.514-.691 1.68-.776 1.524-.713 1.233-.582.724-.345 1.437-.691 1.42-.69 2.101-1.036 1.381-.69 1.365-.691 1.352-.69 1.336-.691.663-.345.187-.099.472-.246 1.308-.691 1.293-.69.643-.345 1.361-.739 1.173-.642 1.366-.757.508-.283.608-.341 1.223-.691 1.81-1.035.42-.244.178-.102 1.853-1.082 1.669-.989.578-.345.291-.176.283-.169 1.14-.691 1.129-.69 1.119-.691.555-.345.343-.215.21-.13 1.643-1.036.542-.345.144-.093.396-.252 1.635-1.056 1.027-.671 1.048-.69.521-.345 1.548-1.036.425-.288.086-.057.509-.345 1.01-.691 1-.69.994-.691.985-.69.998-.706 1.428-1.02 1.432-1.036.186-.137.287-.208.22-.163.251-.183.936-.69.336-.251.129-.094 1.841-1.381.456-.345.906-.691.898-.69 1.355-1.053.86-.673.155-.124.283-.222.87-.69.37-.297.062-.048.861-.691.093-.076.335-.269.426-.345.254-.209.17-.137 1.262-1.035.091-.076.328-.269.18-.151.236-.195.779-.651.048-.039.822-.691.408-.345.245-.209.162-.136.346-.296.059-.049.807-.691.401-.345.256-.223.143-.122 1.19-1.036.19-.168.203-.177.392-.345.781-.691.147-.132.241-.213.267-.24.119-.105.769-.691.127-.116.256-.229.252-.23.129-.115 1.135-1.036.259-.239.117-.106 1.119-1.036 1.108-1.036.367-.345 1.093-1.035 1.081-1.036.358-.345.713-.691.136-.134.219-.211.705-.69.092-.092.609-.599.406-.403.291-.287.217-.218.129-.128.689-.69.197-.2.146-.145.683-.691.187-.191.153-.154.354-.363.322-.327.186-.192.151-.154.669-.69.195-.203.139-.142.369-.386.294-.305.214-.225.116-.12.329-.345.062-.067.267-.279.652-.69.097-.104.229-.241.279-.299.368-.392.139-.151.183-.194.325-.351.316-.339.699-.76.256-.276.631-.691.129-.143.185-.202.322-.356.304-.334.204-.228.107-.117.621-.691.307-.345.309-.345.179-.203.128-.143.611-.69.303-.345.305-.345.176-.204.126-.142.382-.439.221-.251.598-.691.196-.228.102-.117.406-.473.188-.217.32-.376.27-.315.587-.69.158-.188.134-.157.374-.445.209-.246.288-.345.01-.013.28-.332.228-.275.348-.416.16-.194.412-.496.096-.118.189-.228.318-.388.25-.302.281-.345.284-.345.28-.346.281-.345.147-.184.132-.161.279-.345.097-.122.182-.224.554-.69.279-.352.272-.339.273-.345.275-.345.196-.25.349-.44.158-.204.113-.142.271-.345.124-.16.147-.185.269-.345.092-.12.177-.226.267-.345.063-.083.205-.262.303-.394.23-.297.278-.363.252-.327.256-.336.006-.009.265-.345.261-.346.264-.345.219-.292.303-.398.205-.275.314-.416.193-.26.065-.085.259-.345.184-.25.072-.095.258-.346.178-.242.334-.448.173-.238.081-.107.255-.346.172-.237.081-.108.253-.345.174-.24.078-.105.252-.346.177-.245.074-.1.251-.345.183-.255.317-.435.247-.346.25-.345.246-.345.248-.345.245-.346.248-.345.243-.345.247-.345.248-.354.239-.337.268-.383.218-.307.29-.418.193-.273.315-.454.166-.236.239-.345.102-.15.137-.196.239-.345.132-.194.343-.496.236-.346.238-.345.198-.293.273-.397.233-.345.002-.004.234-.342.233-.345.041-.062.193-.283.465-.691.231-.345.126-.19.106-.155.231-.345.171-.26.289-.431.227-.345.231-.345.227-.345.041-.064.188-.282.32-.489.36-.546.148-.229.303-.462.223-.345.226-.345.263-.408.185-.283.323-.503.122-.187.222-.345.163-.258.058-.088.222-.345.228-.36.213-.33.295-.467.144-.224.219-.345.144-.232.073-.113.219-.345.216-.346.219-.345.216-.345.073-.119.144-.226.364-.586.282-.45.213-.345.012-.021.204-.325.213-.345.091-.15.122-.195.213-.345.173-.283.039-.062.213-.346.255-.42.168-.27.21-.345.13-.216.291-.475.217-.36.202-.33.208-.346.097-.163.112-.182.208-.345.188-.316.227-.374.281-.472.339-.564.168-.287.036-.058.207-.346.204-.345.061-.105.144-.24.205-.345.159-.273.248-.418.26-.444.146-.246.202-.345.159-.275.245-.416.263-.454.139-.236.201-.346.199-.345.202-.345.198-.345.076-.134.124-.211.199-.346.185-.325.212-.365.197-.345.099-.175.297-.516.195-.345.015-.028.183-.317.196-.346.129-.23.263-.46.194-.345.051-.092.145-.253.194-.346.168-.302.221-.388.193-.345.094-.172.099-.174.194-.345.215-.389.17-.301.192-.346.145-.265.238-.425.191-.345.079-.146.112-.199.191-.346.188-.345.192-.345.19-.345.188-.346.191-.345.188-.345.083-.156.105-.189.189-.346.187-.345.027-.051.162-.294.187-.345.159-.296.216-.395.291-.544.268-.491.24-.452.13-.239.186-.345.192-.362.178-.328.184-.346.145-.276.038-.069.186-.345.182-.345.102-.195.082-.151.184-.345.242-.461.123-.229.183-.346.201-.386.163-.304.182-.345.163-.316.016-.029.183-.346.181-.345.128-.248.052-.097.182-.345.274-.53.266-.506.178-.345.063-.124.117-.222.18-.345.211-.412.146-.278.179-.345.183-.359.173-.332.178-.345.156-.308.02-.037.179-.346.177-.345.132-.261.044-.084.178-.345.176-.346.11-.218.066-.127.177-.345.175-.345.089-.178.087-.167.177-.346.174-.345.07-.141.105-.204.176-.345.227-.453.122-.238.175-.345.172-.345.038-.078.138-.268.174-.345.172-.345.024-.05.151-.295.173-.345.171-.346.175-.345.173-.345.17-.345.175-.346.173-.345.169-.345.175-.345.171-.345.17-.346.174-.345.171-.345.169-.345.173-.346.171-.345.142-.293.027-.052.173-.345.17-.346.138-.285.202-.405.17-.345.136-.281.204-.41.169-.345.134-.278.034-.067.171-.345.169-.346.134-.278.034-.067.171-.345.168-.345.135-.281.203-.41.168-.345.136-.285.201-.405.168-.346.139-.291.197-.399.167-.345.166-.346.17-.345.167-.345.148-.311.187-.38.167-.345.154-.323.181-.367.166-.345.165-.346.169-.345.167-.345.168-.353.165-.338.167-.345.175-.37.157-.32.167-.345.163-.346.169-.345.166-.345.194-.409.138-.282.166-.345.164-.345.039-.084.128-.261.167-.346.164-.345.049-.105.117-.24.167-.345.164-.345.06-.128.106-.217.167-.345.164-.345.07-.151.096-.194.167-.345.164-.345.081-.174.084-.171.167-.345.164-.345.093-.198.239-.493.165-.345.103-.221.229-.469.164-.345.115-.244.05-.101.167-.345.165-.345.126-.267.206-.423.165-.345.137-.29.195-.401.165-.345.147-.312.017-.034.168-.345.166-.345.163-.345.169-.345.166-.345.163-.345.004-.007.166-.339.166-.345.164-.345.011-.025.158-.32.167-.345.183-.386.15-.304.167-.345.191-.401.143-.29.168-.345.165-.345.031-.067.138-.278.168-.345.166-.345.036-.077.133-.268.169-.345.206-.429.13-.261.17-.345.166-.345.041-.087.13-.258.17-.345.208-.433.13-.258.17-.345.168-.345.04-.084.132-.261.171-.345.205-.421.136-.269.172-.345.169-.345.03-.063.144-.282.172-.345.192-.391.153-.299.173-.345.182-.369.165-.322.174-.345.168-.341.003-.005.178-.345.175-.345.152-.306.2-.384.175-.345.133-.265.222-.425.176-.345.109-.217.068-.128.181-.345.177-.345.082-.162.098-.184.182-.345.228-.443.133-.247.182-.345.192-.371.174-.319.183-.345.151-.29.031-.055.188-.345.184-.345.105-.199.271-.491.185-.345.051-.098.14-.247.19-.345.186-.345.196-.345.191-.345.113-.208.08-.138.196-.345.232-.417.159-.273.198-.345.15-.268.046-.077.203-.345.199-.345.06-.106.144-.239.205-.345.159-.275.254-.416.205-.345.048-.083.165-.262.211-.345.132-.221.08-.124.218-.345.212-.345.225-.345.219-.345.061-.099.165-.246.226-.345.117-.183.112-.162.233-.345.163-.248.069-.097.241-.345.197-.292.04-.053.248-.345.22-.314.024-.031.257-.345.227-.314.291-.377.217-.289.321-.401.186-.24.09-.106.286-.345.132-.163.161-.182.347-.405.264-.285.243-.272.073-.073.333-.345.102-.109.247-.236.261-.259.098-.087.378-.345.031-.03.38-.316.128-.111.31-.235.198-.155.279-.19.228-.161.306-.184.202-.126.418-.219.09-.049.508-.224.211-.072.296-.105.508-.129.508-.078.507-.025.508.031.508.089.507.151.157.065.351.15.357.195.151.086.378.259.129.092.308.253.2.171.181.174.327.327.323.364.184.217.102.129.265.345.141.19.108.155.235.345.165.251.059.094.211.345.238.403.159.287.187.345.161.306.194.385.168.345.146.307.175.383.154.345.179.413.116.277.142.345.138.345.136.345.132.345.129.345.127.345.124.345.121.345.12.345.116.345.122.365.106.325.111.345.109.345.107.345.074.244.031.101.104.345.102.345.101.345.099.345.194.69.095.345.094.345.092.345.182.691.089.345.088.345.172.691.08.331.004.015.168.691.082.345.16.691.079.345.015.067.064.278.078.345.077.345.076.345.075.345.074.345.064.301.009.044.074.345.073.345.072.345.071.345.07.345.138.69v.003l.068.343.069.345.068.345.066.345.067.345.13.69.039.213.09.477.128.69.186 1.036.06.345.183 1.036.059.345.06.345.174 1.036.056.345.02.118.038.228.114.69.112.691.11.69.054.345.079.515.028.176.108.691.106.69.104.691.102.691.05.345.052.345.051.345.05.345.051.345.049.345.05.345.048.345.049.345.096.691.022.161.026.184.144 1.036.094.691.046.345.047.345.045.345.046.345.045.345.014.115.031.231.092.691.09.691.132 1.036.129 1.036.042.345.088.69.043.345.042.345.043.345.042.345.041.346.042.345.082.69.04.346.037.315.003.03.042.345.123 1.036.12 1.035.156 1.381.038.346.025.23.014.115.117 1.035.038.346.039.345.076.69.185 1.727.036.345.003.031.034.314.038.345.074.691.036.345.037.345.072.691.035.345.036.345.07.691.034.345.042.413.029.277.035.345.036.346.07.69.034.345.035.346.136 1.381.132 1.38v.002l.136 1.379.132 1.381.032.345.033.346.096 1.035.031.346.032.345.016.183.016.162.064.691.033.345.032.345.031.345.032.345.031.346.032.345.062.69.03.346.031.345.06.69.031.346.023.27.007.075.093 1.035.03.346.031.345.15 1.726.029.345.03.346.087 1.035.028.345.023.268.006.078.06.69.029.345.03.346.145 1.726.084 1.035.029.346.027.345.056.69.041.524.043.512.028.345.029.345.084 1.036.027.345.056.691.135 1.726.026.345.027.345.026.346.027.345v.004l.027.341.028.345.135 1.727.026.345.027.345.026.345.027.345.078 1.036.025.345.026.346.025.345.026.345.025.345.026.346.027.345.156 2.071.025.345.026.346.175 2.416.048.691.025.345.006.094.019.251.025.345.026.346.15 2.071.024.345.025.345.168 2.417.023.345.024.345.023.346v.01l.024.335.025.345.048.691.025.345.12 1.726.023.345.024.345.046.691.024.345.092 1.381.022.345.046.691.048.69.023.345.024.346.023.345.024.345.138 2.071.022.346.023.345.022.345.023.345.11 1.727.016.253.007.092.092 1.381.022.345.046.69.022.346.023.345.154 2.416.021.346.044.69.042.691.022.345.013.221.008.124.023.345.044.691.023.345.088 1.381.021.345.044.691.021.345.022.345.063 1.036.022.345.042.69.02.346.042.69.02.345.005.073.017.273.044.69.021.345.044.691.042.69.022.345.126 2.072.02.345.042.69.04.691.021.345.06 1.036.008.14.035.55.168 2.762.02.345.021.346.02.345.021.345.02.345.021.346.12 2.071.019.345.04.691.003.06.017.285.084 1.381.02.345.021.345.02.345.021.346.18 3.107.019.345.04.69.038.691.02.345.019.345.009.16.011.186.02.345.021.345.02.345.021.345.18 3.108.019.345.02.345.019.345.02.345.038.691.02.345.095 1.726.18 3.107.019.346.04.69.019.345.02.345.057 1.036.02.345.076 1.381.018.346.038.69.018.345.006.107.014.238.1 1.727.019.345.02.345.019.345.02.346.019.345.02.345.057 1.036.02.345.038.69.018.346.057 1.035.018.346.038.69.018.345.013.242.046.794.019.345.04.691.019.345.02.345.019.345.02.346.038.69.02.345.095 1.726.018.346.038.69.018.345.038.691.036.69.019.345.005.093.014.253.04.69.019.345.04.691.019.345.02.345.057 1.036.02.345.095 1.726.018.346.057 1.035.018.345.019.346.036.69.019.345.016.312.062 1.069.019.346.04.69.019.345.02.345.038.691.02.345.133 2.417.018.345.038.69.018.346.019.345.018.345.019.345.018.346.009.165.01.18.12 2.071.019.345.02.346.019.345.02.345.038.691.02.345.133 2.416.018.346.038.69.018.345.019.346.016.296.003.049.18 3.107.019.345.04.691.019.345.02.345.038.69.02.346.152 2.761.016.309.003.037.02.345.021.345.02.345.021.346.04.69.021.345.16 2.762.019.345.02.346.019.345.02.345.019.345.02.346.038.69.02.345.019.345.008.149.159 2.613.02.346.042.69.02.345.021.345.06 1.036.021.345.1 1.727.019.345.04.69.006.105.015.24.044.691.021.345.044.691.021.345.022.345.042.69.022.346.126 2.071.02.345.042.691.02.345.021.345.02.345.021.346.006.116.016.229.022.345.046.691.022.345.023.345.022.345.023.346.198 3.107.021.345.022.345.021.345.022.346.021.345.022.345.007.122.016.223.072 1.036.023.345.048.691.023.345.024.345.046.69.024.346.115 1.726.022.345.046.691.022.345.027.405.021.285.026.345.025.346.026.345.2 2.762.024.345.025.345.024.345.025.346.048.69.025.345.024.346.015.213.01.132.028.345.027.345.028.346.027.345.028.345.135 1.726.026.345.054.691.052.69.027.346.052.69.013.176.015.169.031.345.18 2.072.029.345.03.345.029.345.03.346.145 1.726.019.233.147 1.493.033.345.034.345.198 2.072.032.345.033.345.031.33v.016l.04.345.117 1.035.038.346.039.345.19 1.726.037.345.038.346.007.069.038.276.047.345.092.69.047.346.045.345.046.345.045.345.046.346.045.345.044.345.013.097.042.248.118.691.116.69.171 1.036.056.345.005.027.074.318.16.691.078.345.079.345.116.519.065.172.129.345.127.345.126.345.061.169.176.177.332.341.507-.346.146-.341.146-.345.216-.518.13-.518.086-.345.17-.69.084-.345.038-.154.034-.192.062-.345.305-1.726.06-.345.046-.267.06-.424.192-1.381.047-.345.096-.69.113-.831.024-.205.12-1.036.039-.345.08-.69.039-.346.04-.345.039-.345.04-.345.078-.691.009-.078.026-.267.035-.345.034-.345.035-.346.374-3.797.004-.039.027-.306.06-.691.031-.345.03-.345.031-.346.12-1.381.031-.345.15-1.726.027-.315.003-.03.027-.345.028-.346.027-.345.028-.345.027-.345.028-.345.054-.691.028-.345.027-.345.028-.346.081-1.035.028-.346.081-1.035.013-.162.013-.183.026-.346.05-.69.026-.345.05-.691.026-.345.1-1.381.026-.345.175-2.417.016-.21.009-.135.024-.345.023-.346.024-.345.023-.345.048-.69.023-.346.024-.345.023-.345.048-.691.023-.345.024-.345.023-.345.024-.346.023-.345.024-.345.023-.345.024-.345.023-.346.024-.345.003-.055.019-.29.023-.345.044-.691.023-.345.044-.69.023-.346.066-1.035.023-.346.044-.69.023-.345.066-1.036.023-.345.066-1.036.021-.322.001-.023.022-.345.021-.346.022-.345.042-.69.022-.346.042-.69.022-.345.042-.691.022-.345.042-.69.022-.346.063-1.035.022-.346.042-.69.022-.345.021-.345.016-.259.025-.432.042-.69.02-.346.021-.345.02-.345.042-.69.02-.346.021-.345.02-.345.042-.691.02-.345.021-.345.02-.345.021-.346.02-.345.042-.69.02-.345.021-.346.02-.345.021-.345.008-.146.012-.199.42-7.25.021-.345.04-.691.015-.268.004-.077.04-.691.019-.345.04-.69.019-.346.02-.345.019-.345.04-.69.019-.346.04-.69.019-.345.04-.691.019-.345.02-.345.019-.345.04-.691.019-.345.04-.691.019-.345.013-.22.007-.125.019-.345.02-.346.038-.69.02-.345.038-.691.02-.345.038-.69.02-.346.019-.345.02-.345.038-.691.02-.345.038-.69.02-.345.019-.346.02-.345.038-.69.02-.346.035-.634.004-.056.076-1.381.02-.345.057-1.036.02-.345.057-1.036.02-.345.057-1.036.02-.345.057-1.036.02-.345.057-1.036.02-.345.019-.345.004-.076.015-.269.038-.691.02-.345.076-1.381.02-.345.076-1.381.02-.345.057-1.036.02-.345.057-1.036.02-.345.057-1.036.02-.345.057-1.036.02-.345.057-1.036.02-.345.038-.69.02-.346.057-1.035.02-.345.038-.691.02-.345.038-.691.02-.345.038-.69.02-.345.038-.691.019-.326.039-.71.02-.345.019-.345.02-.345.019-.346.02-.345.038-.69.02-.345.019-.346.02-.345.019-.345.02-.345.019-.346.02-.345.019-.345.02-.345.019-.346.02-.345.019-.345.02-.345.019-.345.02-.346.019-.345.02-.345v-.007l.019-.338.06-1.036.019-.345.04-.691.019-.345.04-.69.019-.346.06-1.035.019-.346.06-1.035.019-.346.08-1.38.019-.346.035-.602.005-.088.2-3.452.021-.346.16-2.761.021-.346.1-1.726.001-.004.02-.341.02-.345.021-.346.02-.345.021-.345.02-.345.021-.345.02-.346.021-.345.02-.345.021-.345.02-.346.021-.345.02-.345.042-.691.02-.345.021-.345.02-.345.042-.691.02-.345.021-.345.02-.345.015-.25.006-.096.21-3.452.022-.345.168-2.762.022-.345.063-1.036.017-.274.004-.071.044-.691.021-.345.044-.69.021-.345.044-.691.021-.345.066-1.036.021-.345.066-1.036.021-.345.11-1.726.021-.345.004-.052.019-.294.044-.69.023-.345.022-.346.023-.345.022-.345.023-.345.022-.345.023-.346.022-.345.023-.345.022-.345.023-.346.022-.345.023-.345.022-.345.023-.345.022-.346.046-.69.022-.345.016-.248.007-.098.046-.69.024-.345.046-.691.024-.345.046-.69.024-.346.046-.69.024-.345.046-.691.024-.345.023-.345.024-.346.023-.345.024-.345.023-.345.024-.345.01-.153.014-.193.072-1.035.025-.346.048-.69.025-.345.048-.691.025-.345.048-.69.025-.346.024-.345.025-.345.024-.345.025-.346.024-.345.025-.345.024-.345.007-.094.018-.252.026-.345.05-.69.026-.345.025-.346.026-.345.025-.345.026-.345.025-.346.026-.345.025-.345.052-.69.025-.346.026-.345.025-.345.052-.691.029-.4.023-.29.027-.345.026-.346.081-1.035.026-.345.162-2.072.026-.345.135-1.726.028-.345.029-.346.084-1.035.029-.346.056-.69.029-.345.028-.346.029-.345.056-.69.029-.345.028-.346.029-.345.028-.345.029-.345.33-3.798.031-.345.12-1.381.026-.286.005-.059.288-3.107.033-.346.096-1.035.033-.345.032-.346.02-.218.013-.127.068-.69.035-.346.034-.345.035-.345.034-.345.035-.346.034-.345.035-.345.034-.345.035-.345.034-.346.07-.69.012-.123.024-.222.222-2.072.038-.345.074-.69.038-.346.074-.69.038-.343v-.002l.08-.691.041-.345.04-.345.041-.345.04-.346.041-.345.04-.345.041-.345.04-.346.082-.69.021-.183.021-.162.044-.346.045-.345.088-.69.045-.345.044-.346.045-.345.044-.345.045-.345.044-.346.045-.345.196-1.381.05-.345.147-1.036.05-.345.049-.345.014-.093.315-1.979.056-.345.11-.69.026-.161.034-.184.062-.346.189-1.035.062-.346.126-.69.035-.189.033-.156.072-.346.365-1.726.038-.177.128-.513.348-1.381.031-.125.389-1.256.119-.381.125-.309.139-.346.244-.6.507-.876.508-.498.508-.124.508.247.102.125.405.491.508.981.357.945.131.345.02.051.19.64.103.345.104.345.11.369.08.321.17.691.086.345.085.345.087.35.437 2.067.071.332.002.013.256 1.381.063.345.192 1.036.057.345.056.345.342 2.072.047.286.009.059.051.345.052.346.102.69.052.345.102.691.052.345.051.345.037.246.013.099.282 2.072.046.345.141 1.036.025.185.02.16.044.345.215 1.726.044.346.129 1.035.044.345.012.1.029.246.32 2.761.041.346.08.69.038.326.039.365.038.345.037.345.038.345.037.346.038.345.037.345.038.345.037.345.038.346.037.345.038.345.037.345.019.167.018.179.07.69.036.345.105 1.036.036.345.105 1.036.036.345.07.691.031.302.004.043.034.345.066.691.034.345.066.69.034.345.066.691.034.345.066.691.034.345.033.345.034.345.003.035.028.311.064.69.031.345.064.691.031.345.064.69.031.346.064.69.031.345.064.691.031.345.005.045.116 1.336.031.345.09 1.036.031.345.12 1.381.031.345.088 1.014.002.022.29 3.452.028.345.188 2.238.014.179.112 1.381.027.345.14 1.726.027.345.112 1.381.027.346.028.345.021.254.007.091.027.345.026.346.135 1.726.026.345.135 1.726.026.345.108 1.381.017.228.009.117.468 6.215.025.345.006.074.02.271.05.691.026.345.1 1.381.026.345.1 1.381.026.345.1 1.381.026.345.05.691.024.345.025.345.024.345.025.346.024.345.025.345.024.345.05.691.024.345.025.345.024.345.025.346.024.345.025.345.024.345.025.346.024.345.025.345.528 7.595.023.345.048.691.023.345.024.345.023.345.024.346.023.345.024.345.046.691.024.345.023.345.024.345.023.345.024.346.023.345.024.345.023.345.024.346.023.345.024.345.207 3.107.024.345.253 3.798.02.289.003.056.069 1.036.022.345.069 1.036.022.345.069 1.036.022.345.046.69.022.346.069 1.035.022.345.069 1.036.003.056.019.289.023.346.022.345.023.345.022.345.023.346.022.345.023.345.022.345.023.345.044.691.023.345.022.345.023.346.022.345.023.345.022.345.023.346.022.345.023.345.022.345.017.258.006.087.066 1.036.023.345.044.691.023.345.044.691.023.345.066 1.035.023.346.044.69.023.345.066 1.036.023.345.022.346.012.181.01.164.044.69.023.345.088 1.381.023.346.11 1.726.023.345.11 1.726.023.345.044.691.009.147.013.198.066 1.036.023.345.132 2.071.023.346.176 2.761.023.346.044.69.008.129.014.216.066 1.036.023.345.11 1.726.023.346.11 1.726.023.345.132 2.071.007.099.016.247.044.69.023.345.066 1.036.023.345.044.691.023.345.066 1.036.023.345.066 1.035.023.346.066 1.035.023.346.001.026.021.319.023.345.022.345.023.346.022.345.023.345.022.345.023.345.022.346.023.345.022.345.023.345.022.346.023.345.044.69.023.346.022.345.023.345.022.345.023.345.022.346.015.228.008.117.023.345.022.345.092 1.381.022.345.092 1.381.022.346.069 1.035.022.346.092 1.38.022.346.022.325v.02l.023.345.024.345.092 1.381.024.346.092 1.38.024.346.092 1.381.024.345.111 1.666.005.06.023.345.072 1.036.023.345.072 1.036.023.345.072 1.036.023.345.072 1.036.023.345.072 1.036.023.345.005.07.02.275.024.345.025.345.048.691.025.345.024.345.025.346.024.345.025.345.024.345.025.346.024.345.025.345.048.69.025.346.024.345.025.345.024.345.024.336v.01l.026.345.025.345.026.345.05.691.026.345.05.69.026.346.05.69.026.345.075 1.036.026.345.05.691.026.345.025.345v.007l.026.338.027.346.026.345.027.345.026.345.027.346.026.345.027.345.052.69.027.346.026.345.027.345.026.345.027.346.052.69.027.345.026.346.006.078.022.267.028.345.027.345.14 1.726.027.346.112 1.381.027.345.112 1.381.013.164.015.181.06.69.029.346.03.345.029.345.06.691.029.345.03.345.029.345.03.345.029.346.03.345.029.345.06.691.019.221.011.124.096 1.036.031.345.16 1.726.031.345.128 1.381.031.345.019.206.119 1.175.034.345.105 1.036.034.345.105 1.036.034.345.07.691.007.07.07.62.038.345.078.691.038.345.078.691.038.345.078.69.038.345.039.346.013.113.029.232.044.345.045.345.352 2.762.037.289.009.056.208 1.381.053.346.238 1.58.027.146.26 1.381.064.345.157.833.051.203.264 1.035.087.345.105.413.115.278.141.345.252.613.508.423" clip-path="url(#a)"/><path fill="none" id="C" d="m528.82 382.47l-.508-.423-.7-1.994-.601-2.762-.669-4.142-.62-4.834-1.205-11.737-1.282-15.11-1.955-27.01-2.268-34.523-4.385-66.63-1.885-25.547-1.665-20.02-1.32-13.809-1.344-12.08-1.364-10.01-.881-5.178-.874-4.143-.863-3.107-.893-2.071-.223-.346-.387-.47-.621-.22-.395.097-.563.593-.696 1.381-.597 1.727-.64 2.416-.585 2.762-1.093 6.559-1.127 8.631-1.149 10.702-1.165 12.785-1.628 21.05-1.748 26.24-1.973 33.14-5.575 95.63-1.288 17.261-1.154 12.08-.896 6.905-.753 3.797-.432 1.381-.298.691-.501.341-.569-.687-.642-2.071-.602-3.107-.595-4.143-.638-5.539-1.375-15.865-.982-13.809-1.302-20.714-3.707-65.939-2.793-47.987-1.553-24.17-1.495-21.06-1.421-17.952-1.853-20.368-1.548-14.5-1.507-12.08-1.468-10.01-1.374-7.94-1.265-6.214-1.338-5.524-1.313-4.488-1.233-3.452-1.218-2.762-1.209-2.165-1.2-1.632-1.031-1.036-.966-.691-.865-.41-1.015-.24-1.015-.007-1.312.311-.809.345-1.154.691-1.326 1.036-1.735 1.726-1.466 1.726-1.845 2.47-2.881 4.435-2.036 3.452-2.295 4.143-4.299 8.285-3.253 6.559-19.244 39.701-10.677 20.714-4.323 7.94-6.691 11.738-7.11 11.738-6.915 10.702-5.682 8.285-6.332 8.716-4.569 5.969-4.262 5.339-6.088 7.249-6.148 6.905-6.534 6.905-6.414 6.373-5.077 4.78-5.267 4.727-6.501 5.524-6.509 5.212-6.349 4.799-7.281 5.179-7.775 5.178-7.187 4.488-7.653 4.488-7.924 4.354-7.107 3.673-8.123 3.948-7.616 3.478-7.615 3.278-8.631 3.491-9.138 3.459-9.646 3.407-10.154 3.34-9.139 2.809-10.747 3.084-11.68 3.107-12.1 2.975-12.692 2.882-12.184 2.56-13.708 2.659-14.723 2.625-15.459 2.525-16.525 2.465-17.415 2.368-10 1.263" clip-path="url(#a)"/></defs><g fill="#fff"><path d="m0 403.35h563.52v-403.35h-563.52z"/><path d="m7.2 389.37h531.84v-358.68h-531.84z"/></g><g fill="#add8e6"><path fill-opacity=".9" clip-path="url(#a)" d="m478.05 382.46l.507-.346.146-.341.146-.345.216-.518.13-.518.086-.345.17-.69.084-.345.038-.154.034-.192.062-.345.305-1.726.06-.345.046-.267.06-.424.192-1.381.047-.345.096-.69.113-.831.024-.205.12-1.036.039-.345.08-.69.039-.346.04-.345.039-.345.04-.345.078-.691.009-.078.026-.267.035-.345.034-.345.035-.346.374-3.797.004-.039.027-.306.06-.691.031-.345.03-.345.031-.346.12-1.381.031-.345.15-1.726.027-.315.003-.03.027-.345.028-.346.027-.345.028-.345.027-.345.028-.345.054-.691.028-.345.027-.345.028-.346.081-1.035.028-.346.081-1.035.013-.162.013-.183.026-.346.05-.69.026-.345.05-.691.026-.345.1-1.381.026-.345.175-2.417.016-.21.009-.135.024-.345.023-.346.024-.345.023-.345.048-.69.023-.346.024-.345.023-.345.048-.691.023-.345.024-.345.023-.345.024-.346.023-.345.024-.345.023-.345.024-.345.023-.346.024-.345.003-.055.019-.29.023-.345.044-.691.023-.345.044-.69.023-.346.066-1.035.023-.346.044-.69.023-.345.066-1.036.023-.345.066-1.036.021-.322.001-.023.022-.345.021-.346.022-.345.042-.69.022-.346.042-.69.022-.345.042-.691.022-.345.042-.69.022-.346.063-1.035.022-.346.042-.69.022-.345.021-.345.016-.259.025-.432.042-.69.02-.346.021-.345.02-.345.042-.69.02-.346.021-.345.02-.345.042-.691.02-.345.021-.345.02-.345.021-.346.02-.345.042-.69.02-.345.021-.346.02-.345.021-.345.008-.146.012-.199.42-7.25.021-.345.04-.691.015-.268.004-.077.04-.691.019-.345.04-.69.019-.346.02-.345.019-.345.04-.69.019-.346.04-.69.019-.345.04-.691.019-.345.02-.345.019-.345.04-.691.019-.345.04-.691.019-.345.013-.22.007-.125.019-.345.02-.346.038-.69.02-.345.038-.691.02-.345.038-.69.02-.346.019-.345.02-.345.038-.691.02-.345.038-.69.02-.345.019-.346.02-.345.038-.69.02-.346.035-.634.004-.056.076-1.381.02-.345.057-1.036.02-.345.057-1.036.02-.345.057-1.036.02-.345.057-1.036.02-.345.057-1.036.02-.345.019-.345.004-.076.015-.269.038-.691.02-.345.076-1.381.02-.345.076-1.381.02-.345.057-1.036.02-.345.057-1.036.02-.345.057-1.036.02-.345.057-1.036.02-.345.057-1.036.02-.345.038-.69.02-.346.057-1.035.02-.345.038-.691.02-.345.038-.691.02-.345.038-.69.02-.345.038-.691.019-.326.039-.71.02-.345.019-.345.02-.345.019-.346.02-.345.038-.69.02-.345.019-.346.02-.345.019-.345.02-.345.019-.346.02-.345.019-.345.02-.345.019-.346.02-.345.019-.345.02-.345.019-.345.02-.346.019-.345.02-.345v-.007l.019-.338.06-1.036.019-.345.04-.691.019-.345.04-.69.019-.346.06-1.035.019-.346.06-1.035.019-.346.08-1.38.019-.346.035-.602.005-.088.2-3.452.021-.346.16-2.761.021-.346.1-1.726.001-.004.02-.341.02-.345.021-.346.02-.345.021-.345.02-.345.021-.345.02-.346.021-.345.02-.345.021-.345.02-.346.021-.345.02-.345.042-.691.02-.345.021-.345.02-.345.042-.691.02-.345.021-.345.02-.345.015-.25.006-.096.21-3.452.022-.345.168-2.762.022-.345.063-1.036.017-.274.004-.071.044-.691.021-.345.044-.69.021-.345.044-.691.021-.345.066-1.036.021-.345.066-1.036.021-.345.11-1.726.021-.345.004-.052.019-.294.044-.69.023-.345.022-.346.023-.345.022-.345.023-.345.022-.345.023-.346.022-.345.023-.345.022-.345.023-.346.022-.345.023-.345.022-.345.023-.345.022-.346.046-.69.022-.345.016-.248.007-.098.046-.69.024-.345.046-.691.024-.345.046-.69.024-.346.046-.69.024-.345.046-.691.024-.345.023-.345.024-.346.023-.345.024-.345.023-.345.024-.345.01-.153.014-.193.072-1.035.025-.346.048-.69.025-.345.048-.691.025-.345.048-.69.025-.346.024-.345.025-.345.024-.345.025-.346.024-.345.025-.345.024-.345.007-.094.018-.252.026-.345.05-.69.026-.345.025-.346.026-.345.025-.345.026-.345.025-.346.026-.345.025-.345.052-.69.025-.346.026-.345.025-.345.052-.691.029-.4.023-.29.027-.345.026-.346.081-1.035.026-.345.162-2.072.026-.345.135-1.726.028-.345.029-.346.084-1.035.029-.346.056-.69.029-.345.028-.346.029-.345.056-.69.029-.345.028-.346.029-.345.028-.345.029-.345.33-3.798.031-.345.12-1.381.026-.286.005-.059.288-3.107.033-.346.096-1.035.033-.345.032-.346.02-.218.013-.127.068-.69.035-.346.034-.345.035-.345.034-.345.035-.346.034-.345.035-.345.034-.345.035-.345.034-.346.07-.69.012-.123.024-.222.222-2.072.038-.345.074-.69.038-.346.074-.69.038-.343v-.002l.08-.691.041-.345.04-.345.041-.345.04-.346.041-.345.04-.345.041-.345.04-.346.082-.69.021-.183.021-.162.044-.346.045-.345.088-.69.045-.345.044-.346.045-.345.044-.345.045-.345.044-.346.045-.345.196-1.381.05-.345.147-1.036.05-.345.049-.345.014-.093.315-1.979.056-.345.11-.69.026-.161.034-.184.062-.346.189-1.035.062-.346.126-.69.035-.189.033-.156.072-.346.365-1.726.038-.177.128-.513.348-1.381.031-.125.389-1.256.119-.381.125-.309.139-.346.244-.6.507-.876.508-.498.508-.124.508.247.102.125.405.491.508.981.357.945.131.345.02.051.19.64.103.345.104.345.11.369.08.321.17.691.086.345.085.345.087.35.437 2.067.071.332.002.013.256 1.381.063.345.192 1.036.057.345.056.345.342 2.072.047.286.009.059.051.345.052.346.102.69.052.345.102.691.052.345.051.345.037.246.013.099.282 2.072.046.345.141 1.036.025.185.02.16.044.345.215 1.726.044.346.129 1.035.044.345.012.1.029.246.32 2.761.041.346.08.69.038.326.039.365.038.345.037.345.038.345.037.346.038.345.037.345.038.345.037.345.038.346.037.345.038.345.037.345.019.167.018.179.07.69.036.345.105 1.036.036.345.105 1.036.036.345.07.691.031.302.004.043.034.345.066.691.034.345.066.69.034.345.066.691.034.345.066.691.034.345.033.345.034.345.003.035.028.311.064.69.031.345.064.691.031.345.064.69.031.346.064.69.031.345.064.691.031.345.005.045.116 1.336.031.345.09 1.036.031.345.12 1.381.031.345.088 1.014.002.022.29 3.452.028.345.188 2.238.014.179.112 1.381.027.345.14 1.726.027.345.112 1.381.027.346.028.345.021.254.007.091.027.345.026.346.135 1.726.026.345.135 1.726.026.345.108 1.381.017.228.009.117.468 6.215.025.345.006.074.02.271.05.691.026.345.1 1.381.026.345.1 1.381.026.345.1 1.381.026.345.05.691.024.345.025.345.024.345.025.346.024.345.025.345.024.345.05.691.024.345.025.345.024.345.025.346.024.345.025.345.024.345.025.346.024.345.025.345.528 7.595.023.345.048.691.023.345.024.345.023.345.024.346.023.345.024.345.046.691.024.345.023.345.024.345.023.345.024.346.023.345.024.345.023.345.024.346.023.345.024.345.207 3.107.024.345.253 3.798.02.289.003.056.069 1.036.022.345.069 1.036.022.345.069 1.036.022.345.046.69.022.346.069 1.035.022.345.069 1.036.003.056.019.289.023.346.022.345.023.345.022.345.023.346.022.345.023.345.022.345.023.345.044.691.023.345.022.345.023.346.022.345.023.345.022.345.023.346.022.345.023.345.022.345.017.258.006.087.066 1.036.023.345.044.691.023.345.044.691.023.345.066 1.035.023.346.044.69.023.345.066 1.036.023.345.022.346.012.181.01.164.044.69.023.345.088 1.381.023.346.11 1.726.023.345.11 1.726.023.345.044.691.009.147.013.198.066 1.036.023.345.132 2.071.023.346.176 2.761.023.346.044.69.008.129.014.216.066 1.036.023.345.11 1.726.023.346.11 1.726.023.345.132 2.071.007.099.016.247.044.69.023.345.066 1.036.023.345.044.691.023.345.066 1.036.023.345.066 1.035.023.346.066 1.035.023.346.001.026.021.319.023.345.022.345.023.346.022.345.023.345.022.345.023.345.022.346.023.345.022.345.023.345.022.346.023.345.044.69.023.346.022.345.023.345.022.345.023.345.022.346.015.228.008.117.023.345.022.345.092 1.381.022.345.092 1.381.022.346.069 1.035.022.346.092 1.38.022.346.022.325v.02l.023.345.024.345.092 1.381.024.346.092 1.38.024.346.092 1.381.024.345.111 1.666.005.06.023.345.072 1.036.023.345.072 1.036.023.345.072 1.036.023.345.072 1.036.023.345.072 1.036.023.345.005.07.02.275.024.345.025.345.048.691.025.345.024.345.025.346.024.345.025.345.024.345.025.346.024.345.025.345.048.69.025.346.024.345.025.345.024.345.024.336v.01l.026.345.025.345.026.345.05.691.026.345.05.69.026.346.05.69.026.345.075 1.036.026.345.05.691.026.345.025.345v.007l.026.338.027.346.026.345.027.345.026.345.027.346.026.345.027.345.052.69.027.346.026.345.027.345.026.345.027.346.052.69.027.345.026.346.006.078.022.267.028.345.027.345.14 1.726.027.346.112 1.381.027.345.112 1.381.013.164.015.181.06.69.029.346.03.345.029.345.06.691.029.345.03.345.029.345.03.345.029.346.03.345.029.345.06.691.019.221.011.124.096 1.036.031.345.16 1.726.031.345.128 1.381.031.345.019.206.119 1.175.034.345.105 1.036.034.345.105 1.036.034.345.07.691.007.07.07.62.038.345.078.691.038.345.078.691.038.345.078.69.038.345.039.346.013.113.029.232.044.345.045.345.352 2.762.037.289.009.056.208 1.381.053.346.238 1.58.027.146.26 1.381.064.345.157.833.051.203.264 1.035.087.345.105.413.115.278.141.345.252.613.508.423v-344.88h-507.18v309.9l5.585-.697 5.585-.718 6.092-.808 5.077-.694 2.031-.283 3.554-.503 4.609-.667 4.02-.596 5.585-.85 4.569-.716 4.062-.652 3.554-.583 2.538-.424 4.062-.691 3.046-.529 3.046-.539 3.554-.641 3.046-.56 4.331-.814 4.808-.929 3.046-.603 3.046-.614 3.046-.626 3.554-.745 2.031-.433 4.061-.883.508-.112 3.554-.794 2.089-.475 2.988-.691 3.046-.718 1.523-.364 2.656-.644 1.405-.345v-.001l3.047-.759 3.046-.774 2.538-.658 2.539-.668 2.538-.68 2.538-.692 3.047-.846 1.581-.446 1.213-.345 2.79-.806 2.539-.746 3.046-.913 2.538-.776 2.896-.902 2.689-.854 2.031-.656 1.715-.561 3.11-1.036 1.022-.345 1.014-.345 2.277-.785 1.707-.596 2.355-.836 1.523-.548 1.015-.368 2.031-.746 1.637-.609 1.917-.723 1.722-.658 1.831-.71 1.711-.671 1.843-.734 1.016-.408 1.44-.584 1.681-.691 1.66-.69 1.819-.767 2.241-.96 1.588-.69 1.57-.69 1.708-.762 1.375-.619 1.514-.691 1.68-.776 1.524-.713 1.233-.582.724-.345 1.437-.691 1.42-.69 2.101-1.036 1.381-.69 1.365-.691 1.352-.69 1.336-.691.663-.345.187-.099.472-.246 1.308-.691 1.293-.69.643-.345 1.361-.739 1.173-.642 1.366-.757.508-.283.608-.341 1.223-.691 1.81-1.035.42-.244.178-.102 1.853-1.082 1.669-.989.578-.345.291-.176.283-.169 1.14-.691 1.129-.69 1.119-.691.555-.345.343-.215.21-.13 1.643-1.036.542-.345.144-.093.396-.252 1.635-1.056 1.027-.671 1.048-.69.521-.345 1.548-1.036.425-.288.086-.057.509-.345 1.01-.691 1-.69.994-.691.985-.69.998-.706 1.428-1.02 1.432-1.036.186-.137.287-.208.22-.163.251-.183.936-.69.336-.251.129-.094 1.841-1.381.456-.345.906-.691.898-.69 1.355-1.053.86-.673.155-.124.283-.222.87-.69.37-.297.062-.048.861-.691.093-.076.335-.269.426-.345.254-.209.17-.137 1.262-1.035.091-.076.328-.269.18-.151.236-.195.779-.651.048-.039.822-.691.408-.345.245-.209.162-.136.346-.296.059-.049.807-.691.401-.345.256-.223.143-.122 1.19-1.036.19-.168.203-.177.392-.345.781-.691.147-.132.241-.213.267-.24.119-.105.769-.691.127-.116.256-.229.252-.23.129-.115 1.135-1.036.259-.239.117-.106 1.119-1.036 1.108-1.036.367-.345 1.093-1.035 1.081-1.036.358-.345.713-.691.136-.134.219-.211.705-.69.092-.092.609-.599.406-.403.291-.287.217-.218.129-.128.689-.69.197-.2.146-.145.683-.691.187-.191.153-.154.354-.363.322-.327.186-.192.151-.154.669-.69.195-.203.139-.142.369-.386.294-.305.214-.225.116-.12.329-.345.062-.067.267-.279.652-.69.097-.104.229-.241.279-.299.368-.392.139-.151.183-.194.325-.351.316-.339.699-.76.256-.276.631-.691.129-.143.185-.202.322-.356.304-.334.204-.228.107-.117.621-.691.307-.345.309-.345.179-.203.128-.143.611-.69.303-.345.305-.345.176-.204.126-.142.382-.439.221-.251.598-.691.196-.228.102-.117.406-.473.188-.217.32-.376.27-.315.587-.69.158-.188.134-.157.374-.445.209-.246.288-.345.01-.013.28-.332.228-.275.348-.416.16-.194.412-.496.096-.118.189-.228.318-.388.25-.302.281-.345.284-.345.28-.346.281-.345.147-.184.132-.161.279-.345.097-.122.182-.224.554-.69.279-.352.272-.339.273-.345.275-.345.196-.25.349-.44.158-.204.113-.142.271-.345.124-.16.147-.185.269-.345.092-.12.177-.226.267-.345.063-.083.205-.262.303-.394.23-.297.278-.363.252-.327.256-.336.006-.009.265-.345.261-.346.264-.345.219-.292.303-.398.205-.275.314-.416.193-.26.065-.085.259-.345.184-.25.072-.095.258-.346.178-.242.334-.448.173-.238.081-.107.255-.346.172-.237.081-.108.253-.345.174-.24.078-.105.252-.346.177-.245.074-.1.251-.345.183-.255.317-.435.247-.346.25-.345.246-.345.248-.345.245-.346.248-.345.243-.345.247-.345.248-.354.239-.337.268-.383.218-.307.29-.418.193-.273.315-.454.166-.236.239-.345.102-.15.137-.196.239-.345.132-.194.343-.496.236-.346.238-.345.198-.293.273-.397.233-.345.002-.004.234-.342.233-.345.041-.062.193-.283.465-.691.231-.345.126-.19.106-.155.231-.345.171-.26.289-.431.227-.345.231-.345.227-.345.041-.064.188-.282.32-.489.36-.546.148-.229.303-.462.223-.345.226-.345.263-.408.185-.283.323-.503.122-.187.222-.345.163-.258.058-.088.222-.345.228-.36.213-.33.295-.467.144-.224.219-.345.144-.232.073-.113.219-.345.216-.346.219-.345.216-.345.073-.119.144-.226.364-.586.282-.45.213-.345.012-.021.204-.325.213-.345.091-.15.122-.195.213-.345.173-.283.039-.062.213-.346.255-.42.168-.27.21-.345.13-.216.291-.475.217-.36.202-.33.208-.346.097-.163.112-.182.208-.345.188-.316.227-.374.281-.472.339-.564.168-.287.036-.058.207-.346.204-.345.061-.105.144-.24.205-.345.159-.273.248-.418.26-.444.146-.246.202-.345.159-.275.245-.416.263-.454.139-.236.201-.346.199-.345.202-.345.198-.345.076-.134.124-.211.199-.346.185-.325.212-.365.197-.345.099-.175.297-.516.195-.345.015-.028.183-.317.196-.346.129-.23.263-.46.194-.345.051-.092.145-.253.194-.346.168-.302.221-.388.193-.345.094-.172.099-.174.194-.345.215-.389.17-.301.192-.346.145-.265.238-.425.191-.345.079-.146.112-.199.191-.346.188-.345.192-.345.19-.345.188-.346.191-.345.188-.345.083-.156.105-.189.189-.346.187-.345.027-.051.162-.294.187-.345.159-.296.216-.395.291-.544.268-.491.24-.452.13-.239.186-.345.192-.362.178-.328.184-.346.145-.276.038-.069.186-.345.182-.345.102-.195.082-.151.184-.345.242-.461.123-.229.183-.346.201-.386.163-.304.182-.345.163-.316.016-.029.183-.346.181-.345.128-.248.052-.097.182-.345.274-.53.266-.506.178-.345.063-.124.117-.222.18-.345.211-.412.146-.278.179-.345.183-.359.173-.332.178-.345.156-.308.02-.037.179-.346.177-.345.132-.261.044-.084.178-.345.176-.346.11-.218.066-.127.177-.345.175-.345.089-.178.087-.167.177-.346.174-.345.07-.141.105-.204.176-.345.227-.453.122-.238.175-.345.172-.345.038-.078.138-.268.174-.345.172-.345.024-.05.151-.295.173-.345.171-.346.175-.345.173-.345.17-.345.175-.346.173-.345.169-.345.175-.345.171-.345.17-.346.174-.345.171-.345.169-.345.173-.346.171-.345.142-.293.027-.052.173-.345.17-.346.138-.285.202-.405.17-.345.136-.281.204-.41.169-.345.134-.278.034-.067.171-.345.169-.346.134-.278.034-.067.171-.345.168-.345.135-.281.203-.41.168-.345.136-.285.201-.405.168-.346.139-.291.197-.399.167-.345.166-.346.17-.345.167-.345.148-.311.187-.38.167-.345.154-.323.181-.367.166-.345.165-.346.169-.345.167-.345.168-.353.165-.338.167-.345.175-.37.157-.32.167-.345.163-.346.169-.345.166-.345.194-.409.138-.282.166-.345.164-.345.039-.084.128-.261.167-.346.164-.345.049-.105.117-.24.167-.345.164-.345.06-.128.106-.217.167-.345.164-.345.07-.151.096-.194.167-.345.164-.345.081-.174.084-.171.167-.345.164-.345.093-.198.239-.493.165-.345.103-.221.229-.469.164-.345.115-.244.05-.101.167-.345.165-.345.126-.267.206-.423.165-.345.137-.29.195-.401.165-.345.147-.312.017-.034.168-.345.166-.345.163-.345.169-.345.166-.345.163-.345.004-.007.166-.339.166-.345.164-.345.011-.025.158-.32.167-.345.183-.386.15-.304.167-.345.191-.401.143-.29.168-.345.165-.345.031-.067.138-.278.168-.345.166-.345.036-.077.133-.268.169-.345.206-.429.13-.261.17-.345.166-.345.041-.087.13-.258.17-.345.208-.433.13-.258.17-.345.168-.345.04-.084.132-.261.171-.345.205-.421.136-.269.172-.345.169-.345.03-.063.144-.282.172-.345.192-.391.153-.299.173-.345.182-.369.165-.322.174-.345.168-.341.003-.005.178-.345.175-.345.152-.306.2-.384.175-.345.133-.265.222-.425.176-.345.109-.217.068-.128.181-.345.177-.345.082-.162.098-.184.182-.345.228-.443.133-.247.182-.345.192-.371.174-.319.183-.345.151-.29.031-.055.188-.345.184-.345.105-.199.271-.491.185-.345.051-.098.14-.247.19-.345.186-.345.196-.345.191-.345.113-.208.08-.138.196-.345.232-.417.159-.273.198-.345.15-.268.046-.077.203-.345.199-.345.06-.106.144-.239.205-.345.159-.275.254-.416.205-.345.048-.083.165-.262.211-.345.132-.221.08-.124.218-.345.212-.345.225-.345.219-.345.061-.099.165-.246.226-.345.117-.183.112-.162.233-.345.163-.248.069-.097.241-.345.197-.292.04-.053.248-.345.22-.314.024-.031.257-.345.227-.314.291-.377.217-.289.321-.401.186-.24.09-.106.286-.345.132-.163.161-.182.347-.405.264-.285.243-.272.073-.073.333-.345.102-.109.247-.236.261-.259.098-.087.378-.345.031-.03.38-.316.128-.111.31-.235.198-.155.279-.19.228-.161.306-.184.202-.126.418-.219.09-.049.508-.224.211-.072.296-.105.508-.129.508-.078.507-.025.508.031.508.089.507.151.157.065.351.15.357.195.151.086.378.259.129.092.308.253.2.171.181.174.327.327.323.364.184.217.102.129.265.345.141.19.108.155.235.345.165.251.059.094.211.345.238.403.159.287.187.345.161.306.194.385.168.345.146.307.175.383.154.345.179.413.116.277.142.345.138.345.136.345.132.345.129.345.127.345.124.345.121.345.12.345.116.345.122.365.106.325.111.345.109.345.107.345.074.244.031.101.104.345.102.345.101.345.099.345.194.69.095.345.094.345.092.345.182.691.089.345.088.345.172.691.08.331.004.015.168.691.082.345.16.691.079.345.015.067.064.278.078.345.077.345.076.345.075.345.074.345.064.301.009.044.074.345.073.345.072.345.071.345.07.345.138.69v.003l.068.343.069.345.068.345.066.345.067.345.13.69.039.213.09.477.128.69.186 1.036.06.345.183 1.036.059.345.06.345.174 1.036.056.345.02.118.038.228.114.69.112.691.11.69.054.345.079.515.028.176.108.691.106.69.104.691.102.691.05.345.052.345.051.345.05.345.051.345.049.345.05.345.048.345.049.345.096.691.022.161.026.184.144 1.036.094.691.046.345.047.345.045.345.046.345.045.345.014.115.031.231.092.691.09.691.132 1.036.129 1.036.042.345.088.69.043.345.042.345.043.345.042.345.041.346.042.345.082.69.04.346.037.315.003.03.042.345.123 1.036.12 1.035.156 1.381.038.346.025.23.014.115.117 1.035.038.346.039.345.076.69.185 1.727.036.345.003.031.034.314.038.345.074.691.036.345.037.345.072.691.035.345.036.345.07.691.034.345.042.413.029.277.035.345.036.346.07.69.034.345.035.346.136 1.381.132 1.38v.002l.136 1.379.132 1.381.032.345.033.346.096 1.035.031.346.032.345.016.183.016.162.064.691.033.345.032.345.031.345.032.345.031.346.032.345.062.69.03.346.031.345.06.69.031.346.023.27.007.075.093 1.035.03.346.031.345.15 1.726.029.345.03.346.087 1.035.028.345.023.268.006.078.06.69.029.345.03.346.145 1.726.084 1.035.029.346.027.345.056.69.041.524.043.512.028.345.029.345.084 1.036.027.345.056.691.135 1.726.026.345.027.345.026.346.027.345v.004l.027.341.028.345.135 1.727.026.345.027.345.026.345.027.345.078 1.036.025.345.026.346.025.345.026.345.025.345.026.346.027.345.156 2.071.025.345.026.346.175 2.416.048.691.025.345.006.094.019.251.025.345.026.346.15 2.071.024.345.025.345.168 2.417.023.345.024.345.023.346v.01l.024.335.025.345.048.691.025.345.12 1.726.023.345.024.345.046.691.024.345.092 1.381.022.345.046.691.048.69.023.345.024.346.023.345.024.345.138 2.071.022.346.023.345.022.345.023.345.11 1.727.016.253.007.092.092 1.381.022.345.046.69.022.346.023.345.154 2.416.021.346.044.69.042.691.022.345.013.221.008.124.023.345.044.691.023.345.088 1.381.021.345.044.691.021.345.022.345.063 1.036.022.345.042.69.02.346.042.69.02.345.005.073.017.273.044.69.021.345.044.691.042.69.022.345.126 2.072.02.345.042.69.04.691.021.345.06 1.036.008.14.035.55.168 2.762.02.345.021.346.02.345.021.345.02.345.021.346.12 2.071.019.345.04.691.003.06.017.285.084 1.381.02.345.021.345.02.345.021.346.18 3.107.019.345.04.69.038.691.02.345.019.345.009.16.011.186.02.345.021.345.02.345.021.345.18 3.108.019.345.02.345.019.345.02.345.038.691.02.345.095 1.726.18 3.107.019.346.04.69.019.345.02.345.057 1.036.02.345.076 1.381.018.346.038.69.018.345.006.107.014.238.1 1.727.019.345.02.345.019.345.02.346.019.345.02.345.057 1.036.02.345.038.69.018.346.057 1.035.018.346.038.69.018.345.013.242.046.794.019.345.04.691.019.345.02.345.019.345.02.346.038.69.02.345.095 1.726.018.346.038.69.018.345.038.691.036.69.019.345.005.093.014.253.04.69.019.345.04.691.019.345.02.345.057 1.036.02.345.095 1.726.018.346.057 1.035.018.345.019.346.036.69.019.345.016.312.062 1.069.019.346.04.69.019.345.02.345.038.691.02.345.133 2.417.018.345.038.69.018.346.019.345.018.345.019.345.018.346.009.165.01.18.12 2.071.019.345.02.346.019.345.02.345.038.691.02.345.133 2.416.018.346.038.69.018.345.019.346.016.296.003.049.18 3.107.019.345.04.691.019.345.02.345.038.69.02.346.152 2.761.016.309.003.037.02.345.021.345.02.345.021.346.04.69.021.345.16 2.762.019.345.02.346.019.345.02.345.019.345.02.346.038.69.02.345.019.345.008.149.159 2.613.02.346.042.69.02.345.021.345.06 1.036.021.345.1 1.727.019.345.04.69.006.105.015.24.044.691.021.345.044.691.021.345.022.345.042.69.022.346.126 2.071.02.345.042.691.02.345.021.345.02.345.021.346.006.116.016.229.022.345.046.691.022.345.023.345.022.345.023.346.198 3.107.021.345.022.345.021.345.022.346.021.345.022.345.007.122.016.223.072 1.036.023.345.048.691.023.345.024.345.046.69.024.346.115 1.726.022.345.046.691.022.345.027.405.021.285.026.345.025.346.026.345.2 2.762.024.345.025.345.024.345.025.346.048.69.025.345.024.346.015.213.01.132.028.345.027.345.028.346.027.345.028.345.135 1.726.026.345.054.691.052.69.027.346.052.69.013.176.015.169.031.345.18 2.072.029.345.03.345.029.345.03.346.145 1.726.019.233.147 1.493.033.345.034.345.198 2.072.032.345.033.345.031.33v.016l.04.345.117 1.035.038.346.039.345.19 1.726.037.345.038.346.007.069.038.276.047.345.092.69.047.346.045.345.046.345.045.345.046.346.045.345.044.345.013.097.042.248.118.691.116.69.171 1.036.056.345.005.027.074.318.16.691.078.345.079.345.116.519.065.172.129.345.127.345.126.345.061.169.176.177.332.341"/><use xlink:href="#B"/></g><use fill="#fff" xlink:href="#B"/><use stroke="#add8e6" xlink:href="#C"/><g stroke="#fff"><use xlink:href="#C"/><use xlink:href="#C"/><use xlink:href="#C"/></g><g fill="none" stroke-linecap="square"><g stroke-width="2"><path stroke="#ff4c00" clip-path="url(#a)" d="m21.632 347.48l18.295-2.363 17.279-2.457 16.262-2.538 15.246-2.604 14.23-2.651 13.213-2.675 13.213-2.903 12.197-2.906 11.18-2.874 11.181-3.098 10.164-3.03 10.164-3.252 10.164-3.497 9.147-3.377 9.148-3.615 9.148-3.875 8.131-3.682 8.131-3.927 8.131-4.192 7.115-3.905 7.115-4.142 7.114-4.399 7.115-4.676 7.115-4.976 6.098-4.521 6.099-4.775 6.098-5.05 6.099-5.338 6.098-5.649 6.098-5.982 6.099-6.338 6.098-6.717 5.082-5.907 5.082-6.202 5.082-6.515 5.082-6.842 5.082-7.184 5.082-7.541 5.082-7.91 5.082-8.29 5.082-8.676 5.082-9.06 6.098-11.376 6.099-11.886 7.115-14.41 19.311-39.617 4.066-7.53 3.049-5.126 2.033-3.076 2.033-2.731 2.032-2.31 2.033-1.8 1.017-.677 1.016-.508 1.016-.324 1.017-.121 1.016.1 1.017.343 1.016.609 1.016.9 1.017 1.218 1.016 1.566 1.017 1.945 1.016 2.359 1.016 2.81 1.017 3.302 1.016 3.836 1.017 4.417 1.016 5.05 1.016 5.726 1.017 6.459 1.016 7.246 1.016 8.09 2.033 18.906 2.033 22.846 2.033 26.994 2.033 31.04 2.032 34.465 5.082 89.64 1.017 15.586 1.016 13.71 1.017 11.352 1.016 8.563 1.016 5.429 1.017 2.069 1.016-1.381 1.017-4.772 1.016-7.96 1.016-10.826 1.017-13.272 2.033-31.946 6.098-105.7 2.033-29.466 1.016-12.768 1.017-11.337 1.016-9.851 1.016-8.329 1.017-6.789 1.016-5.245 1.017-3.704 1.016-2.175 1.016-.663 1.017.826 1.016 2.29 1.017 3.72 1.016 5.116 1.016 6.47 1.017 7.777 1.016 9.03 2.033 21.543 2.033 25.639 2.033 28.878 7.114 107.2 1.017 12.952 1.016 11.452 1.017 9.592 1.016 7.349 1.016 4.71 1.017 1.662"/><path stroke="#f00" clip-path="url(#a)" d="m528.82 382.47v-344.88"/></g><g stroke-width="1.2"><path stroke="#09f" stroke-linejoin="round" clip-path="url(#a)" d="m21.617 347.44l20.19-2.596 21.529-3.135 19.2-3.135 17.26-3.136 15.63-3.135 14.244-3.135 13.05-3.136 12.02-3.135 11.12-3.135 10.323-3.136 9.62-3.135 8.994-3.135 8.435-3.136 7.931-3.135 7.477-3.135 7.06-3.136 6.69-3.135 6.346-3.135 6.03-3.135 5.744-3.136 5.479-3.135 5.233-3.135 5-3.136 4.794-3.135 4.598-3.135 4.415-3.136 4.244-3.135 4.084-3.135 3.934-3.136 3.793-3.135 3.661-3.135 3.536-3.135 3.418-3.136 3.307-3.135 3.203-3.135 3.103-3.136 3.01-3.135 2.92-3.135 2.834-3.136 2.754-3.135 2.676-3.135 2.604-3.136 2.533-3.135 2.467-3.135 2.403-3.136 2.342-3.135 2.284-3.135 2.228-3.135 2.175-3.136 2.123-3.135 2.074-3.135 2.026-3.136 1.981-3.135 1.938-3.135 1.895-3.136 1.855-3.135 1.816-3.135 1.778-3.136 1.742-3.135 1.707-3.135 1.673-3.136 1.641-3.135 1.609-3.135 1.578-3.135 1.549-3.136 1.521-3.135 1.492-3.135 1.467-3.136 1.44-3.135 1.415-3.135 1.391-3.136 1.367-3.135 1.344-3.135 1.322-3.136 1.3-3.135 1.279-3.135 1.259-3.135 1.239-3.136 1.22-3.135 1.201-3.135 1.183-3.135 1.165-3.135 1.148-3.135 1.131-3.135 1.114-3.135 1.098-3.135 1.083-3.135 1.068-3.135 1.053-3.135 1.038-3.135 1.025-3.135 1.01-3.135.998-3.135.984-3.135.971-3.135.959-3.135.946-3.135.935-3.135.923-3.135"/><path stroke="#32cd32" clip-path="url(#a)" d="m528.3 382.04l-1.064-3.48-.619-3.479-.495-3.479-.428-3.48-.386-3.479-.356-3.479-.332-3.48-.314-3.479-.299-3.479-.287-3.479-.276-3.48-.267-3.479-.259-3.479-.253-3.48-.246-3.479-.24-3.479-.236-3.48-.23-3.479-.227-3.479-.223-3.48-.219-3.479-.217-3.479-.213-3.48-.21-3.479-.208-3.479-.205-3.48-.203-3.479-.201-3.479-.199-3.48-.197-3.479-.195-3.479-.194-3.48-.192-3.479-.19-3.479-.189-3.48-.188-3.479-.372-6.959-.184-3.479-.364-6.959-.181-3.479-.18-3.479-.356-6.959-.354-6.958-.35-6.959-.174-3.479-.173-3.48-.516-10.438-.34-6.958-.17-3.48-.169-3.479-.336-6.959-.501-10.438-.166-3.479-.165-3.479-.166-3.48-.164-3.479-.165-3.479-.328-6.959-.326-6.959-.162-3.479-.163-3.479-.162-3.48-.161-3.479-.162-3.479-.322-6.959-.16-3.479-.161-3.479-.32-6.959-.159-3.479-.16-3.479-.318-6.959-.158-3.479-.159-3.479-.79-17.397-.785-17.397"/></g><g stroke="#000" stroke-width=".8"><path d="m7.2 382.47h531.84"/><path d="m528.82 389.37v-358.68"/></g></g><use x="21.632" y="382.47" xlink:href="#b"/><g transform="matrix(.1 0 0-.1 14.04 394.07)"><use xlink:href="#e"/><use x="36.08" xlink:href="#d"/><use x="99.71" xlink:href="#c"/></g><use x="123.07" y="382.47" xlink:href="#b"/><g transform="matrix(.1 0 0-.1 118.67 394.07)"><use xlink:href="#e"/><use x="36.08" xlink:href="#f"/></g><use x="224.51" y="382.47" xlink:href="#b"/><g transform="matrix(.1 0 0-.1 220.08 394.07)"><use xlink:href="#e"/><use x="36.08" xlink:href="#g"/></g><use x="325.94" y="382.47" xlink:href="#b"/><g transform="matrix(.1 0 0-.1 321.48 394.07)"><use xlink:href="#e"/><use x="36.08" xlink:href="#h"/></g><use x="427.38" y="382.47" xlink:href="#b"/><g transform="matrix(.1 0 0-.1 423.14 394.07)"><use xlink:href="#e"/><use x="36.08" xlink:href="#i"/></g><use x="528.81" y="382.47" xlink:href="#b"/><use x="46.991" y="382.47" xlink:href="#j"/><use x="72.35" y="382.47" xlink:href="#j"/><use x="97.71" y="382.47" xlink:href="#j"/><use x="148.43" y="382.47" xlink:href="#j"/><use x="173.79" y="382.47" xlink:href="#j"/><use x="199.15" y="382.47" xlink:href="#j"/><use x="249.86" y="382.47" xlink:href="#j"/><use x="275.22" y="382.47" xlink:href="#j"/><use x="300.58" y="382.47" xlink:href="#j"/><use x="351.3" y="382.47" xlink:href="#j"/><use x="376.66" y="382.47" xlink:href="#j"/><use x="402.02" y="382.47" xlink:href="#j"/><use x="452.74" y="382.47" xlink:href="#j"/><use x="478.1" y="382.47" xlink:href="#j"/><use x="503.46" y="382.47" xlink:href="#j"/><g stroke-linejoin="round" transform="translate(0 2.656)"><use width="563" height="403" xlink:href="#k" transform="matrix(.16 0 0-.16 547.04 382.34)"/></g><use x="528.81" y="382.47" xlink:href="#l"/><g stroke-linejoin="round"><use width="563" x="528.81" y="339.36" height="403" xlink:href="#l"/><g transform="matrix(.1 0 0-.1 535.82 342.12)"><use width="563" height="403" xlink:href="#c"/><use width="563" x="63.62" height="403" xlink:href="#m"/><use width="563" x="95.41" height="403" xlink:href="#c"/><use width="563" x="159.03" height="403" xlink:href="#d"/></g><use width="563" x="528.81" y="296.25" height="403" xlink:href="#l"/><g transform="matrix(.1 0 0-.1 535.86 299.01)"><use width="563" height="403" xlink:href="#c"/><use width="563" x="63.62" height="403" xlink:href="#m"/><use width="563" x="95.41" height="403" xlink:href="#c"/><use width="563" x="159.03" height="403" xlink:href="#i"/></g><use width="563" x="528.81" y="253.14" height="403" xlink:href="#l"/><g transform="matrix(.1 0 0-.1 535.76 255.89)"><use width="563" height="403" xlink:href="#c"/><use width="563" x="63.62" height="403" xlink:href="#m"/><use width="563" x="95.41" height="403" xlink:href="#c"/><use width="563" x="159.03" height="403" xlink:href="#n"/></g><use width="563" x="528.81" y="210.02" height="403" xlink:href="#l"/><g transform="matrix(.1 0 0-.1 535.64 212.78)"><use width="563" height="403" xlink:href="#c"/><use width="563" x="63.62" height="403" xlink:href="#m"/><use width="563" x="95.41" height="403" xlink:href="#c"/><use width="563" x="159.03" height="403" xlink:href="#h"/></g><use width="563" x="528.81" y="166.91" height="403" xlink:href="#l"/><g transform="matrix(.1 0 0-.1 535.79 169.67)"><use width="563" height="403" xlink:href="#c"/><use width="563" x="63.62" height="403" xlink:href="#m"/><use width="563" x="95.41" height="403" xlink:href="#c"/><use width="563" x="159.03" height="403" xlink:href="#o"/></g><use width="563" x="528.81" y="123.8" height="403" xlink:href="#l"/><g transform="matrix(.1 0 0-.1 535.67 126.56)"><use width="563" height="403" xlink:href="#c"/><use width="563" x="63.62" height="403" xlink:href="#m"/><use width="563" x="95.41" height="403" xlink:href="#c"/><use width="563" x="159.03" height="403" xlink:href="#g"/></g><use width="563" x="528.81" y="80.69" height="403" xlink:href="#l"/><g transform="matrix(.1 0 0-.1 535.78 83.45)"><use width="563" height="403" xlink:href="#c"/><use width="563" x="63.62" height="403" xlink:href="#m"/><use width="563" x="95.41" height="403" xlink:href="#c"/><use width="563" x="159.03" height="403" xlink:href="#p"/></g><use width="563" x="528.81" y="37.583" height="403" xlink:href="#l"/><g transform="matrix(.1 0 0-.1 535.7 40.34)"><use width="563" height="403" xlink:href="#c"/><use width="563" x="63.62" height="403" xlink:href="#m"/><use width="563" x="95.41" height="403" xlink:href="#c"/><use width="563" x="159.03" height="403" xlink:href="#f"/></g></g><use x="528.81" y="373.84" xlink:href="#q"/><use x="528.81" y="365.22" xlink:href="#q"/><use x="528.81" y="356.6" xlink:href="#q"/><use x="528.81" y="347.98" xlink:href="#q"/><use x="528.81" y="330.73" xlink:href="#q"/><use x="528.81" y="322.11" xlink:href="#q"/><use x="528.81" y="313.49" xlink:href="#q"/><use x="528.81" y="304.87" xlink:href="#q"/><use x="528.81" y="296.25" xlink:href="#q"/><use x="528.81" y="287.62" xlink:href="#q"/><use x="528.81" y="279" xlink:href="#q"/><use x="528.81" y="270.38" xlink:href="#q"/><use x="528.81" y="261.76" xlink:href="#q"/><use x="528.81" y="244.51" xlink:href="#q"/><use x="528.81" y="235.89" xlink:href="#q"/><use x="528.81" y="227.27" xlink:href="#q"/><use x="528.81" y="218.65" xlink:href="#q"/><use x="528.81" y="201.4" xlink:href="#q"/><use x="528.81" y="192.78" xlink:href="#q"/><use x="528.81" y="184.16" xlink:href="#q"/><use x="528.81" y="175.54" xlink:href="#q"/><use x="528.81" y="158.29" xlink:href="#q"/><use x="528.81" y="149.67" xlink:href="#q"/><use x="528.81" y="141.05" xlink:href="#q"/><use x="528.81" y="132.43" xlink:href="#q"/><use x="528.81" y="123.8" xlink:href="#q"/><use x="528.81" y="115.18" xlink:href="#q"/><use x="528.81" y="106.56" xlink:href="#q"/><use x="528.81" y="97.94" xlink:href="#q"/><use x="528.81" y="89.32" xlink:href="#q"/><use x="528.81" y="72.07" xlink:href="#q"/><use x="528.81" y="63.45" xlink:href="#q"/><use x="528.81" y="54.827" xlink:href="#q"/><use x="528.81" y="46.2" xlink:href="#q"/><use x="528.81" y="37.583" xlink:href="#q"/><use xlink:href="#r" transform="matrix(.16 0 0-.16 524.89 19.243)"/><g transform="matrix(.15 0 0-.15 163.89 127.01)"><use xlink:href="#s" transform="translate(0 .688)"/><use xlink:href="#r" transform="matrix(.7 0 0 .7 82.71-24.822)"/></g><path opacity=".5" fill="#454545" stroke="#454545" d="m16.918 104.42h53.52q2.4 0 2.4-2.4v-58.26q0-2.4-2.4-2.4h-53.52q-2.4 0-2.4 2.4v58.26q0 2.4 2.4 2.4z"/><path fill="#e6e6e6" stroke="#000" d="m14.918 102.42h53.52q2.4 0 2.4-2.4v-58.26q0-2.4-2.4-2.4h-53.52q-2.4 0-2.4 2.4v58.26q0 2.4 2.4 2.4z"/><path fill="none" stroke="#ff4c00" stroke-linecap="square" stroke-width="2" d="m23.318 51.48h-6.6"/><g transform="matrix(.12 0 0-.12 26.318 55.675)"><use xlink:href="#t" transform="translate(0 .422)"/><use xlink:href="#v" transform="translate(100.86.422)"/><use xlink:href="#u" transform="translate(184.92.422)"/></g><path fill="none" stroke="#f00" stroke-linecap="square" stroke-width="2" d="m23.318 63.33h-6.6"/><g transform="matrix(.12 0 0-.12 26.318 67.53)"><use xlink:href="#k" transform="translate(0 .391)"/><use xlink:href="#v" transform="translate(74.64.391)"/><use xlink:href="#u" transform="translate(158.7.391)"/></g><path fill="none" stroke="#09f" stroke-linecap="square" stroke-width="1.2" d="m23.318 75.18h-6.6"/><g transform="matrix(.12 0 0-.12 26.318 79.38)"><use xlink:href="#w"/><use xlink:href="#y" transform="translate(38.818)"/><use xlink:href="#r" transform="matrix(.7 0 0 .7 119.14-25.509)"/><use xlink:href="#z" transform="translate(167.53)"/><use xlink:href="#r" transform="translate(223.54)"/><use xlink:href="#x" transform="translate(271.92)"/></g><path fill="none" stroke="#32cd32" stroke-linecap="square" stroke-width="1.2" d="m23.318 87.78h-6.6"/><g transform="matrix(.12 0 0-.12 26.318 91.98)"><use xlink:href="#w"/><use xlink:href="#A" transform="translate(38.818)"/><use xlink:href="#r" transform="matrix(.7 0 0 .7 83.2-25.509)"/><use xlink:href="#z" transform="translate(131.59)"/><use xlink:href="#r" transform="translate(187.6)"/><use xlink:href="#x" transform="translate(235.99)"/></g></svg>