<svg width="611.25" xmlns="http://www.w3.org/2000/svg" height="457.5" viewBox="0 0 489 366" xmlns:xlink="http://www.w3.org/1999/xlink"><defs><clipPath id="a"><path d="m22.423 15.801h442.54v343.01h-442.54z"/></clipPath><path stroke="#000" id="b" stroke-width=".5" d="m0 0v-4"/><path id="c" d="m31.781 66.41q-7.609 0-11.453-7.5-3.828-7.484-3.828-22.531 0-14.984 3.828-22.484 3.844-7.5 11.453-7.5 7.672 0 11.5 7.5 3.844 7.5 3.844 22.484 0 15.05-3.844 22.531-3.828 7.5-11.5 7.5m0 7.813q12.266 0 18.734-9.703 6.469-9.688 6.469-28.14 0-18.406-6.469-28.11-6.469-9.688-18.734-9.688-12.25 0-18.719 9.688-6.469 9.703-6.469 28.11 0 18.453 6.469 28.14 6.469 9.703 18.719 9.703"/><path id="d" d="m12.406 8.297h16.11v55.625l-17.531-3.516v8.984l17.438 3.516h9.859v-64.61h16.11v-8.297h-41.984z"/><path id="e" d="m10.688 12.406h10.313v-12.406h-10.313z"/><path id="f" d="m19.19 8.297h34.422v-8.297h-46.28v8.297q5.609 5.813 15.297 15.594 9.703 9.797 12.188 12.641 4.734 5.313 6.609 9 1.891 3.688 1.891 7.25 0 5.813-4.078 9.469-4.078 3.672-10.625 3.672-4.641 0-9.797-1.609-5.141-1.609-11-4.891v9.969q5.953 2.391 11.125 3.609 5.188 1.219 9.484 1.219 11.328 0 18.06-5.672 6.734-5.656 6.734-15.12 0-4.5-1.688-8.531-1.672-4.02-6.125-9.484-1.219-1.422-7.766-8.187-6.531-6.766-18.453-18.922"/><path id="g" d="m40.578 39.31q7.078-1.516 11.05-6.313 3.984-4.781 3.984-11.813 0-10.781-7.422-16.703-7.422-5.906-21.09-5.906-4.578 0-9.438.906-4.859.906-10.03 2.719v9.516q4.094-2.391 8.969-3.609 4.891-1.219 10.219-1.219 9.266 0 14.13 3.656 4.859 3.656 4.859 10.641 0 6.453-4.516 10.08-4.516 3.641-12.562 3.641h-8.5v8.109h8.891q7.266 0 11.125 2.906 3.859 2.906 3.859 8.375 0 5.609-3.984 8.609-3.969 3.02-11.391 3.02-4.063 0-8.703-.891-4.641-.875-10.203-2.719v8.781q5.625 1.562 10.531 2.344 4.906.781 9.25.781 11.234 0 17.766-5.109 6.547-5.094 6.547-13.781 0-6.06-3.469-10.234-3.469-4.172-9.859-5.781"/><path id="h" d="m37.797 64.31l-24.906-38.922h24.906zm-2.594 8.594h12.406v-47.52h10.406v-8.203h-10.406v-17.188h-9.813v17.188h-32.906v9.516z"/><path id="i" d="m10.797 72.906h38.719v-8.312h-29.688v-17.859q2.141.734 4.281 1.094 2.156.359 4.313.359 12.203 0 19.328-6.688 7.141-6.688 7.141-18.11 0-11.766-7.328-18.297-7.328-6.516-20.656-6.516-4.594 0-9.359.781-4.75.781-9.828 2.344v9.922q4.391-2.391 9.08-3.563 4.688-1.172 9.906-1.172 8.453 0 13.375 4.437 4.938 4.438 4.938 12.06 0 7.609-4.938 12.05-4.922 4.453-13.375 4.453-3.953 0-7.891-.875-3.922-.875-8.02-2.734z"/><path id="j" d="m33.02 40.38q-6.641 0-10.531-4.547-3.875-4.531-3.875-12.438 0-7.859 3.875-12.438 3.891-4.562 10.531-4.562 6.641 0 10.516 4.562 3.875 4.578 3.875 12.438 0 7.906-3.875 12.438-3.875 4.547-10.516 4.547m19.578 30.922v-8.984q-3.719 1.75-7.5 2.672-3.781.938-7.5.938-9.766 0-14.922-6.594-5.141-6.594-5.875-19.922 2.875 4.25 7.219 6.516 4.359 2.266 9.578 2.266 10.984 0 17.359-6.672 6.375-6.656 6.375-18.12 0-11.234-6.641-18.03-6.641-6.781-17.672-6.781-12.656 0-19.344 9.688-6.688 9.703-6.688 28.11 0 17.281 8.203 27.563 8.203 10.281 22.02 10.281 3.719 0 7.5-.734 3.781-.734 7.891-2.188"/><path id="k" d="m8.203 72.906h46.875v-4.203l-26.469-68.7h-10.297l24.906 64.59h-35.02z"/><path id="l" d="m31.781 34.625q-7.03 0-11.06-3.766-4.02-3.766-4.02-10.344 0-6.594 4.02-10.359 4.03-3.766 11.06-3.766 7.03 0 11.08 3.781 4.063 3.797 4.063 10.344 0 6.578-4.03 10.344-4.02 3.766-11.11 3.766m-9.859 4.188q-6.344 1.563-9.891 5.906-3.531 4.359-3.531 10.609 0 8.734 6.219 13.813 6.234 5.078 17.06 5.078 10.891 0 17.09-5.078 6.203-5.078 6.203-13.813 0-6.25-3.547-10.609-3.531-4.344-9.828-5.906 7.125-1.656 11.09-6.5 3.984-4.828 3.984-11.797 0-10.609-6.469-16.281-6.469-5.656-18.531-5.656-12.05 0-18.531 5.656-6.469 5.672-6.469 16.281 0 6.969 4 11.797 4.02 4.844 11.141 6.5m-3.609 15.578q0-5.656 3.531-8.828 3.547-3.172 9.937-3.172 6.359 0 9.938 3.172 3.594 3.172 3.594 8.828 0 5.672-3.594 8.844-3.578 3.172-9.938 3.172-6.391 0-9.937-3.172-3.531-3.172-3.531-8.844"/><path stroke="#000" id="m" stroke-width=".5" d="m0 0v-2"/><path id="n" d="m10.688 11.281q0 2.25.531 4.922.547 2.688 1.078 4.422.547 1.734 2.453 6.766 1.906 5.03 1.953 5.234 1.313 3.656 1.313 6 0 2.984-2.188 2.984-3.969 0-6.531-4.078-2.563-4.078-3.781-9.109-.188-.641-.828-.641h-1.172q-.828 0-.828.938v.281q1.609 5.969 4.922 10.578 3.328 4.609 8.406 4.609 3.563 0 6.03-2.344 2.469-2.344 2.469-5.953 0-1.859-.828-3.906-1.953-5.078-3.078-8.141-1.125-3.047-2.078-6.828-.953-3.781-.953-7 0-3.766 1.734-6.141 1.734-2.359 5.391-2.359 6.938 0 12.5 10.687 1.766 3.469 3.328 8.156 1.563 4.688 1.563 7.625 0 3.02-.984 4.703-.969 1.688-2.531 3.516-1.563 1.828-1.563 2.906 0 1.953 1.609 3.563 1.609 1.609 3.563 1.609 2.391 0 3.438-2.203 1.063-2.188 1.063-4.969 0-3.313-.953-7.906-.953-4.594-2.641-9.531-1.688-4.922-3.109-7.75-6.578-13.05-15.375-13.05-6.297 0-10.11 3.141-3.813 3.156-3.813 9.266"/><path stroke="#000" id="o" stroke-width=".5" d="m0 0h4"/><path id="p" d="m4.891 31.391h26.312v-8h-26.312z"/><path stroke="#000" id="q" stroke-width=".5" d="m0 0h2"/><path id="r" d="m4.688 0q-.969 0-.969 1.313.047.25.188.859.141.609.406.969.281.375.672.375 9.563 0 11.125 6.109l13.578 54.688q-2.781.484-8.781.484-.984 0-.984 1.313.047.25.188.859.156.609.422.969.266.375.656.375h17.297q.719 0 .922-.641l22.22-52.875 11.08 44.28q.203 1.078.203 1.516 0 4.203-7.719 4.203-.984 0-.984 1.313.344 1.281.531 1.734.203.469 1.188.469h21.391q.969 0 .969-1.313-.047-.25-.203-.859-.141-.609-.406-.984-.266-.359-.656-.359-9.578 0-11.141-6.109l-14.344-57.813q-.344-.875-1.031-.875h-1.219q-.687 0-.875.688l-25.5 60.5-.187.625q-.203.203-.203.297l-13.234-52.922q-.094-.25-.141-.625-.047-.359-.141-.844 0-2.594 2.234-3.406 2.25-.797 5.578-.797.969 0 .969-1.313-.344-1.375-.594-1.797-.234-.406-1.063-.406z"/><path id="s" d="m20.02-1.516q-3.469 0-6.453 1.297-2.969 1.297-5.188 3.734-2.219 2.438-3.297 5.438-1.078 3.02-1.078 6.531 0 6.25 2.953 12.13 2.953 5.891 8.06 10.188 5.109 4.297 11.11 5.813-2.938 5.422-4.469 9.344-1.531 3.938-1.531 8.03 0 3.03 1.406 5.344 1.422 2.328 3.906 3.641 2.5 1.328 5.563 1.328 2.984 0 11.828-2.02 2.297-.531 2.297-2.672 0-1.672-1.234-3.047-1.219-1.359-2.875-1.359-1.219 0-2.203.563-.969.563-3.078 1.969-2.094 1.422-3.75 2.172-1.656.766-3.469.766-2.047 0-3.688-1.25-1.641-1.234-1.641-3.234 0-3.172 2.813-7.297 2.813-4.125 7.984-10.578 5.906-7.516 5.906-16.594 0-4.5-1.297-9.734-1.281-5.219-3.75-9.859-2.469-4.625-6.313-7.641-3.828-3-8.516-3m.203 2.734q3.906 0 6.703 4.047 2.813 4.063 4.25 9.656 1.453 5.594 1.453 9.391 0 7.469-5.234 16.797-5.266-1.453-9.08-6.141-3.813-4.688-5.766-10.797-1.953-6.109-1.953-11.578 0-4.781 2.484-8.08 2.5-3.297 7.141-3.297"/></defs><g fill="#fff"><path d="m0 366.01h489.96v-366.01h-489.96z"/><path d="m22.423 358.81h442.54v-343.01h-442.54z"/></g><g fill="none" stroke-linecap="square"><path stroke="#00f" clip-path="url(#a)" d="m42.2 367.01l1.298-19.245 1.461-18.38 1.45-15.609 1.542-14.367 1.676-13.555 1.722-12.16 1.831-11.349 1.92-10.494 1.997-9.67 2.03-8.756 2.165-8.359 2.253-7.805 2.343-7.304 2.441-6.871 2.511-6.405 2.584-5.991 2.705-5.717 2.802-5.409 2.896-5.117 3.056-4.95 3.191-4.742 3.347-4.568 3.486-4.375 3.659-4.227 3.791-4.04 3.984-3.913 4.138-3.752 4.324-3.624 4.59-3.557 4.801-3.44 5.071-3.36 5.336-3.27 5.646-3.201 6.03-3.158 6.417-3.106 6.792-3.037 6.94-2.869 7.657-2.926 8.02-2.828 8.712-2.835 9.132-2.739 9.701-2.684 10.779-2.744 11.329-2.651 12.13-2.609 13.08-2.584 14.24-2.579 15.202-2.522 16.12-2.45 17.578-2.447 18.9-2.406 20.467-2.381 22.487-2.387 23.779-2.303 26.1-2.305 24.616-1.992"/><path stroke="#008000" clip-path="url(#a)" d="m30.934 22.397l.251.113 1.253.166 4 .264 9.525.376 19.578.523 35.08.697 59.82.952 102.64 1.388 178.59 2.162 14.786.173"/><g stroke="#000" stroke-width=".8"><path d="m22.423 22.397h442.54"/><path d="m30.934 358.81v-343.01"/></g></g><use x="30.934" y="22.397" xlink:href="#b"/><use x="85.21" y="22.397" xlink:href="#b"/><g transform="matrix(.13 0 0-.13 71.77 36.27)"><use xlink:href="#c"/><use x="63.62" xlink:href="#e"/><use x="95.41" xlink:href="#c"/><use x="159.03" xlink:href="#d"/></g><use x="139.48" y="22.397" xlink:href="#b"/><g transform="matrix(.13 0 0-.13 126.09 36.27)"><use xlink:href="#c"/><use x="63.62" xlink:href="#e"/><use x="95.41" xlink:href="#c"/><use x="159.03" xlink:href="#f"/></g><use x="193.76" y="22.397" xlink:href="#b"/><g transform="matrix(.13 0 0-.13 180.24 36.27)"><use xlink:href="#c"/><use x="63.62" xlink:href="#e"/><use x="95.41" xlink:href="#c"/><use x="159.03" xlink:href="#g"/></g><use x="248.04" y="22.397" xlink:href="#b"/><g transform="matrix(.13 0 0-.13 234.36 36.27)"><use xlink:href="#c"/><use x="63.62" xlink:href="#e"/><use x="95.41" xlink:href="#c"/><use x="159.03" xlink:href="#h"/></g><use x="302.31" y="22.397" xlink:href="#b"/><g transform="matrix(.13 0 0-.13 288.84 36.27)"><use xlink:href="#c"/><use x="63.62" xlink:href="#e"/><use x="95.41" xlink:href="#c"/><use x="159.03" xlink:href="#i"/></g><use x="356.59" y="22.397" xlink:href="#b"/><g transform="matrix(.13 0 0-.13 342.95 36.27)"><use xlink:href="#c"/><use x="63.62" xlink:href="#e"/><use x="95.41" xlink:href="#c"/><use x="159.03" xlink:href="#j"/></g><use x="410.86" y="22.397" xlink:href="#b"/><g transform="matrix(.13 0 0-.13 397.37 36.27)"><use xlink:href="#c"/><use x="63.62" xlink:href="#e"/><use x="95.41" xlink:href="#c"/><use x="159.03" xlink:href="#k"/></g><g transform="matrix(.13 0 0-.13 451.54 36.27)"><use xlink:href="#c"/><use x="63.62" xlink:href="#e"/><use x="95.41" xlink:href="#c"/><use x="159.03" xlink:href="#l"/></g><use x="41.789" y="22.397" xlink:href="#m"/><use x="52.644" y="22.397" xlink:href="#m"/><use x="63.5" y="22.397" xlink:href="#m"/><use x="74.35" y="22.397" xlink:href="#m"/><use x="96.06" y="22.397" xlink:href="#m"/><use x="106.92" y="22.397" xlink:href="#m"/><use x="117.77" y="22.397" xlink:href="#m"/><use x="128.63" y="22.397" xlink:href="#m"/><use x="139.48" y="22.397" xlink:href="#m"/><use x="150.34" y="22.397" xlink:href="#m"/><use x="161.2" y="22.397" xlink:href="#m"/><use x="172.05" y="22.397" xlink:href="#m"/><use x="182.91" y="22.397" xlink:href="#m"/><use x="204.62" y="22.397" xlink:href="#m"/><use x="215.47" y="22.397" xlink:href="#m"/><use x="226.33" y="22.397" xlink:href="#m"/><use x="237.18" y="22.397" xlink:href="#m"/><use x="258.89" y="22.397" xlink:href="#m"/><use x="269.75" y="22.397" xlink:href="#m"/><use x="280.6" y="22.397" xlink:href="#m"/><use x="291.46" y="22.397" xlink:href="#m"/><use x="313.17" y="22.397" xlink:href="#m"/><use x="324.02" y="22.397" xlink:href="#m"/><use x="334.88" y="22.397" xlink:href="#m"/><use x="345.73" y="22.397" xlink:href="#m"/><use x="356.59" y="22.397" xlink:href="#m"/><use x="367.44" y="22.397" xlink:href="#m"/><use x="378.3" y="22.397" xlink:href="#m"/><use x="389.15" y="22.397" xlink:href="#m"/><use x="400.01" y="22.397" xlink:href="#m"/><use x="421.72" y="22.397" xlink:href="#m"/><use x="432.57" y="22.397" xlink:href="#m"/><use x="443.43" y="22.397" xlink:href="#m"/><use x="454.28" y="22.397" xlink:href="#m"/><use xlink:href="#n" transform="matrix(.2 0 0-.2 472.96 22.253)"/><use x="30.934" y="352.21" xlink:href="#o"/><g transform="matrix(.13 0 0-.13 7.2 355.8)"><use xlink:href="#p"/><use x="36.08" xlink:href="#f"/><use x="99.71" xlink:href="#c"/></g><use x="30.934" y="269.76" xlink:href="#o"/><g transform="matrix(.13 0 0-.13 7.472 273.35)"><use xlink:href="#p"/><use x="36.08" xlink:href="#d"/><use x="99.71" xlink:href="#i"/></g><use x="30.934" y="187.31" xlink:href="#o"/><g transform="matrix(.13 0 0-.13 7.2 190.89)"><use xlink:href="#p"/><use x="36.08" xlink:href="#d"/><use x="99.71" xlink:href="#c"/></g><use x="30.934" y="104.85" xlink:href="#o"/><g transform="matrix(.13 0 0-.13 15.743 108.44)"><use xlink:href="#p"/><use x="36.08" xlink:href="#i"/></g><use x="30.934" y="22.397" xlink:href="#o"/><use x="30.934" y="335.72" xlink:href="#q"/><use x="30.934" y="319.23" xlink:href="#q"/><use x="30.934" y="302.74" xlink:href="#q"/><use x="30.934" y="286.25" xlink:href="#q"/><use x="30.934" y="253.27" xlink:href="#q"/><use x="30.934" y="236.78" xlink:href="#q"/><use x="30.934" y="220.29" xlink:href="#q"/><use x="30.934" y="203.8" xlink:href="#q"/><use x="30.934" y="170.81" xlink:href="#q"/><use x="30.934" y="154.32" xlink:href="#q"/><use x="30.934" y="137.83" xlink:href="#q"/><use x="30.934" y="121.34" xlink:href="#q"/><use x="30.934" y="88.36" xlink:href="#q"/><use x="30.934" y="71.87" xlink:href="#q"/><use x="30.934" y="55.38" xlink:href="#q"/><use x="30.934" y="38.888" xlink:href="#q"/><path fill="#e6e6e6" stroke="#000" d="m376.46 324.51h47.52v-51.834h-47.52z"/><path fill="none" stroke="#00f" stroke-linecap="square" d="m389.06 287.25h-9.9"/><g transform="matrix(.18 0 0-.18 393.56 293.55)"><use xlink:href="#r" transform="translate(0 .688)"/><use xlink:href="#n" transform="matrix(.7 0 0 .7 80.32-24.822)"/></g><path fill="none" stroke="#008000" stroke-linecap="square" d="m389.06 306.15h-9.9"/><g transform="matrix(.18 0 0-.18 393.56 312.45)"><use xlink:href="#s" transform="translate(0 .703)"/><use xlink:href="#n" transform="matrix(.7 0 0 .7 44.38-24.806)"/></g></svg>