<svg width="702.5" xmlns="http://www.w3.org/2000/svg" height="530" viewBox="0 0 562 424" xmlns:xlink="http://www.w3.org/1999/xlink"><defs><clipPath id="a"><path d="m28.03 13.474h499.25v389.72h-499.25z"/></clipPath><path stroke="#000" id="b" stroke-width=".5" d="m0 0v-4"/><path id="c" d="m31.781 66.41q-7.609 0-11.453-7.5-3.828-7.484-3.828-22.531 0-14.984 3.828-22.484 3.844-7.5 11.453-7.5 7.672 0 11.5 7.5 3.844 7.5 3.844 22.484 0 15.05-3.844 22.531-3.828 7.5-11.5 7.5m0 7.813q12.266 0 18.734-9.703 6.469-9.688 6.469-28.14 0-18.406-6.469-28.11-6.469-9.688-18.734-9.688-12.25 0-18.719 9.688-6.469 9.703-6.469 28.11 0 18.453 6.469 28.14 6.469 9.703 18.719 9.703"/><path id="d" d="m10.688 12.406h10.313v-12.406h-10.313z"/><path id="e" d="m10.797 72.906h38.719v-8.312h-29.688v-17.859q2.141.734 4.281 1.094 2.156.359 4.313.359 12.203 0 19.328-6.688 7.141-6.688 7.141-18.11 0-11.766-7.328-18.297-7.328-6.516-20.656-6.516-4.594 0-9.359.781-4.75.781-9.828 2.344v9.922q4.391-2.391 9.08-3.563 4.688-1.172 9.906-1.172 8.453 0 13.375 4.437 4.938 4.438 4.938 12.06 0 7.609-4.938 12.05-4.922 4.453-13.375 4.453-3.953 0-7.891-.875-3.922-.875-8.02-2.734z"/><path id="f" d="m12.406 8.297h16.11v55.625l-17.531-3.516v8.984l17.438 3.516h9.859v-64.61h16.11v-8.297h-41.984z"/><path id="g" d="m19.19 8.297h34.422v-8.297h-46.28v8.297q5.609 5.813 15.297 15.594 9.703 9.797 12.188 12.641 4.734 5.313 6.609 9 1.891 3.688 1.891 7.25 0 5.813-4.078 9.469-4.078 3.672-10.625 3.672-4.641 0-9.797-1.609-5.141-1.609-11-4.891v9.969q5.953 2.391 11.125 3.609 5.188 1.219 9.484 1.219 11.328 0 18.06-5.672 6.734-5.656 6.734-15.12 0-4.5-1.688-8.531-1.672-4.02-6.125-9.484-1.219-1.422-7.766-8.187-6.531-6.766-18.453-18.922"/><path stroke="#000" id="h" stroke-width=".5" d="m0 0v-2"/><path id="i" d="m10.797 11.625q0 2.094.563 4.828.563 2.734 1.234 4.859.687 2.125 2.312 6.516 1.641 4.406 1.797 4.797 1.313 3.656 1.313 6 0 2.984-2.188 2.984-3.969 0-6.531-4.078-2.563-4.078-3.781-9.109-.188-.641-.828-.641h-1.172q-.828 0-.828.938v.281q1.609 5.969 4.922 10.578 3.328 4.609 8.406 4.609 3.563 0 6.03-2.344 2.469-2.344 2.469-5.953 0-1.859-.828-3.906-1.172-3.03-2.766-7.281-1.578-4.25-2.469-7.719-.875-3.453-.875-6.688 0-3.906 2.047-6.344 2.063-2.438 5.969-2.438 5.312 0 8.828 8.109-.141.578-.141 1.656 0 2.688.828 6.109l5.609 22.5q.344 1.328 1.562 2.266 1.219.953 2.641.953 1.172 0 2.078-.781.906-.781.906-2.047 0-.578-.109-.781l-5.609-22.313q-.969-4-.969-7.172 0-3.766 1.719-6.141 1.734-2.359 5.453-2.359 6.438 0 10.594 8.5 1.563 3.02 3.484 8.922 1.937 5.922 1.937 9.05 0 2.875-.937 4.563-.922 1.688-2.563 3.641-1.625 1.953-1.625 2.922 0 1.906 1.625 3.531 1.641 1.641 3.594 1.641 2.391 0 3.438-2.203 1.063-2.188 1.063-4.969 0-3.375-1.125-8.578-1.125-5.187-2.844-10.437-1.703-5.25-3.219-8.375-5.469-10.844-13.625-10.844-4.188 0-7.656 1.609-3.469 1.609-5.125 5.125-1.609-2.875-4.234-4.813-2.609-1.922-5.781-1.922-6.594 0-10.594 3.141-4 3.156-4 9.609"/><path stroke="#000" id="j" stroke-width=".5" d="m0 0h4"/><path id="k" d="m37.797 64.31l-24.906-38.922h24.906zm-2.594 8.594h12.406v-47.52h10.406v-8.203h-10.406v-17.188h-9.813v17.188h-32.906v9.516z"/><path id="l" d="m33.02 40.38q-6.641 0-10.531-4.547-3.875-4.531-3.875-12.438 0-7.859 3.875-12.438 3.891-4.562 10.531-4.562 6.641 0 10.516 4.562 3.875 4.578 3.875 12.438 0 7.906-3.875 12.438-3.875 4.547-10.516 4.547m19.578 30.922v-8.984q-3.719 1.75-7.5 2.672-3.781.938-7.5.938-9.766 0-14.922-6.594-5.141-6.594-5.875-19.922 2.875 4.25 7.219 6.516 4.359 2.266 9.578 2.266 10.984 0 17.359-6.672 6.375-6.656 6.375-18.12 0-11.234-6.641-18.03-6.641-6.781-17.672-6.781-12.656 0-19.344 9.688-6.688 9.703-6.688 28.11 0 17.281 8.203 27.563 8.203 10.281 22.02 10.281 3.719 0 7.5-.734 3.781-.734 7.891-2.188"/><path id="m" d="m31.781 34.625q-7.03 0-11.06-3.766-4.02-3.766-4.02-10.344 0-6.594 4.02-10.359 4.03-3.766 11.06-3.766 7.03 0 11.08 3.781 4.063 3.797 4.063 10.344 0 6.578-4.03 10.344-4.02 3.766-11.11 3.766m-9.859 4.188q-6.344 1.563-9.891 5.906-3.531 4.359-3.531 10.609 0 8.734 6.219 13.813 6.234 5.078 17.06 5.078 10.891 0 17.09-5.078 6.203-5.078 6.203-13.813 0-6.25-3.547-10.609-3.531-4.344-9.828-5.906 7.125-1.656 11.09-6.5 3.984-4.828 3.984-11.797 0-10.609-6.469-16.281-6.469-5.656-18.531-5.656-12.05 0-18.531 5.656-6.469 5.672-6.469 16.281 0 6.969 4 11.797 4.02 4.844 11.141 6.5m-3.609 15.578q0-5.656 3.531-8.828 3.547-3.172 9.937-3.172 6.359 0 9.938 3.172 3.594 3.172 3.594 8.828 0 5.672-3.594 8.844-3.578 3.172-9.938 3.172-6.391 0-9.937-3.172-3.531-3.172-3.531-8.844"/><path stroke="#000" id="n" stroke-width=".5" d="m0 0h2"/><path id="o" d="m31-24.813q-5.563 4.406-9.594 10.09-4.02 5.688-6.594 12.141-2.563 6.438-3.828 13.469-1.266 7.03-1.266 14.11 0 7.172 1.266 14.203 1.266 7.03 3.875 13.531 2.625 6.5 6.672 12.156 4.063 5.672 9.469 9.922 0 .188.5.188h.922q.297 0 .531-.266.25-.266.25-.609 0-.438-.188-.641-4.891-4.781-8.141-10.25-3.25-5.469-5.234-11.656-1.969-6.172-2.844-12.797-.875-6.609-.875-13.781 0-31.781 16.984-48.3.297-.281.297-.828 0-.234-.266-.547-.266-.328-.516-.328h-.922q-.5 0-.5.188"/><path id="p" d="m6.5-25q-.891 0-.891.875 0 .438.203.641 17.09 16.703 17.09 48.48 0 31.781-16.906 48.3-.391.234-.391.828 0 .344.266.609.281.266.625.266h.922q.297 0 .484-.188 7.188-5.672 11.969-13.781 4.781-8.094 7-17.281 2.234-9.172 2.234-18.75 0-7.078-1.203-13.938-1.203-6.859-3.812-13.516-2.609-6.672-6.609-12.312-4-5.641-9.578-10.05-.188-.188-.484-.188z"/><path id="q" d="m4.688 0q-.969 0-.969 1.313.047.25.188.859.141.609.406.969.281.375.672.375 6.094 0 8.5.688 1.313.438 1.891 2.688l13.734 54.922q.188.984.188 1.375 0 1.078-1.219 1.219-1.859.391-7.172.391-.984 0-.984 1.313.344 1.281.531 1.734.203.469 1.125.469h29.547q.875 0 .875-1.313-.141-1.031-.344-1.625-.187-.578-.969-.578-7.375 0-9.859-.484-2.453-.438-3.03-2.938l-13.672-54.875q-.438-1.219-.438-2.203 0-.781 3.406-.781h9.281q7.859 0 12.734 3.125 4.891 3.125 7.234 7.05 2.344 3.938 3.922 8.156 1.594 4.234 2.328 4.375h.891q1.016 0 1.016-1.313l-8.891-24.22q-.141-.688-.922-.688z"/></defs><g fill="#fff"><path d="m0 424.32h562.63v-424.32h-562.63z"/><path d="m28.03 403.2h499.25v-389.72h-499.25z"/></g><g fill="none" stroke-linecap="square"><path stroke="#0f0" stroke-width="2" clip-path="url(#a)" d="m37.629 20.969l3.415 24.573 3.644 24.516 3.352 21.09 3.589 21.12 3.507 19.27 3.328 17.11 3.271 15.767 3.514 15.849 3.42 14.402 3.059 12.08 3.558 13.155 3.451 11.897 3.537 11.368 3.633 10.863 3.728 10.349 3.805 9.785 3.377 8.07 3.486 7.766 3.209 6.677 3.736 7.237 3.798 6.81 3.891 6.444 3.403 5.226 3.572 5.104 4.081 5.386 4.317 5.224 3.556 3.965 3.893 4.02 3.765 3.59 3.828 3.373 4.804 3.873 4.362 3.199 4.084 2.746 5.109 3.127 4.926 2.721 3.92 1.979 4.378 2.033 5.087 2.147 5.912 2.237 5.801 1.955 6.555 1.957 6.797 1.783 6.914 1.59 8.66 1.72 8.138 1.38 9.06 1.312 8.949 1.099 9.869 1.022 12.495 1.058 14.615.967 13.61.695 18.424.696 20.899.534 26.444.41 31.942.25 47.38.129 73.19.029"/><g stroke="#000" stroke-width=".8"><path d="m28.03 395.7h499.25"/><path d="m37.629 403.2v-389.72"/></g></g><use x="37.629" y="395.7" xlink:href="#b"/><use x="123.35" y="395.7" xlink:href="#b"/><g transform="matrix(.18 0 0-.18 104.69 413.38)"><use xlink:href="#c"/><use x="63.62" xlink:href="#d"/><use x="95.41" xlink:href="#c"/><use x="159.03" xlink:href="#e"/></g><use x="209.07" y="395.7" xlink:href="#b"/><g transform="matrix(.18 0 0-.18 196.19 413.38)"><use xlink:href="#c"/><use x="63.62" xlink:href="#d"/><use x="95.41" xlink:href="#f"/></g><use x="294.8" y="395.7" xlink:href="#b"/><g transform="matrix(.18 0 0-.18 276.14 413.38)"><use xlink:href="#c"/><use x="63.62" xlink:href="#d"/><use x="95.41" xlink:href="#f"/><use x="159.03" xlink:href="#e"/></g><use x="380.52" y="395.7" xlink:href="#b"/><g transform="matrix(.18 0 0-.18 367.7 413.38)"><use xlink:href="#c"/><use x="63.62" xlink:href="#d"/><use x="95.41" xlink:href="#g"/></g><use x="466.24" y="395.7" xlink:href="#b"/><g transform="matrix(.18 0 0-.18 447.58 413.38)"><use xlink:href="#c"/><use x="63.62" xlink:href="#d"/><use x="95.41" xlink:href="#g"/><use x="159.03" xlink:href="#e"/></g><use x="54.773" y="395.7" xlink:href="#h"/><use x="71.918" y="395.7" xlink:href="#h"/><use x="89.06" y="395.7" xlink:href="#h"/><use x="106.21" y="395.7" xlink:href="#h"/><use x="140.5" y="395.7" xlink:href="#h"/><use x="157.64" y="395.7" xlink:href="#h"/><use x="174.78" y="395.7" xlink:href="#h"/><use x="191.93" y="395.7" xlink:href="#h"/><use x="226.22" y="395.7" xlink:href="#h"/><use x="243.36" y="395.7" xlink:href="#h"/><use x="260.51" y="395.7" xlink:href="#h"/><use x="277.65" y="395.7" xlink:href="#h"/><use x="311.94" y="395.7" xlink:href="#h"/><use x="329.08" y="395.7" xlink:href="#h"/><use x="346.23" y="395.7" xlink:href="#h"/><use x="363.37" y="395.7" xlink:href="#h"/><use x="397.66" y="395.7" xlink:href="#h"/><use x="414.81" y="395.7" xlink:href="#h"/><use x="431.95" y="395.7" xlink:href="#h"/><use x="449.1" y="395.7" xlink:href="#h"/><use x="483.38" y="395.7" xlink:href="#h"/><use x="500.53" y="395.7" xlink:href="#h"/><use x="517.67" y="395.7" xlink:href="#h"/><use xlink:href="#i" transform="matrix(.28 0 0-.28 535.27 395.5)"/><use x="37.629" y="395.7" xlink:href="#j"/><use x="37.629" y="320.75" xlink:href="#j"/><g transform="matrix(.18 0 0-.18 7.993 325.72)"><use xlink:href="#c"/><use x="63.62" xlink:href="#d"/><use x="95.41" xlink:href="#g"/></g><use x="37.629" y="245.81" xlink:href="#j"/><g transform="matrix(.18 0 0-.18 7.2 250.78)"><use xlink:href="#c"/><use x="63.62" xlink:href="#d"/><use x="95.41" xlink:href="#k"/></g><use x="37.629" y="170.86" xlink:href="#j"/><g transform="matrix(.18 0 0-.18 7.324 175.83)"><use xlink:href="#c"/><use x="63.62" xlink:href="#d"/><use x="95.41" xlink:href="#l"/></g><use x="37.629" y="95.92" xlink:href="#j"/><g transform="matrix(.18 0 0-.18 7.422 100.88)"><use xlink:href="#c"/><use x="63.62" xlink:href="#d"/><use x="95.41" xlink:href="#m"/></g><use x="37.629" y="20.969" xlink:href="#j"/><use xlink:href="#f" transform="matrix(.18 0 0-.18 25.816 25.935)"/><use x="37.629" y="376.96" xlink:href="#n"/><use x="37.629" y="358.23" xlink:href="#n"/><use x="37.629" y="339.49" xlink:href="#n"/><use x="37.629" y="320.75" xlink:href="#n"/><use x="37.629" y="302.02" xlink:href="#n"/><use x="37.629" y="283.28" xlink:href="#n"/><use x="37.629" y="264.54" xlink:href="#n"/><use x="37.629" y="245.81" xlink:href="#n"/><use x="37.629" y="227.07" xlink:href="#n"/><use x="37.629" y="208.34" xlink:href="#n"/><use x="37.629" y="189.6" xlink:href="#n"/><use x="37.629" y="170.86" xlink:href="#n"/><use x="37.629" y="152.13" xlink:href="#n"/><use x="37.629" y="133.39" xlink:href="#n"/><use x="37.629" y="114.65" xlink:href="#n"/><use x="37.629" y="95.92" xlink:href="#n"/><use x="37.629" y="77.18" xlink:href="#n"/><use x="37.629" y="58.44" xlink:href="#n"/><use x="37.629" y="39.705" xlink:href="#n"/><use x="37.629" y="20.969" xlink:href="#n"/><path fill="#e6e6e6" stroke="#000" d="m402.46 52.45h88.25v-45.25h-88.25z"/><path fill="none" stroke="#0f0" stroke-linecap="square" stroke-width="2" d="m419.96 27.446h-13.75"/><g transform="matrix(.25 0 0-.25 426.21 36.2)"><use xlink:href="#q"/><use xlink:href="#o" transform="translate(68.02)"/><use xlink:href="#i" transform="translate(106.84)"/><use xlink:href="#p" transform="translate(178.32)"/></g></svg>