<svg width="611.25" xmlns="http://www.w3.org/2000/svg" height="456.25" viewBox="0 0 489 365" xmlns:xlink="http://www.w3.org/1999/xlink"><defs><clipPath id="a"><path d="m16.992 7.2h447.96v341.3h-447.96z"/></clipPath><path stroke="#000" id="b" stroke-width=".5" d="m0 0v-4"/><path id="c" d="m31.781 66.41q-7.609 0-11.453-7.5-3.828-7.484-3.828-22.531 0-14.984 3.828-22.484 3.844-7.5 11.453-7.5 7.672 0 11.5 7.5 3.844 7.5 3.844 22.484 0 15.05-3.844 22.531-3.828 7.5-11.5 7.5m0 7.813q12.266 0 18.734-9.703 6.469-9.688 6.469-28.14 0-18.406-6.469-28.11-6.469-9.688-18.734-9.688-12.25 0-18.719 9.688-6.469 9.703-6.469 28.11 0 18.453 6.469 28.14 6.469 9.703 18.719 9.703"/><path id="d" d="m12.406 8.297h16.11v55.625l-17.531-3.516v8.984l17.438 3.516h9.859v-64.61h16.11v-8.297h-41.984z"/><path id="e" d="m10.688 12.406h10.313v-12.406h-10.313z"/><path id="f" d="m19.19 8.297h34.422v-8.297h-46.28v8.297q5.609 5.813 15.297 15.594 9.703 9.797 12.188 12.641 4.734 5.313 6.609 9 1.891 3.688 1.891 7.25 0 5.813-4.078 9.469-4.078 3.672-10.625 3.672-4.641 0-9.797-1.609-5.141-1.609-11-4.891v9.969q5.953 2.391 11.125 3.609 5.188 1.219 9.484 1.219 11.328 0 18.06-5.672 6.734-5.656 6.734-15.12 0-4.5-1.688-8.531-1.672-4.02-6.125-9.484-1.219-1.422-7.766-8.187-6.531-6.766-18.453-18.922"/><path id="g" d="m40.578 39.31q7.078-1.516 11.05-6.313 3.984-4.781 3.984-11.813 0-10.781-7.422-16.703-7.422-5.906-21.09-5.906-4.578 0-9.438.906-4.859.906-10.03 2.719v9.516q4.094-2.391 8.969-3.609 4.891-1.219 10.219-1.219 9.266 0 14.13 3.656 4.859 3.656 4.859 10.641 0 6.453-4.516 10.08-4.516 3.641-12.562 3.641h-8.5v8.109h8.891q7.266 0 11.125 2.906 3.859 2.906 3.859 8.375 0 5.609-3.984 8.609-3.969 3.02-11.391 3.02-4.063 0-8.703-.891-4.641-.875-10.203-2.719v8.781q5.625 1.562 10.531 2.344 4.906.781 9.25.781 11.234 0 17.766-5.109 6.547-5.094 6.547-13.781 0-6.06-3.469-10.234-3.469-4.172-9.859-5.781"/><path id="h" d="m37.797 64.31l-24.906-38.922h24.906zm-2.594 8.594h12.406v-47.52h10.406v-8.203h-10.406v-17.188h-9.813v17.188h-32.906v9.516z"/><path id="i" d="m10.797 72.906h38.719v-8.312h-29.688v-17.859q2.141.734 4.281 1.094 2.156.359 4.313.359 12.203 0 19.328-6.688 7.141-6.688 7.141-18.11 0-11.766-7.328-18.297-7.328-6.516-20.656-6.516-4.594 0-9.359.781-4.75.781-9.828 2.344v9.922q4.391-2.391 9.08-3.563 4.688-1.172 9.906-1.172 8.453 0 13.375 4.437 4.938 4.438 4.938 12.06 0 7.609-4.938 12.05-4.922 4.453-13.375 4.453-3.953 0-7.891-.875-3.922-.875-8.02-2.734z"/><path id="j" d="m33.02 40.38q-6.641 0-10.531-4.547-3.875-4.531-3.875-12.438 0-7.859 3.875-12.438 3.891-4.562 10.531-4.562 6.641 0 10.516 4.562 3.875 4.578 3.875 12.438 0 7.906-3.875 12.438-3.875 4.547-10.516 4.547m19.578 30.922v-8.984q-3.719 1.75-7.5 2.672-3.781.938-7.5.938-9.766 0-14.922-6.594-5.141-6.594-5.875-19.922 2.875 4.25 7.219 6.516 4.359 2.266 9.578 2.266 10.984 0 17.359-6.672 6.375-6.656 6.375-18.12 0-11.234-6.641-18.03-6.641-6.781-17.672-6.781-12.656 0-19.344 9.688-6.688 9.703-6.688 28.11 0 17.281 8.203 27.563 8.203 10.281 22.02 10.281 3.719 0 7.5-.734 3.781-.734 7.891-2.188"/><path id="k" d="m8.203 72.906h46.875v-4.203l-26.469-68.7h-10.297l24.906 64.59h-35.02z"/><path id="l" d="m31.781 34.625q-7.03 0-11.06-3.766-4.02-3.766-4.02-10.344 0-6.594 4.02-10.359 4.03-3.766 11.06-3.766 7.03 0 11.08 3.781 4.063 3.797 4.063 10.344 0 6.578-4.03 10.344-4.02 3.766-11.11 3.766m-9.859 4.188q-6.344 1.563-9.891 5.906-3.531 4.359-3.531 10.609 0 8.734 6.219 13.813 6.234 5.078 17.06 5.078 10.891 0 17.09-5.078 6.203-5.078 6.203-13.813 0-6.25-3.547-10.609-3.531-4.344-9.828-5.906 7.125-1.656 11.09-6.5 3.984-4.828 3.984-11.797 0-10.609-6.469-16.281-6.469-5.656-18.531-5.656-12.05 0-18.531 5.656-6.469 5.672-6.469 16.281 0 6.969 4 11.797 4.02 4.844 11.141 6.5m-3.609 15.578q0-5.656 3.531-8.828 3.547-3.172 9.937-3.172 6.359 0 9.938 3.172 3.594 3.172 3.594 8.828 0 5.672-3.594 8.844-3.578 3.172-9.938 3.172-6.391 0-9.937-3.172-3.531-3.172-3.531-8.844"/><path stroke="#000" id="m" stroke-width=".5" d="m0 0v-2"/><path id="n" d="m10.688 11.281q0 2.25.531 4.922.547 2.688 1.078 4.422.547 1.734 2.453 6.766 1.906 5.03 1.953 5.234 1.313 3.656 1.313 6 0 2.984-2.188 2.984-3.969 0-6.531-4.078-2.563-4.078-3.781-9.109-.188-.641-.828-.641h-1.172q-.828 0-.828.938v.281q1.609 5.969 4.922 10.578 3.328 4.609 8.406 4.609 3.563 0 6.03-2.344 2.469-2.344 2.469-5.953 0-1.859-.828-3.906-1.953-5.078-3.078-8.141-1.125-3.047-2.078-6.828-.953-3.781-.953-7 0-3.766 1.734-6.141 1.734-2.359 5.391-2.359 6.938 0 12.5 10.687 1.766 3.469 3.328 8.156 1.563 4.688 1.563 7.625 0 3.02-.984 4.703-.969 1.688-2.531 3.516-1.563 1.828-1.563 2.906 0 1.953 1.609 3.563 1.609 1.609 3.563 1.609 2.391 0 3.438-2.203 1.063-2.188 1.063-4.969 0-3.313-.953-7.906-.953-4.594-2.641-9.531-1.688-4.922-3.109-7.75-6.578-13.05-15.375-13.05-6.297 0-10.11 3.141-3.813 3.156-3.813 9.266"/><path stroke="#000" id="o" stroke-width=".5" d="m0 0h4"/><path stroke="#000" id="p" stroke-width=".5" d="m0 0h2"/><path id="q" d="m31-24.813q-5.563 4.406-9.594 10.09-4.02 5.688-6.594 12.141-2.563 6.438-3.828 13.469-1.266 7.03-1.266 14.11 0 7.172 1.266 14.203 1.266 7.03 3.875 13.531 2.625 6.5 6.672 12.156 4.063 5.672 9.469 9.922 0 .188.5.188h.922q.297 0 .531-.266.25-.266.25-.609 0-.438-.188-.641-4.891-4.781-8.141-10.25-3.25-5.469-5.234-11.656-1.969-6.172-2.844-12.797-.875-6.609-.875-13.781 0-31.781 16.984-48.3.297-.281.297-.828 0-.234-.266-.547-.266-.328-.516-.328h-.922q-.5 0-.5.188"/><path id="r" d="m6.5-25q-.891 0-.891.875 0 .438.203.641 17.09 16.703 17.09 48.48 0 31.781-16.906 48.3-.391.234-.391.828 0 .344.266.609.281.266.625.266h.922q.297 0 .484-.188 7.188-5.672 11.969-13.781 4.781-8.094 7-17.281 2.234-9.172 2.234-18.75 0-7.078-1.203-13.938-1.203-6.859-3.812-13.516-2.609-6.672-6.609-12.312-4-5.641-9.578-10.05-.188-.188-.484-.188z"/><path id="s" d="m4.688 0q-.969 0-.969 1.313.047.25.188.859.141.609.406.969.281.375.672.375 9.563 0 11.125 6.109l13.578 54.688q-2.781.484-8.781.484-.984 0-.984 1.313.047.25.188.859.156.609.422.969.266.375.656.375h17.297q.719 0 .922-.641l22.22-52.875 11.08 44.28q.203 1.078.203 1.516 0 4.203-7.719 4.203-.984 0-.984 1.313.344 1.281.531 1.734.203.469 1.188.469h21.391q.969 0 .969-1.313-.047-.25-.203-.859-.141-.609-.406-.984-.266-.359-.656-.359-9.578 0-11.141-6.109l-14.344-57.813q-.344-.875-1.031-.875h-1.219q-.687 0-.875.688l-25.5 60.5-.187.625q-.203.203-.203.297l-13.234-52.922q-.094-.25-.141-.625-.047-.359-.141-.844 0-2.594 2.234-3.406 2.25-.797 5.578-.797.969 0 .969-1.313-.344-1.375-.594-1.797-.234-.406-1.063-.406z"/><path id="t" d="m5.422 0q-.828 0-.828.781.047.094.063.141.031.063.031.203l34.422 69.39q.438 1.063 1.813 1.063h1.359q1.375 0 1.813-1.063l34.422-69.39q.047-.094.063-.172.031-.078.031-.172 0-.781-.828-.781zm6.594 8.02h52.688l-26.328 53.06z"/><path id="u" d="m9.906-18.02q0 .438.391.828 3.625 3.469 5.625 8.02 2 4.531 2 9.563v1.219q-1.609-1.609-4-1.609-2.297 0-3.906 1.609-1.609 1.609-1.609 3.906 0 2.344 1.609 3.906 1.609 1.563 3.906 1.563 3.563 0 5.078-3.297 1.516-3.297 1.516-7.297 0-5.563-2.234-10.563-2.219-5.02-6.266-9.02-.391-.203-.641-.203-.484 0-.984.453-.484.438-.484.922"/><path id="v" d="m4.984 0v2.688q0 .25.188.531l15.531 17.187q3.516 3.813 5.703 6.391 2.203 2.594 4.344 5.969 2.156 3.375 3.406 6.859 1.25 3.484 1.25 7.391 0 4.109-1.516 7.844-1.516 3.734-4.516 5.984-3 2.25-7.25 2.25-4.344 0-7.813-2.625-3.469-2.609-4.891-6.75.391.094 1.078.094 2.25 0 3.828-1.516 1.594-1.516 1.594-3.906 0-2.297-1.594-3.891-1.578-1.578-3.828-1.578-2.344 0-3.938 1.625-1.578 1.641-1.578 3.844 0 3.766 1.406 7.05 1.422 3.297 4.078 5.859 2.672 2.578 6.02 3.937 3.344 1.375 7.094 1.375 5.719 0 10.641-2.422 4.937-2.422 7.812-6.844 2.891-4.406 2.891-10.328 0-4.344-1.906-8.25-1.906-3.906-4.891-7.109-2.969-3.187-7.609-7.25-4.641-4.047-6.094-5.406l-11.328-10.891h9.609q7.078 0 11.844.109 4.766.125 5.05.375 1.172 1.266 2.406 9.234h2.922l-2.828-17.828z"/><path id="w" d="m5.609-23q0 .297.109.391l34.766 96.39q.188.578.672.891.5.328 1.125.328.891 0 1.438-.547.562-.531.562-1.453v-.391l-34.766-96.39q-.578-1.219-1.891-1.219-.844 0-1.438.594-.578.578-.578 1.406"/><path id="x" d="m20.02-1.516q-3.469 0-6.453 1.297-2.969 1.297-5.188 3.734-2.219 2.438-3.297 5.438-1.078 3.02-1.078 6.531 0 6.25 2.953 12.13 2.953 5.891 8.06 10.188 5.109 4.297 11.11 5.813-2.938 5.422-4.469 9.344-1.531 3.938-1.531 8.03 0 3.03 1.406 5.344 1.422 2.328 3.906 3.641 2.5 1.328 5.563 1.328 2.984 0 11.828-2.02 2.297-.531 2.297-2.672 0-1.672-1.234-3.047-1.219-1.359-2.875-1.359-1.219 0-2.203.563-.969.563-3.078 1.969-2.094 1.422-3.75 2.172-1.656.766-3.469.766-2.047 0-3.688-1.25-1.641-1.234-1.641-3.234 0-3.172 2.813-7.297 2.813-4.125 7.984-10.578 5.906-7.516 5.906-16.594 0-4.5-1.297-9.734-1.281-5.219-3.75-9.859-2.469-4.625-6.313-7.641-3.828-3-8.516-3m.203 2.734q3.906 0 6.703 4.047 2.813 4.063 4.25 9.656 1.453 5.594 1.453 9.391 0 7.469-5.234 16.797-5.266-1.453-9.08-6.141-3.813-4.688-5.766-10.797-1.953-6.109-1.953-11.578 0-4.781 2.484-8.08 2.5-3.297 7.141-3.297"/><path id="y" d="m8.688 11.375q1.031-2.922 3.156-5.328 2.125-2.391 5.03-3.734 2.906-1.328 6.03-1.328 7.219 0 9.953 5.609 2.734 5.609 2.734 13.625 0 3.469-.125 5.828-.109 2.375-.656 4.563-.922 3.516-3.25 6.156-2.313 2.641-5.688 2.641-3.359 0-5.781-1.031-2.422-1.016-3.938-2.391-1.5-1.359-2.672-2.875-1.172-1.516-1.469-1.609h-1.125q-.25 0-.625.313-.359.313-.359.609v33.406q0 .234.313.5.328.281.672.281h.297q6.734-3.234 14.297-3.234 7.422 0 14.313 3.234h.297q.344 0 .625-.25.297-.25.297-.531v-.938q0-.484-.188-.484-3.422-4.547-8.578-7.094-5.156-2.531-10.672-2.531-4 0-8.203 1.125v-18.891q3.328 2.688 5.938 3.828 2.609 1.156 6.672 1.156 5.516 0 9.875-3.188 4.375-3.172 6.719-8.281 2.344-5.094 2.344-10.406 0-6.02-2.953-11.141-2.953-5.125-8.03-8.156-5.078-3.03-11.03-3.03-4.937 0-9.06 2.531-4.125 2.547-6.5 6.844-2.359 4.297-2.359 9.141 0 2.25 1.453 3.656 1.469 1.422 3.672 1.422 2.203 0 3.688-1.453 1.484-1.438 1.484-3.625 0-2.156-1.484-3.641-1.484-1.484-3.688-1.484-.344 0-.781.063-.438.078-.641.125"/></defs><g fill="#fff"><path d="m0 365.71h489.96v-365.71h-489.96z"/><path d="m16.992 348.5h447.96v-341.3h-447.96z"/></g><g fill="none" stroke-linecap="square"><path stroke="#00f" clip-path="url(#a)" d="m25.607 233.32l.236 1.916.473 1.841.709 1.829.946 1.824 1.258 1.927 1.521 1.921 1.852 1.982 2.164 2 2.642 2.142 3.059 2.193 3.57 2.282 4.108 2.358 4.647 2.409 5.165 2.435 6.077 2.612 6.64 2.61 7.495 2.704 8.21 2.725 9.109 2.788 10.11 2.857 10.951 2.862 12.03 2.911 13.05 2.926 13.756 2.862 15.433 2.979 16.07 2.875 17.238 2.863 18.759 2.887 19.217 2.739 21.547 2.841 22.19 2.697 23.37 2.617 25.2 2.594 26.805 2.523 27.25 2.339 28.761 2.247 30.18 2.134 8.947.592"/><path stroke="#008000" clip-path="url(#a)" d="m25.607 78.974l.229-1.02.459-.986.734-1.037 1.07-1.108 1.452-1.17 1.966-1.277 2.54-1.359 3.107-1.398 3.793-1.458 4.564-1.513 5.481-1.577 6.414-1.608 7.267-1.595 8.278-1.593 9.418-1.588 10.524-1.549 11.572-1.479 12.882-1.417 14.184-1.324 14.85-1.158 15.938-1.015 16.936-.85 17.519-.655 18.24-.462 19.11-.262 19.897-.05 20.712.173 21.12.399 21.936.637 22.603.882 22.391 1.086 24.11 1.394 24.371 1.633 24.991 1.895 20.07 1.676"/><g stroke="#000" stroke-width=".8"><path d="m16.992 341.93h447.96"/><path d="m25.585 348.5v-341.3"/></g></g><use x="25.585" y="341.93" xlink:href="#b"/><use x="80.53" y="341.93" xlink:href="#b"/><g transform="matrix(.13 0 0-.13 67.08 355.81)"><use xlink:href="#c"/><use x="63.62" xlink:href="#e"/><use x="95.41" xlink:href="#c"/><use x="159.03" xlink:href="#d"/></g><use x="135.47" y="341.93" xlink:href="#b"/><g transform="matrix(.13 0 0-.13 122.08 355.81)"><use xlink:href="#c"/><use x="63.62" xlink:href="#e"/><use x="95.41" xlink:href="#c"/><use x="159.03" xlink:href="#f"/></g><use x="190.42" y="341.93" xlink:href="#b"/><g transform="matrix(.13 0 0-.13 176.89 355.81)"><use xlink:href="#c"/><use x="63.62" xlink:href="#e"/><use x="95.41" xlink:href="#c"/><use x="159.03" xlink:href="#g"/></g><use x="245.36" y="341.93" xlink:href="#b"/><g transform="matrix(.13 0 0-.13 231.68 355.81)"><use xlink:href="#c"/><use x="63.62" xlink:href="#e"/><use x="95.41" xlink:href="#c"/><use x="159.03" xlink:href="#h"/></g><use x="300.3" y="341.93" xlink:href="#b"/><g transform="matrix(.13 0 0-.13 286.83 355.81)"><use xlink:href="#c"/><use x="63.62" xlink:href="#e"/><use x="95.41" xlink:href="#c"/><use x="159.03" xlink:href="#i"/></g><use x="355.25" y="341.93" xlink:href="#b"/><g transform="matrix(.13 0 0-.13 341.61 355.81)"><use xlink:href="#c"/><use x="63.62" xlink:href="#e"/><use x="95.41" xlink:href="#c"/><use x="159.03" xlink:href="#j"/></g><use x="410.19" y="341.93" xlink:href="#b"/><g transform="matrix(.13 0 0-.13 396.7 355.81)"><use xlink:href="#c"/><use x="63.62" xlink:href="#e"/><use x="95.41" xlink:href="#c"/><use x="159.03" xlink:href="#k"/></g><g transform="matrix(.13 0 0-.13 451.53 355.81)"><use xlink:href="#c"/><use x="63.62" xlink:href="#e"/><use x="95.41" xlink:href="#c"/><use x="159.03" xlink:href="#l"/></g><use x="36.574" y="341.93" xlink:href="#m"/><use x="47.563" y="341.93" xlink:href="#m"/><use x="58.55" y="341.93" xlink:href="#m"/><use x="69.54" y="341.93" xlink:href="#m"/><use x="91.52" y="341.93" xlink:href="#m"/><use x="102.51" y="341.93" xlink:href="#m"/><use x="113.49" y="341.93" xlink:href="#m"/><use x="124.48" y="341.93" xlink:href="#m"/><use x="135.47" y="341.93" xlink:href="#m"/><use x="146.46" y="341.93" xlink:href="#m"/><use x="157.45" y="341.93" xlink:href="#m"/><use x="168.44" y="341.93" xlink:href="#m"/><use x="179.43" y="341.93" xlink:href="#m"/><use x="201.4" y="341.93" xlink:href="#m"/><use x="212.39" y="341.93" xlink:href="#m"/><use x="223.38" y="341.93" xlink:href="#m"/><use x="234.37" y="341.93" xlink:href="#m"/><use x="256.35" y="341.93" xlink:href="#m"/><use x="267.34" y="341.93" xlink:href="#m"/><use x="278.33" y="341.93" xlink:href="#m"/><use x="289.31" y="341.93" xlink:href="#m"/><use x="311.29" y="341.93" xlink:href="#m"/><use x="322.28" y="341.93" xlink:href="#m"/><use x="333.27" y="341.93" xlink:href="#m"/><use x="344.26" y="341.93" xlink:href="#m"/><use x="355.25" y="341.93" xlink:href="#m"/><use x="366.24" y="341.93" xlink:href="#m"/><use x="377.22" y="341.93" xlink:href="#m"/><use x="388.21" y="341.93" xlink:href="#m"/><use x="399.2" y="341.93" xlink:href="#m"/><use x="421.18" y="341.93" xlink:href="#m"/><use x="432.17" y="341.93" xlink:href="#m"/><use x="443.16" y="341.93" xlink:href="#m"/><use x="454.14" y="341.93" xlink:href="#m"/><use xlink:href="#n" transform="matrix(.2 0 0-.2 472.96 341.79)"/><use x="25.585" y="341.93" xlink:href="#o"/><use x="25.585" y="298.18" xlink:href="#o"/><use xlink:href="#f" transform="matrix(.13 0 0-.13 15.569 301.76)"/><use x="25.585" y="254.42" xlink:href="#o"/><use xlink:href="#h" transform="matrix(.13 0 0-.13 14.679 258.01)"/><use x="25.585" y="210.66" xlink:href="#o"/><use xlink:href="#j" transform="matrix(.13 0 0-.13 15.04 214.25)"/><use x="25.585" y="166.91" xlink:href="#o"/><use xlink:href="#l" transform="matrix(.13 0 0-.13 15.09 170.5)"/><use x="25.585" y="123.15" xlink:href="#o"/><g transform="matrix(.13 0 0-.13 7.334 126.74)"><use xlink:href="#d"/><use x="63.62" xlink:href="#c"/></g><use x="25.585" y="79.4" xlink:href="#o"/><g transform="matrix(.13 0 0-.13 7.773 82.984)"><use xlink:href="#d"/><use x="63.62" xlink:href="#f"/></g><use x="25.585" y="35.641" xlink:href="#o"/><g transform="matrix(.13 0 0-.13 7.2 39.23)"><use xlink:href="#d"/><use x="63.62" xlink:href="#h"/></g><use x="25.585" y="330.99" xlink:href="#p"/><use x="25.585" y="320.05" xlink:href="#p"/><use x="25.585" y="309.12" xlink:href="#p"/><use x="25.585" y="287.24" xlink:href="#p"/><use x="25.585" y="276.3" xlink:href="#p"/><use x="25.585" y="265.36" xlink:href="#p"/><use x="25.585" y="243.48" xlink:href="#p"/><use x="25.585" y="232.54" xlink:href="#p"/><use x="25.585" y="221.6" xlink:href="#p"/><use x="25.585" y="199.73" xlink:href="#p"/><use x="25.585" y="188.79" xlink:href="#p"/><use x="25.585" y="177.85" xlink:href="#p"/><use x="25.585" y="155.97" xlink:href="#p"/><use x="25.585" y="145.03" xlink:href="#p"/><use x="25.585" y="134.09" xlink:href="#p"/><use x="25.585" y="112.21" xlink:href="#p"/><use x="25.585" y="101.28" xlink:href="#p"/><use x="25.585" y="90.34" xlink:href="#p"/><use x="25.585" y="68.46" xlink:href="#p"/><use x="25.585" y="57.52" xlink:href="#p"/><use x="25.585" y="46.58" xlink:href="#p"/><use x="25.585" y="24.702" xlink:href="#p"/><use x="25.585" y="13.763" xlink:href="#p"/><path fill="#e6e6e6" stroke="#000" d="m308.17 177.85h125.82v-55.44h-125.82z"/><path fill="none" stroke="#00f" stroke-linecap="square" d="m320.77 136.99h-9.9"/><g transform="matrix(.18 0 0-.18 325.27 143.29)"><use xlink:href="#t"/><use xlink:href="#q" transform="translate(83.3)"/><use xlink:href="#s" transform="translate(122.12)"/><use xlink:href="#n" transform="matrix(.7 0 0 .7 202.44-25.509)"/><use xlink:href="#u" transform="translate(236.31)"/><use xlink:href="#n" transform="translate(292.32)"/><use xlink:href="#r" transform="translate(340.71)"/></g><path fill="none" stroke="#008000" stroke-linecap="square" d="m320.77 159.49h-9.9"/><g transform="matrix(.18 0 0-.18 325.27 165.79)"><use xlink:href="#t" transform="translate(0 .984)"/><use xlink:href="#q" transform="translate(83.3.984)"/><use xlink:href="#x" transform="translate(122.12.984)"/><use xlink:href="#n" transform="matrix(.7 0 0 .7 166.5-24.525)"/><use xlink:href="#u" transform="translate(200.38.984)"/><use xlink:href="#n" transform="translate(256.38.984)"/><use xlink:href="#r" transform="translate(304.77.984)"/><use xlink:href="#w" transform="translate(343.59.984)"/><use xlink:href="#n" transform="translate(393.59.984)"/><use xlink:href="#y" transform="matrix(.7 0 0 .7 441.98 43.5)"/><use xlink:href="#w" transform="matrix(.7 0 0 .7 476.98 43.5)"/><use xlink:href="#v" transform="matrix(.7 0 0 .7 511.98 43.5)"/></g></svg>