<svg width="703.75" xmlns="http://www.w3.org/2000/svg" height="567.5" viewBox="0 0 563 454" xmlns:xlink="http://www.w3.org/1999/xlink"><defs><clipPath id="a"><path d="m7.2 30.685h531.84v387.8h-531.84z"/></clipPath><path stroke="#000" id="b" stroke-width=".5" d="m0 0v-4"/><path id="c" d="m7.813 2.875q1.766-1.359 4.984-1.359 3.125 0 5.516 3 2.391 3 3.266 6.562l4.547 17.734q1.078 4.828 1.078 6.594 0 2.484-1.391 4.344-1.391 1.859-3.891 1.859-3.172 0-5.953-1.984-2.781-1.984-4.688-5.03-1.906-3.047-2.687-6.172-.188-.641-.781-.641h-1.219q-.781 0-.781.938v.281q.969 3.719 3.313 7.25 2.344 3.547 5.734 5.734 3.406 2.203 7.266 2.203 3.656 0 6.609-1.953 2.953-1.953 4.172-5.313 1.719 3.063 4.375 5.156 2.656 2.109 5.828 2.109 2.156 0 4.391-.766 2.25-.75 3.672-2.313 1.422-1.563 1.422-3.906 0-2.531-1.641-4.375-1.641-1.828-4.172-1.828-1.609 0-2.687 1.031-1.078 1.031-1.078 2.594 0 2.094 1.438 3.672 1.453 1.594 3.453 1.891-1.812 1.422-4.984 1.422-3.219 0-5.594-2.984-2.359-2.984-3.344-6.641l-4.391-17.672q-1.078-4.02-1.078-6.594 0-2.547 1.438-4.375 1.438-1.828 3.844-1.828 4.688 0 8.359 4.125 3.688 4.125 4.859 9.06.203.578.781.578h1.234q.391 0 .625-.266.25-.266.25-.609 0-.094-.094-.297-1.422-5.953-5.969-10.594-4.531-4.641-10.25-4.641-3.656 0-6.609 1.969-2.953 1.984-4.188 5.359-1.563-2.938-4.328-5.141-2.75-2.188-5.875-2.188-2.141 0-4.422.766-2.266.75-3.688 2.312-1.406 1.563-1.406 3.953 0 2.344 1.625 4.266 1.641 1.938 4.094 1.938 1.656 0 2.781-1 1.125-1 1.125-2.609 0-2.109-1.406-3.672-1.391-1.563-3.484-1.953"/><path stroke="#000" id="d" stroke-width=".5" d="m0 0h4"/><path id="e" d="m10.688 11.281q0 2.25.531 4.922.547 2.688 1.078 4.422.547 1.734 2.453 6.766 1.906 5.03 1.953 5.234 1.313 3.656 1.313 6 0 2.984-2.188 2.984-3.969 0-6.531-4.078-2.563-4.078-3.781-9.109-.188-.641-.828-.641h-1.172q-.828 0-.828.938v.281q1.609 5.969 4.922 10.578 3.328 4.609 8.406 4.609 3.563 0 6.03-2.344 2.469-2.344 2.469-5.953 0-1.859-.828-3.906-1.953-5.078-3.078-8.141-1.125-3.047-2.078-6.828-.953-3.781-.953-7 0-3.766 1.734-6.141 1.734-2.359 5.391-2.359 6.938 0 12.5 10.687 1.766 3.469 3.328 8.156 1.563 4.688 1.563 7.625 0 3.02-.984 4.703-.969 1.688-2.531 3.516-1.563 1.828-1.563 2.906 0 1.953 1.609 3.563 1.609 1.609 3.563 1.609 2.391 0 3.438-2.203 1.063-2.188 1.063-4.969 0-3.313-.953-7.906-.953-4.594-2.641-9.531-1.688-4.922-3.109-7.75-6.578-13.05-15.375-13.05-6.297 0-10.11 3.141-3.813 3.156-3.813 9.266"/><path fill="#800080" id="f" d="m30.422 75.984v-89.17h-20.703v6.984h11.672v75.2h-11.672v6.984z"/><path fill="#800080" id="g" d="m73.19 49.22l-50.39-17.922 50.39-17.813v-8.891l-62.59 22.703v8.109l62.59 22.703z"/><path id="h" d="m4.688 0q-.969 0-.969 1.313.047.25.188.859.141.609.406.969.281.375.672.375 9.563 0 11.125 6.109l13.578 54.688q-2.781.484-8.781.484-.984 0-.984 1.313.047.25.188.859.156.609.422.969.266.375.656.375h17.297q.719 0 .922-.641l22.22-52.875 11.08 44.28q.203 1.078.203 1.516 0 4.203-7.719 4.203-.984 0-.984 1.313.344 1.281.531 1.734.203.469 1.188.469h21.391q.969 0 .969-1.313-.047-.25-.203-.859-.141-.609-.406-.984-.266-.359-.656-.359-9.578 0-11.141-6.109l-14.344-57.813q-.344-.875-1.031-.875h-1.219q-.687 0-.875.688l-25.5 60.5-.187.625q-.203.203-.203.297l-13.234-52.922q-.094-.25-.141-.625-.047-.359-.141-.844 0-2.594 2.234-3.406 2.25-.797 5.578-.797.969 0 .969-1.313-.344-1.375-.594-1.797-.234-.406-1.063-.406z"/><path id="i" d="m31-24.813q-5.563 4.406-9.594 10.09-4.02 5.688-6.594 12.141-2.563 6.438-3.828 13.469-1.266 7.03-1.266 14.11 0 7.172 1.266 14.203 1.266 7.03 3.875 13.531 2.625 6.5 6.672 12.156 4.063 5.672 9.469 9.922 0 .188.5.188h.922q.297 0 .531-.266.25-.266.25-.609 0-.438-.188-.641-4.891-4.781-8.141-10.25-3.25-5.469-5.234-11.656-1.969-6.172-2.844-12.797-.875-6.609-.875-13.781 0-31.781 16.984-48.3.297-.281.297-.828 0-.234-.266-.547-.266-.328-.516-.328h-.922q-.5 0-.5.188"/><path id="j" d="m6.5-25q-.891 0-.891.875 0 .438.203.641 17.09 16.703 17.09 48.48 0 31.781-16.906 48.3-.391.234-.391.828 0 .344.266.609.281.266.625.266h.922q.297 0 .484-.188 7.188-5.672 11.969-13.781 4.781-8.094 7-17.281 2.234-9.172 2.234-18.75 0-7.078-1.203-13.938-1.203-6.859-3.812-13.516-2.609-6.672-6.609-12.312-4-5.641-9.578-10.05-.188-.188-.484-.188z"/><path id="k" d="m10.203 23q-.828 0-1.375.625-.531.641-.531 1.375 0 .734.531 1.359.547.641 1.375.641h57.38q.781 0 1.297-.641.516-.625.516-1.359 0-.734-.516-1.375-.516-.625-1.297-.625z"/><path id="l" d="m29.5-19.578q0 2.25 1 6.547 1 4.297 2.438 9.156 1.438 4.859 2.469 7.984.391 4.969.391 7.516 0 6.438-1.281 11.984-1.266 5.547-4.781 9.281-3.516 3.734-9.813 3.734-3.313 0-6.609-1.422-3.297-1.406-5.672-3.953-2.359-2.531-3.25-5.766-.188-.578-.781-.578h-1.219q-.781 0-.781.875v.344q1.125 4.484 3.984 8.656 2.859 4.188 6.984 6.797 4.125 2.609 8.719 2.609 4.688 0 8.094-3.172 3.422-3.172 5.469-8.06 2.063-4.875 2.953-9.859.906-4.984.906-9.375 5.03 13.672 11.281 25.875l1.516 3.234q.297.281.688.281h1.219q.781 0 .781-.922 0-.188-.203-.578l-1.516-3.125q-4.344-8.656-7.984-17.547-3.625-8.875-6.219-17.12-.391-3.375-1.5-9.234-1.094-5.859-2.656-10.906-1.563-5.063-3.125-5.25-1.5 0-1.5 2"/><path fill="#ffa500" id="m" d="m8.594 75.984h20.703v-6.984h-11.719v-75.2h11.719v-6.984h-20.703z"/><path fill="#ffa500" id="n" d="m10.594 49.22v8.891l62.59-22.703v-8.109l-62.59-22.703v8.891l50.3 17.813z"/><path id="o" d="m20.02-1.516q-3.469 0-6.453 1.297-2.969 1.297-5.188 3.734-2.219 2.438-3.297 5.438-1.078 3.02-1.078 6.531 0 6.25 2.953 12.13 2.953 5.891 8.06 10.188 5.109 4.297 11.11 5.813-2.938 5.422-4.469 9.344-1.531 3.938-1.531 8.03 0 3.03 1.406 5.344 1.422 2.328 3.906 3.641 2.5 1.328 5.563 1.328 2.984 0 11.828-2.02 2.297-.531 2.297-2.672 0-1.672-1.234-3.047-1.219-1.359-2.875-1.359-1.219 0-2.203.563-.969.563-3.078 1.969-2.094 1.422-3.75 2.172-1.656.766-3.469.766-2.047 0-3.688-1.25-1.641-1.234-1.641-3.234 0-3.172 2.813-7.297 2.813-4.125 7.984-10.578 5.906-7.516 5.906-16.594 0-4.5-1.297-9.734-1.281-5.219-3.75-9.859-2.469-4.625-6.313-7.641-3.828-3-8.516-3m.203 2.734q3.906 0 6.703 4.047 2.813 4.063 4.25 9.656 1.453 5.594 1.453 9.391 0 7.469-5.234 16.797-5.266-1.453-9.08-6.141-3.813-4.688-5.766-10.797-1.953-6.109-1.953-11.578 0-4.781 2.484-8.08 2.5-3.297 7.141-3.297"/></defs><g fill="#fff"><path d="m0 454.76h563.52v-454.76h-563.52z"/><path d="m7.2 418.49h531.84v-387.8h-531.84z"/></g><g fill="none"><g stroke-linecap="square"><path stroke="#008000" clip-path="url(#a)" d="m17.428 398.55l30.25-1.481 27.21-1.557 25.368-1.685 23.11-1.772 17.805-1.552 18.63-1.834 16.08-1.794 12.832-1.607 13.439-1.894 9.705-1.542 8.879-1.581 8.234-1.658 7.982-1.846 5.747-1.525 6.351-1.943 3.965-1.389 3.289-1.283 4.382-1.934 2.365-1.172 4.706-2.664 3.775-2.534 4.063-3.23 2.277-2.091 2.59-2.672 3.291-3.933 2.179-2.996 2.564-4 2.482-4.444 2.108-4.286 1.949-4.445 1.979-5.05 1.689-4.79 2.233-7.097 1.633-5.801 2.117-8.378 1.888-8.369 1.899-9.346 1.97-10.752 1.925-11.601 2.091-13.864 2.405-17.56 2.768-22.16 3.835-33.19 4.696-40.857 2.065-16.268 1.832-12.674 1.289-7.615 1.288-6.337.853-3.412 1.11-3.44.74-1.631.74-1.083.688-.506.636-.032.656.406.675.882.675 1.349.675 1.807 1.046 3.679 1.062 4.782 1.062 5.764 1.321 8.413 1.686 12.455 2.075 17.411 2.713 24.983 6.757 63.716 2.837 24.38 2.213 17.397 2.059 14.795 2.134 13.914 2.343 13.653 2.32 11.962 2.147 9.802 1.987 8.109 2.24 8.147 1.839 5.998 2.597 7.569 2.401 6.201 2.345 5.454 1.612 3.461 3.158 6.235 3.326 5.947 3.677 6.01 2.838 4.287 2.863 3.982 2.751 3.397 1.973 2.067 2.053 1.671 1.026.588.743.298 1.303.202 1.121-.225 1.068-.646.932-.989.849-1.32.849-1.801 1.062-3.079.751-2.851 1-4.897.931-5.911.931-7.578.931-9.689.899-11.915.867-14.544.833-17.608.798-21.2.866-29.2.79-34.16.805-44.712.809-58.58.728-68.909.586-70.75"/><path stroke="#800080" stroke-width="2" clip-path="url(#a)" d="m17.428 411.45l303.64-.426"/></g><g stroke-dasharray="6 6" stroke="#800080"><path clip-path="url(#a)" d="m322.13 184.08v226.95"/><path clip-path="url(#a)" d="m322.13 184.08h121.45"/></g><g stroke="#ffa500"><path stroke-linecap="square" stroke-width="2" clip-path="url(#a)" d="m369.01 411.03h159.81"/><g stroke-dasharray="6 6"><path clip-path="url(#a)" d="m369.54 297.49v113.54"/><path clip-path="url(#a)" d="m369.54 297.49h74.05"/></g></g><g stroke="#000" stroke-linecap="square" stroke-width=".8"><path d="m7.2 411.03h531.84"/><path d="m443.58 418.49v-387.8"/></g></g><use x="443.58" y="411.03" xlink:href="#b"/><use xlink:href="#c" transform="matrix(.16 0 0-.16 547.04 410.9)"/><use x="443.58" y="411.03" xlink:href="#d"/><use xlink:href="#e" transform="matrix(.16 0 0-.16 439.66 19.243)"/><use xlink:href="#f" transform="matrix(.2 0 0-.2 317.93 416.55)"/><use xlink:href="#g" transform="matrix(.2 0 0-.2 11.168 416.97)"/><g fill="#800080"><g transform="matrix(.15 0 0-.15 311.39 440.87)"><use xlink:href="#h" transform="translate(0 .688)"/><use xlink:href="#e" transform="matrix(.7 0 0 .7 80.32-24.822)"/></g><g transform="matrix(.15 0 0-.15 465.05 187.68)"><use xlink:href="#l"/><use xlink:href="#k" transform="matrix(.7 0 0 .7 51.709 42.516)"/><use xlink:href="#i" transform="translate(146.4)"/><use xlink:href="#h" transform="translate(185.22)"/><use xlink:href="#e" transform="matrix(.7 0 0 .7 265.54-25.509)"/><use xlink:href="#j" transform="translate(313.93)"/></g></g><use xlink:href="#m" transform="matrix(.2 0 0-.2 366.94 416.55)"/><use xlink:href="#n" transform="matrix(.2 0 0-.2 522.56 416.97)"/><g fill="#ffa500"><g transform="matrix(.2 0 0-.2 359.71 442.16)"><use xlink:href="#o" transform="translate(0 .703)"/><use xlink:href="#e" transform="matrix(.7 0 0 .7 44.38-24.806)"/></g><g transform="matrix(.15 0 0-.15 467.75 301.09)"><use xlink:href="#l"/><use xlink:href="#k" transform="matrix(.7 0 0 .7 51.709 42.516)"/><use xlink:href="#i" transform="translate(146.4)"/><use xlink:href="#o" transform="translate(185.22)"/><use xlink:href="#e" transform="matrix(.7 0 0 .7 229.6-25.509)"/><use xlink:href="#j" transform="translate(277.99)"/></g></g><path fill="#800080" stroke="#800080" clip-path="url(#a)" d="m322.13 187.27c.848 0 1.661-.336 2.26-.936.6-.599.936-1.412.936-2.26 0-.847-.336-1.66-.936-2.26-.599-.599-1.412-.936-2.26-.936-.847 0-1.66.337-2.26.936-.599.6-.936 1.413-.936 2.26 0 .848.337 1.661.936 2.26.6.6 1.413.936 2.26.936z"/><path fill="#ffa500" stroke="#ffa500" clip-path="url(#a)" d="m369.54 300.69c.848 0 1.661-.337 2.26-.936.599-.599.936-1.413.936-2.26 0-.848-.337-1.661-.936-2.26-.599-.6-1.412-.936-2.26-.936-.848 0-1.661.336-2.26.936-.599.599-.936 1.412-.936 2.26 0 .847.337 1.661.936 2.26.599.599 1.412.936 2.26.936z"/><path fill="#e6e6e6" stroke="#000" d="m17.837 121.82h62.55v-27.15h-62.55z"/><path fill="none" stroke="#008000" stroke-linecap="square" d="m28.337 106.82h-8.25"/><g transform="matrix(.15 0 0-.15 32.09 112.07)"><use xlink:href="#l"/><use xlink:href="#k" transform="matrix(.7 0 0 .7 51.709 42.516)"/><use xlink:href="#i" transform="translate(146.4)"/><use xlink:href="#c" transform="translate(185.22)"/><use xlink:href="#j" transform="translate(242.3)"/></g></svg>