<svg width="702.5" xmlns="http://www.w3.org/2000/svg" height="523.75" viewBox="0 0 562 419" xmlns:xlink="http://www.w3.org/1999/xlink"><defs><clipPath id="a"><path d="m22.47 7.2h514.7v396.13h-514.7z"/></clipPath><path stroke="#000" id="b" stroke-width=".5" d="m0 0v-4"/><path id="c" d="m31.781 66.41q-7.609 0-11.453-7.5-3.828-7.484-3.828-22.531 0-14.984 3.828-22.484 3.844-7.5 11.453-7.5 7.672 0 11.5 7.5 3.844 7.5 3.844 22.484 0 15.05-3.844 22.531-3.828 7.5-11.5 7.5m0 7.813q12.266 0 18.734-9.703 6.469-9.688 6.469-28.14 0-18.406-6.469-28.11-6.469-9.688-18.734-9.688-12.25 0-18.719 9.688-6.469 9.703-6.469 28.11 0 18.453 6.469 28.14 6.469 9.703 18.719 9.703"/><path id="d" d="m10.688 12.406h10.313v-12.406h-10.313z"/><path id="e" d="m10.797 72.906h38.719v-8.312h-29.688v-17.859q2.141.734 4.281 1.094 2.156.359 4.313.359 12.203 0 19.328-6.688 7.141-6.688 7.141-18.11 0-11.766-7.328-18.297-7.328-6.516-20.656-6.516-4.594 0-9.359.781-4.75.781-9.828 2.344v9.922q4.391-2.391 9.08-3.563 4.688-1.172 9.906-1.172 8.453 0 13.375 4.437 4.938 4.438 4.938 12.06 0 7.609-4.938 12.05-4.922 4.453-13.375 4.453-3.953 0-7.891-.875-3.922-.875-8.02-2.734z"/><path id="f" d="m12.406 8.297h16.11v55.625l-17.531-3.516v8.984l17.438 3.516h9.859v-64.61h16.11v-8.297h-41.984z"/><path id="g" d="m19.19 8.297h34.422v-8.297h-46.28v8.297q5.609 5.813 15.297 15.594 9.703 9.797 12.188 12.641 4.734 5.313 6.609 9 1.891 3.688 1.891 7.25 0 5.813-4.078 9.469-4.078 3.672-10.625 3.672-4.641 0-9.797-1.609-5.141-1.609-11-4.891v9.969q5.953 2.391 11.125 3.609 5.188 1.219 9.484 1.219 11.328 0 18.06-5.672 6.734-5.656 6.734-15.12 0-4.5-1.688-8.531-1.672-4.02-6.125-9.484-1.219-1.422-7.766-8.187-6.531-6.766-18.453-18.922"/><path stroke="#000" id="h" stroke-width=".5" d="m0 0v-2"/><path id="i" d="m10.688 11.281q0 2.25.531 4.922.547 2.688 1.078 4.422.547 1.734 2.453 6.766 1.906 5.03 1.953 5.234 1.313 3.656 1.313 6 0 2.984-2.188 2.984-3.969 0-6.531-4.078-2.563-4.078-3.781-9.109-.188-.641-.828-.641h-1.172q-.828 0-.828.938v.281q1.609 5.969 4.922 10.578 3.328 4.609 8.406 4.609 3.563 0 6.03-2.344 2.469-2.344 2.469-5.953 0-1.859-.828-3.906-1.953-5.078-3.078-8.141-1.125-3.047-2.078-6.828-.953-3.781-.953-7 0-3.766 1.734-6.141 1.734-2.359 5.391-2.359 6.938 0 12.5 10.687 1.766 3.469 3.328 8.156 1.563 4.688 1.563 7.625 0 3.02-.984 4.703-.969 1.688-2.531 3.516-1.563 1.828-1.563 2.906 0 1.953 1.609 3.563 1.609 1.609 3.563 1.609 2.391 0 3.438-2.203 1.063-2.188 1.063-4.969 0-3.313-.953-7.906-.953-4.594-2.641-9.531-1.688-4.922-3.109-7.75-6.578-13.05-15.375-13.05-6.297 0-10.11 3.141-3.813 3.156-3.813 9.266"/><path stroke="#000" id="j" stroke-width=".5" d="m0 0h4"/><path stroke="#000" id="k" stroke-width=".5" d="m0 0h2"/><path id="l" d="m9.813 72.906h13.281l32.33-60.984v60.984h9.562v-72.906h-13.281l-32.31 60.984v-60.984h-9.578z"/><path id="m" d="m37.11 75.984v-7.484h-8.594q-4.828 0-6.719-1.953-1.875-1.953-1.875-7.03v-4.828h14.797v-6.984h-14.797v-47.703h-9.03v47.703h-8.594v6.984h8.594v3.813q0 9.125 4.25 13.297 4.25 4.188 13.469 4.188z"/><path id="n" d="m31-24.813q-5.563 4.406-9.594 10.09-4.02 5.688-6.594 12.141-2.563 6.438-3.828 13.469-1.266 7.03-1.266 14.11 0 7.172 1.266 14.203 1.266 7.03 3.875 13.531 2.625 6.5 6.672 12.156 4.063 5.672 9.469 9.922 0 .188.5.188h.922q.297 0 .531-.266.25-.266.25-.609 0-.438-.188-.641-4.891-4.781-8.141-10.25-3.25-5.469-5.234-11.656-1.969-6.172-2.844-12.797-.875-6.609-.875-13.781 0-31.781 16.984-48.3.297-.281.297-.828 0-.234-.266-.547-.266-.328-.516-.328h-.922q-.5 0-.5.188"/><path id="o" d="m52 44.19q3.375 6.06 8.06 8.938 4.688 2.875 11.03 2.875 8.547 0 13.187-5.984 4.641-5.969 4.641-17v-33.02h-9.03v32.719q0 7.859-2.797 11.656-2.781 3.813-8.484 3.813-6.984 0-11.05-4.641-4.047-4.625-4.047-12.641v-30.906h-9.03v32.719q0 7.906-2.781 11.687-2.781 3.781-8.594 3.781-6.891 0-10.953-4.656-4.047-4.656-4.047-12.625v-30.906h-9.03v54.688h9.03v-8.5q3.078 5.03 7.375 7.422 4.297 2.391 10.203 2.391 5.969 0 10.141-3.03 4.172-3.02 6.172-8.781"/><path id="p" d="m30.609 48.39q-7.219 0-11.422-5.641-4.203-5.641-4.203-15.453 0-9.813 4.172-15.453 4.188-5.641 11.453-5.641 7.188 0 11.375 5.656 4.203 5.672 4.203 15.438 0 9.719-4.203 15.406-4.188 5.688-11.375 5.688m0 7.609q11.719 0 18.406-7.625 6.703-7.609 6.703-21.08 0-13.422-6.703-21.08-6.688-7.641-18.406-7.641-11.766 0-18.438 7.641-6.656 7.656-6.656 21.08 0 13.469 6.656 21.08 6.672 7.625 18.438 7.625"/><path id="q" d="m29.5-19.578q0 2.25 1 6.547 1 4.297 2.438 9.156 1.438 4.859 2.469 7.984.391 4.969.391 7.516 0 6.438-1.281 11.984-1.266 5.547-4.781 9.281-3.516 3.734-9.813 3.734-3.313 0-6.609-1.422-3.297-1.406-5.672-3.953-2.359-2.531-3.25-5.766-.188-.578-.781-.578h-1.219q-.781 0-.781.875v.344q1.125 4.484 3.984 8.656 2.859 4.188 6.984 6.797 4.125 2.609 8.719 2.609 4.688 0 8.094-3.172 3.422-3.172 5.469-8.06 2.063-4.875 2.953-9.859.906-4.984.906-9.375 5.03 13.672 11.281 25.875l1.516 3.234q.297.281.688.281h1.219q.781 0 .781-.922 0-.188-.203-.578l-1.516-3.125q-4.344-8.656-7.984-17.547-3.625-8.875-6.219-17.12-.391-3.375-1.5-9.234-1.094-5.859-2.656-10.906-1.563-5.063-3.125-5.25-1.5 0-1.5 2"/><path id="r" d="m7.516 23q-.828 0-1.375.625-.531.641-.531 1.375 0 .734.531 1.359.547.641 1.375.641h29.406v29.5q0 .781.578 1.281.594.516 1.422.516.734 0 1.359-.516.641-.5.641-1.281v-29.5h29.391q.734 0 1.266-.641.547-.625.547-1.359 0-.734-.547-1.375-.531-.625-1.266-.625h-29.391v-29.5q0-.781-.641-1.281-.625-.516-1.359-.516-.828 0-1.422.516-.578.5-.578 1.281v29.5z"/><path id="s" d="m25-2.203q-12.25 0-16.672 10.08-4.422 10.09-4.422 24.02 0 8.688 1.578 16.344 1.594 7.672 6.297 13.02 4.719 5.359 13.219 5.359 6.594 0 10.781-3.234 4.203-3.219 6.406-8.328 2.203-5.094 3-10.938.813-5.828.813-12.219 0-8.594-1.594-16.09-1.578-7.5-6.219-12.75-4.641-5.25-13.188-5.25m0 2.594q5.563 0 8.297 5.703 2.734 5.719 3.375 12.656.641 6.938.641 14.75 0 7.516-.641 13.859-.641 6.359-3.359 11.5-2.703 5.156-8.313 5.156-5.656 0-8.391-5.188-2.734-5.172-3.375-11.5-.641-6.313-.641-13.828 0-5.563.266-10.5.281-4.938 1.453-10.188 1.172-5.25 3.781-8.844 2.609-3.578 6.906-3.578"/><path id="t" d="m6.5-25q-.891 0-.891.875 0 .438.203.641 17.09 16.703 17.09 48.48 0 31.781-16.906 48.3-.391.234-.391.828 0 .344.266.609.281.266.625.266h.922q.297 0 .484-.188 7.188-5.672 11.969-13.781 4.781-8.094 7-17.281 2.234-9.172 2.234-18.75 0-7.078-1.203-13.938-1.203-6.859-3.812-13.516-2.609-6.672-6.609-12.312-4-5.641-9.578-10.05-.188-.188-.484-.188z"/><path id="u" d="m56.2 29.594v-4.391h-41.31q.594-9.281 5.594-14.14 5-4.859 13.938-4.859 5.172 0 10.03 1.266 4.859 1.266 9.656 3.812v-8.5q-4.844-2.047-9.922-3.125-5.078-1.078-10.297-1.078-13.09 0-20.734 7.609-7.641 7.625-7.641 20.625 0 13.422 7.25 21.297 7.25 7.891 19.563 7.891 11.03 0 17.453-7.109 6.422-7.094 6.422-19.297m-8.984 2.641q-.094 7.359-4.125 11.75-4.03 4.406-10.672 4.406-7.516 0-12.03-4.25-4.516-4.25-5.203-11.969z"/><path id="v" d="m34.28 27.484q-10.891 0-15.09-2.484-4.203-2.484-4.203-8.5 0-4.781 3.156-7.594 3.156-2.797 8.563-2.797 7.484 0 12 5.297 4.516 5.297 4.516 14.08v2zm17.922 3.719v-31.2h-8.984v8.297q-3.078-4.969-7.672-7.344-4.594-2.375-11.234-2.375-8.391 0-13.359 4.719-4.953 4.719-4.953 12.625 0 9.219 6.172 13.906 6.188 4.688 18.438 4.688h12.609v.891q0 6.203-4.078 9.594-4.078 3.391-11.453 3.391-4.688 0-9.141-1.125-4.438-1.125-8.531-3.375v8.313q4.922 1.906 9.563 2.844 4.641.953 9.03.953 11.875 0 17.734-6.156 5.859-6.141 5.859-18.641"/><path id="w" d="m8.5 21.578v33.11h8.984v-32.766q0-7.766 3.02-11.656 3.03-3.875 9.09-3.875 7.266 0 11.484 4.641 4.234 4.641 4.234 12.656v31h8.984v-54.688h-8.984v8.406q-3.266-4.984-7.594-7.406-4.313-2.422-10.03-2.422-9.422 0-14.313 5.859-4.875 5.859-4.875 17.14"/><path id="x" d="m41.11 46.3q-1.516.875-3.297 1.281-1.781.422-3.922.422-7.625 0-11.703-4.953-4.078-4.953-4.078-14.234v-28.813h-9.03v54.688h9.03v-8.5q2.844 4.984 7.375 7.391 4.547 2.422 11.05 2.422.922 0 2.047-.125 1.125-.109 2.484-.359z"/><path id="y" d="m18.313 70.22v-15.531h18.5v-6.984h-18.5v-29.688q0-6.688 1.828-8.594 1.828-1.906 7.453-1.906h9.219v-7.516h-9.219q-10.406 0-14.359 3.875-3.953 3.891-3.953 14.14v29.688h-6.594v6.984h6.594v15.531z"/><path id="z" d="m10.203 23q-.828 0-1.375.625-.531.641-.531 1.375 0 .734.531 1.359.547.641 1.375.641h57.38q.781 0 1.297-.641.516-.625.516-1.359 0-.734-.516-1.375-.516-.625-1.297-.625z"/></defs><g fill="#fff"><path d="m0 419.49h562.17v-419.49h-562.17z"/><path d="m22.47 403.33h514.7v-396.13h-514.7z"/></g><g fill="none" stroke-linecap="square"><path stroke="#800080" clip-path="url(#a)" d="m32.368 393.4l3.138-3.396 2.47-2.938 3.359-4.302 4.2-5.817 5.097-7.639 3.602-5.751 4.581-7.704 5.491-9.778 4.713-8.84 3.826-7.467 6.375-13 6.743-14.484 6.56-14.783 5.92-13.909 5.756-14.03 6.514-16.457 6.527-17.1 7.03-19.09 7.428-20.894 6.468-18.795 6.629-19.834 8.761-27.08 7.656-24.469 7.628-25.11 7.412-25.08 8.823-30.734 4.464-15.916"/><path stroke="#ffa500" clip-path="url(#a)" d="m32.368 394.17l1.516-.794 1.515-.724 4.064-1.68 4.425-1.499 3.538-1.01 4.981-1.183 5.613-1.061 6.136-.886 7.469-.763 7.096-.458 7.451-.25 7.455-.052 8.989.155 10.764.435 13.232.818 15.703 1.25 21.15 1.943 38.17 3.544 17.527 1.395 14.243.942 14.725.75 12.668.433 11.791.207 14.476-.029 8.955-.186 9.255-.335 12.11-.668 10.886-.833 10.158-.985 10.825-1.278 9.304-1.293 11.02-1.773 10.984-2.032 9.935-2.075 10.839-2.524 8.398-2.148 11.512-3.222 8.463-2.578 9.588-3.138 10.527-3.717 10.08-3.83 7.984-3.224 10.558-4.525 6.895-3.119 10.02-4.767 10.182-5.129 8.824-4.68 10.608-5.921 2.279-1.314"/><g stroke="#000" stroke-width=".8"><path d="m22.47 395.71h514.7"/><path d="m29.881 403.33v-396.13"/></g></g><use x="29.881" y="395.71" xlink:href="#b"/><use x="154.23" y="395.71" xlink:href="#b"/><g transform="matrix(.13 0 0-.13 144.89 409.59)"><use xlink:href="#c"/><use x="63.62" xlink:href="#d"/><use x="95.41" xlink:href="#e"/></g><use x="278.57" y="395.71" xlink:href="#b"/><use xlink:href="#f" transform="matrix(.13 0 0-.13 275.75 409.59)"/><use x="402.92" y="395.71" xlink:href="#b"/><g transform="matrix(.13 0 0-.13 393.87 409.59)"><use xlink:href="#f"/><use x="63.62" xlink:href="#d"/><use x="95.41" xlink:href="#e"/></g><use x="527.27" y="395.71" xlink:href="#b"/><use xlink:href="#g" transform="matrix(.13 0 0-.13 524.26 409.59)"/><use x="54.751" y="395.71" xlink:href="#h"/><use x="79.62" y="395.71" xlink:href="#h"/><use x="104.49" y="395.71" xlink:href="#h"/><use x="129.36" y="395.71" xlink:href="#h"/><use x="154.23" y="395.71" xlink:href="#h"/><use x="179.1" y="395.71" xlink:href="#h"/><use x="203.97" y="395.71" xlink:href="#h"/><use x="228.84" y="395.71" xlink:href="#h"/><use x="253.71" y="395.71" xlink:href="#h"/><use x="278.57" y="395.71" xlink:href="#h"/><use x="303.44" y="395.71" xlink:href="#h"/><use x="328.31" y="395.71" xlink:href="#h"/><use x="353.18" y="395.71" xlink:href="#h"/><use x="378.05" y="395.71" xlink:href="#h"/><use x="402.92" y="395.71" xlink:href="#h"/><use x="427.79" y="395.71" xlink:href="#h"/><use x="452.66" y="395.71" xlink:href="#h"/><use x="477.53" y="395.71" xlink:href="#h"/><use x="502.4" y="395.71" xlink:href="#h"/><use x="527.27" y="395.71" xlink:href="#h"/><use xlink:href="#i" transform="matrix(.2 0 0-.2 545.17 395.56)"/><use x="29.881" y="395.71" xlink:href="#j"/><use x="29.881" y="300.49" xlink:href="#j"/><g transform="matrix(.13 0 0-.13 7.2 304.07)"><use xlink:href="#c"/><use x="63.62" xlink:href="#d"/><use x="95.41" xlink:href="#e"/></g><use x="29.881" y="205.26" xlink:href="#j"/><use xlink:href="#f" transform="matrix(.13 0 0-.13 20.239 208.85)"/><use x="29.881" y="110.04" xlink:href="#j"/><g transform="matrix(.13 0 0-.13 7.771 113.63)"><use xlink:href="#f"/><use x="63.62" xlink:href="#d"/><use x="95.41" xlink:href="#e"/></g><use x="29.881" y="14.818" xlink:href="#j"/><use xlink:href="#g" transform="matrix(.13 0 0-.13 19.865 18.405)"/><use x="29.881" y="376.66" xlink:href="#k"/><use x="29.881" y="357.62" xlink:href="#k"/><use x="29.881" y="338.57" xlink:href="#k"/><use x="29.881" y="319.53" xlink:href="#k"/><use x="29.881" y="300.49" xlink:href="#k"/><use x="29.881" y="281.44" xlink:href="#k"/><use x="29.881" y="262.4" xlink:href="#k"/><use x="29.881" y="243.35" xlink:href="#k"/><use x="29.881" y="224.31" xlink:href="#k"/><use x="29.881" y="205.26" xlink:href="#k"/><use x="29.881" y="186.22" xlink:href="#k"/><use x="29.881" y="167.17" xlink:href="#k"/><use x="29.881" y="148.13" xlink:href="#k"/><use x="29.881" y="129.08" xlink:href="#k"/><use x="29.881" y="110.04" xlink:href="#k"/><use x="29.881" y="90.996" xlink:href="#k"/><use x="29.881" y="71.951" xlink:href="#k"/><use x="29.881" y="52.907" xlink:href="#k"/><use x="29.881" y="33.862" xlink:href="#k"/><use x="29.881" y="14.818" xlink:href="#k"/><path fill="#e6e6e6" stroke="#000" d="m362.72 57.6h166.95v-42.9h-166.95z"/><path fill="none" stroke="#800080" stroke-linecap="square" d="m372.47 27.3h-8.25"/><g transform="matrix(.15 0 0-.15 376.22 32.55)"><use xlink:href="#l" transform="translate(0 .677)"/><use xlink:href="#w" transform="translate(74.8.677)"/><use xlink:href="#o" transform="translate(138.18.677)"/><use xlink:href="#u" transform="translate(235.6.677)"/><use xlink:href="#x" transform="translate(297.12.677)"/><use xlink:href="#v" transform="translate(338.23.677)"/><use xlink:href="#y" transform="translate(399.51.677)"/><use xlink:href="#p" transform="translate(438.72.677)"/><use xlink:href="#x" transform="translate(499.9.677)"/><use transform="translate(541.02.677)"/><use xlink:href="#p" transform="translate(572.8.677)"/><use xlink:href="#m" transform="translate(633.98.677)"/><use transform="translate(669.19.677)"/><use xlink:href="#q" transform="translate(700.98.677)"/><use xlink:href="#r" transform="matrix(.7 0 0 .7 777.22 43.19)"/><use xlink:href="#i" transform="matrix(.7 0 0 .7 752.69-24.833)"/><use xlink:href="#n" transform="translate(853.07.677)"/><use xlink:href="#s" transform="translate(891.89.677)"/><use xlink:href="#t" transform="translate(941.89.677)"/></g><path fill="none" stroke="#ffa500" stroke-linecap="square" d="m372.47 43.05h-8.25"/><g transform="matrix(.15 0 0-.15 376.22 48.3)"><use xlink:href="#l" transform="translate(0 .016)"/><use xlink:href="#w" transform="translate(74.8.016)"/><use xlink:href="#o" transform="translate(138.18.016)"/><use xlink:href="#u" transform="translate(235.6.016)"/><use xlink:href="#x" transform="translate(297.12.016)"/><use xlink:href="#v" transform="translate(338.23.016)"/><use xlink:href="#y" transform="translate(399.51.016)"/><use xlink:href="#p" transform="translate(438.72.016)"/><use xlink:href="#x" transform="translate(499.9.016)"/><use transform="translate(541.02.016)"/><use xlink:href="#p" transform="translate(572.8.016)"/><use xlink:href="#m" transform="translate(633.98.016)"/><use transform="translate(669.19.016)"/><use xlink:href="#q" transform="translate(700.98.016)"/><use xlink:href="#z" transform="matrix(.7 0 0 .7 764.93 42.531)"/><use xlink:href="#i" transform="matrix(.7 0 0 .7 752.69-25.494)"/><use xlink:href="#n" transform="translate(859.62.016)"/><use xlink:href="#s" transform="translate(898.44.016)"/><use xlink:href="#t" transform="translate(948.44.016)"/></g></svg>