<svg width="702.5" xmlns="http://www.w3.org/2000/svg" height="530" viewBox="0 0 562 424" xmlns:xlink="http://www.w3.org/1999/xlink"><defs><clipPath id="a"><path d="m10.84 13.474h515.95v389.72h-515.95z"/></clipPath><path stroke="#000" id="b" stroke-width=".5" d="m0 0v-4"/><path id="c" d="m31.781 66.41q-7.609 0-11.453-7.5-3.828-7.484-3.828-22.531 0-14.984 3.828-22.484 3.844-7.5 11.453-7.5 7.672 0 11.5 7.5 3.844 7.5 3.844 22.484 0 15.05-3.844 22.531-3.828 7.5-11.5 7.5m0 7.813q12.266 0 18.734-9.703 6.469-9.688 6.469-28.14 0-18.406-6.469-28.11-6.469-9.688-18.734-9.688-12.25 0-18.719 9.688-6.469 9.703-6.469 28.11 0 18.453 6.469 28.14 6.469 9.703 18.719 9.703"/><path id="d" d="m10.688 12.406h10.313v-12.406h-10.313z"/><path id="e" d="m10.797 72.906h38.719v-8.312h-29.688v-17.859q2.141.734 4.281 1.094 2.156.359 4.313.359 12.203 0 19.328-6.688 7.141-6.688 7.141-18.11 0-11.766-7.328-18.297-7.328-6.516-20.656-6.516-4.594 0-9.359.781-4.75.781-9.828 2.344v9.922q4.391-2.391 9.08-3.563 4.688-1.172 9.906-1.172 8.453 0 13.375 4.437 4.938 4.438 4.938 12.06 0 7.609-4.938 12.05-4.922 4.453-13.375 4.453-3.953 0-7.891-.875-3.922-.875-8.02-2.734z"/><path id="f" d="m12.406 8.297h16.11v55.625l-17.531-3.516v8.984l17.438 3.516h9.859v-64.61h16.11v-8.297h-41.984z"/><path id="g" d="m19.19 8.297h34.422v-8.297h-46.28v8.297q5.609 5.813 15.297 15.594 9.703 9.797 12.188 12.641 4.734 5.313 6.609 9 1.891 3.688 1.891 7.25 0 5.813-4.078 9.469-4.078 3.672-10.625 3.672-4.641 0-9.797-1.609-5.141-1.609-11-4.891v9.969q5.953 2.391 11.125 3.609 5.188 1.219 9.484 1.219 11.328 0 18.06-5.672 6.734-5.656 6.734-15.12 0-4.5-1.688-8.531-1.672-4.02-6.125-9.484-1.219-1.422-7.766-8.187-6.531-6.766-18.453-18.922"/><path stroke="#000" id="h" stroke-width=".5" d="m0 0v-2"/><path id="i" d="m10.797 11.625q0 2.094.563 4.828.563 2.734 1.234 4.859.687 2.125 2.312 6.516 1.641 4.406 1.797 4.797 1.313 3.656 1.313 6 0 2.984-2.188 2.984-3.969 0-6.531-4.078-2.563-4.078-3.781-9.109-.188-.641-.828-.641h-1.172q-.828 0-.828.938v.281q1.609 5.969 4.922 10.578 3.328 4.609 8.406 4.609 3.563 0 6.03-2.344 2.469-2.344 2.469-5.953 0-1.859-.828-3.906-1.172-3.03-2.766-7.281-1.578-4.25-2.469-7.719-.875-3.453-.875-6.688 0-3.906 2.047-6.344 2.063-2.438 5.969-2.438 5.312 0 8.828 8.109-.141.578-.141 1.656 0 2.688.828 6.109l5.609 22.5q.344 1.328 1.562 2.266 1.219.953 2.641.953 1.172 0 2.078-.781.906-.781.906-2.047 0-.578-.109-.781l-5.609-22.313q-.969-4-.969-7.172 0-3.766 1.719-6.141 1.734-2.359 5.453-2.359 6.438 0 10.594 8.5 1.563 3.02 3.484 8.922 1.937 5.922 1.937 9.05 0 2.875-.937 4.563-.922 1.688-2.563 3.641-1.625 1.953-1.625 2.922 0 1.906 1.625 3.531 1.641 1.641 3.594 1.641 2.391 0 3.438-2.203 1.063-2.188 1.063-4.969 0-3.375-1.125-8.578-1.125-5.187-2.844-10.437-1.703-5.25-3.219-8.375-5.469-10.844-13.625-10.844-4.188 0-7.656 1.609-3.469 1.609-5.125 5.125-1.609-2.875-4.234-4.813-2.609-1.922-5.781-1.922-6.594 0-10.594 3.141-4 3.156-4 9.609"/><path stroke="#000" id="j" stroke-width=".5" d="m0 0h4"/><path id="k" d="m40.578 39.31q7.078-1.516 11.05-6.313 3.984-4.781 3.984-11.813 0-10.781-7.422-16.703-7.422-5.906-21.09-5.906-4.578 0-9.438.906-4.859.906-10.03 2.719v9.516q4.094-2.391 8.969-3.609 4.891-1.219 10.219-1.219 9.266 0 14.13 3.656 4.859 3.656 4.859 10.641 0 6.453-4.516 10.08-4.516 3.641-12.562 3.641h-8.5v8.109h8.891q7.266 0 11.125 2.906 3.859 2.906 3.859 8.375 0 5.609-3.984 8.609-3.969 3.02-11.391 3.02-4.063 0-8.703-.891-4.641-.875-10.203-2.719v8.781q5.625 1.562 10.531 2.344 4.906.781 9.25.781 11.234 0 17.766-5.109 6.547-5.094 6.547-13.781 0-6.06-3.469-10.234-3.469-4.172-9.859-5.781"/><path id="l" d="m37.797 64.31l-24.906-38.922h24.906zm-2.594 8.594h12.406v-47.52h10.406v-8.203h-10.406v-17.188h-9.813v17.188h-32.906v9.516z"/><path id="m" d="m33.02 40.38q-6.641 0-10.531-4.547-3.875-4.531-3.875-12.438 0-7.859 3.875-12.438 3.891-4.562 10.531-4.562 6.641 0 10.516 4.562 3.875 4.578 3.875 12.438 0 7.906-3.875 12.438-3.875 4.547-10.516 4.547m19.578 30.922v-8.984q-3.719 1.75-7.5 2.672-3.781.938-7.5.938-9.766 0-14.922-6.594-5.141-6.594-5.875-19.922 2.875 4.25 7.219 6.516 4.359 2.266 9.578 2.266 10.984 0 17.359-6.672 6.375-6.656 6.375-18.12 0-11.234-6.641-18.03-6.641-6.781-17.672-6.781-12.656 0-19.344 9.688-6.688 9.703-6.688 28.11 0 17.281 8.203 27.563 8.203 10.281 22.02 10.281 3.719 0 7.5-.734 3.781-.734 7.891-2.188"/><path id="n" d="m8.203 72.906h46.875v-4.203l-26.469-68.7h-10.297l24.906 64.59h-35.02z"/><path stroke="#000" id="o" stroke-width=".5" d="m0 0h2"/><path id="p" d="m31-24.813q-5.563 4.406-9.594 10.09-4.02 5.688-6.594 12.141-2.563 6.438-3.828 13.469-1.266 7.03-1.266 14.11 0 7.172 1.266 14.203 1.266 7.03 3.875 13.531 2.625 6.5 6.672 12.156 4.063 5.672 9.469 9.922 0 .188.5.188h.922q.297 0 .531-.266.25-.266.25-.609 0-.438-.188-.641-4.891-4.781-8.141-10.25-3.25-5.469-5.234-11.656-1.969-6.172-2.844-12.797-.875-6.609-.875-13.781 0-31.781 16.984-48.3.297-.281.297-.828 0-.234-.266-.547-.266-.328-.516-.328h-.922q-.5 0-.5.188"/><path id="q" d="m6.5-25q-.891 0-.891.875 0 .438.203.641 17.09 16.703 17.09 48.48 0 31.781-16.906 48.3-.391.234-.391.828 0 .344.266.609.281.266.625.266h.922q.297 0 .484-.188 7.188-5.672 11.969-13.781 4.781-8.094 7-17.281 2.234-9.172 2.234-18.75 0-7.078-1.203-13.938-1.203-6.859-3.812-13.516-2.609-6.672-6.609-12.312-4-5.641-9.578-10.05-.188-.188-.484-.188z"/><path id="r" d="m4.688 0q-.969 0-.969 1.313.047.25.188.859.141.609.406.969.281.375.672.375 6.094 0 8.5.688 1.313.438 1.891 2.688l13.734 54.922q.188.984.188 1.375 0 1.078-1.219 1.219-1.859.391-7.172.391-.984 0-.984 1.313.344 1.281.531 1.734.203.469 1.125.469h26.906q1.031 0 1.031-1.313-.047-.25-.203-.844-.141-.578-.391-.969-.234-.391-.734-.391-6.094 0-8.484-.688-1.328-.484-1.906-2.734l-8.109-32.375 39.2 30.28q.109.188 1.25 1.328 1.156 1.156 1.156 2.281 0 1.906-3.375 1.906-1.031 0-1.031 1.313.203.781.313 1.219.125.453.438.719.328.266.969.266h19.375q.547 0 .781-.391.25-.391.25-.922-.047-.25-.219-.891-.172-.625-.438-.969-.266-.344-.766-.344-7.313 0-16.02-6.781-.047-.063-.141-.094-.094-.016-.203-.047-.094-.016-.141-.063l-20.609-16.02 15-35.11q1.359-2.188 2.922-2.688 1.563-.484 4.781-.484 1.031 0 1.031-1.313-.297-1.172-.594-1.687-.281-.516-1.109-.516h-23.2q-.922 0-.922 1.313.141 1.031.328 1.609.203.594.984.594 2.547 0 4.328.516 1.781.516 1.781 2.359 0 .688-.094 1.031l-12.406 28.859-14.594-11.281-4.594-18.5q-.25-1.219-.25-1.422 0-1.031 1.219-1.172 1.906-.391 7.234-.391.969 0 .969-1.313-.344-1.422-.547-1.812-.188-.391-1.156-.391z"/></defs><g fill="#fff"><path d="m0 424.32h562.15v-424.32h-562.15z"/><path d="m10.84 403.2h515.95v-389.72h-515.95z"/></g><g fill="none" stroke-linecap="square"><path stroke="#006400" stroke-width="2" clip-path="url(#a)" d="m20.763 74.5l14.225-1.815 16.318-2.29 19.933-3.03 26.903-4.336 36.536-5.863 17.472-2.576 13.614-1.812 12.562-1.468 12.283-1.199 10.07-.776 10.339-.572 9.195-.293 9-.066 8.624.161 8.202.377 7.828.58 7.979.829 7.412 1 6.921 1.15 7.135 1.415 6.799 1.579 7 1.874 6.646 2.024 6.458 2.206 6.633 2.524 6.1 2.563 6.126 2.817 5.914 2.959 6.156 3.34 5.954 3.493 5.7 3.594 5.686 3.837 5.606 4.04 5.641 4.326 5.894 4.811 5.724 4.966 5.573 5.12 5.912 5.748 5.563 5.714 5.768 6.246 6.04 6.904 5.744 6.911 5.946 7.522 5.828 7.743 5.785 8.06 5.727 8.347 5.731 8.731 5.702 9.07 5.723 9.489 6.323 10.942 5.691 10.267 6.166 11.578 6.266 12.256 6.571 13.389 6.02 12.751 6.408 14.09 6.433 14.681 6.227 14.729 4.364 10.627"/><g stroke="#000" stroke-width=".8"><path d="m10.84 395.7h515.95"/><path d="m20.763 403.2v-389.72"/></g></g><use x="20.763" y="395.7" xlink:href="#b"/><use x="109.35" y="395.7" xlink:href="#b"/><g transform="matrix(.18 0 0-.18 90.69 413.38)"><use xlink:href="#c"/><use x="63.62" xlink:href="#d"/><use x="95.41" xlink:href="#c"/><use x="159.03" xlink:href="#e"/></g><use x="197.94" y="395.7" xlink:href="#b"/><g transform="matrix(.18 0 0-.18 185.06 413.38)"><use xlink:href="#c"/><use x="63.62" xlink:href="#d"/><use x="95.41" xlink:href="#f"/></g><use x="286.53" y="395.7" xlink:href="#b"/><g transform="matrix(.18 0 0-.18 267.88 413.38)"><use xlink:href="#c"/><use x="63.62" xlink:href="#d"/><use x="95.41" xlink:href="#f"/><use x="159.03" xlink:href="#e"/></g><use x="375.13" y="395.7" xlink:href="#b"/><g transform="matrix(.18 0 0-.18 362.31 413.38)"><use xlink:href="#c"/><use x="63.62" xlink:href="#d"/><use x="95.41" xlink:href="#g"/></g><use x="463.72" y="395.7" xlink:href="#b"/><g transform="matrix(.18 0 0-.18 445.06 413.38)"><use xlink:href="#c"/><use x="63.62" xlink:href="#d"/><use x="95.41" xlink:href="#g"/><use x="159.03" xlink:href="#e"/></g><use x="38.481" y="395.7" xlink:href="#h"/><use x="56.2" y="395.7" xlink:href="#h"/><use x="73.917" y="395.7" xlink:href="#h"/><use x="91.64" y="395.7" xlink:href="#h"/><use x="127.07" y="395.7" xlink:href="#h"/><use x="144.79" y="395.7" xlink:href="#h"/><use x="162.51" y="395.7" xlink:href="#h"/><use x="180.23" y="395.7" xlink:href="#h"/><use x="215.66" y="395.7" xlink:href="#h"/><use x="233.38" y="395.7" xlink:href="#h"/><use x="251.1" y="395.7" xlink:href="#h"/><use x="268.82" y="395.7" xlink:href="#h"/><use x="304.25" y="395.7" xlink:href="#h"/><use x="321.97" y="395.7" xlink:href="#h"/><use x="339.69" y="395.7" xlink:href="#h"/><use x="357.41" y="395.7" xlink:href="#h"/><use x="392.84" y="395.7" xlink:href="#h"/><use x="410.56" y="395.7" xlink:href="#h"/><use x="428.28" y="395.7" xlink:href="#h"/><use x="446" y="395.7" xlink:href="#h"/><use x="481.43" y="395.7" xlink:href="#h"/><use x="499.15" y="395.7" xlink:href="#h"/><use x="516.87" y="395.7" xlink:href="#h"/><use xlink:href="#i" transform="matrix(.28 0 0-.28 534.79 395.5)"/><use x="20.763" y="395.7" xlink:href="#j"/><use x="20.763" y="342.17" xlink:href="#j"/><use xlink:href="#f" transform="matrix(.18 0 0-.18 8.949 347.14)"/><use x="20.763" y="288.63" xlink:href="#j"/><use xlink:href="#g" transform="matrix(.18 0 0-.18 8.432 293.6)"/><use x="20.763" y="235.1" xlink:href="#j"/><use xlink:href="#k" transform="matrix(.18 0 0-.18 8.125 240.07)"/><use x="20.763" y="181.57" xlink:href="#j"/><use xlink:href="#l" transform="matrix(.18 0 0-.18 7.2 186.54)"/><use x="20.763" y="128.04" xlink:href="#j"/><use xlink:href="#e" transform="matrix(.18 0 0-.18 8.272 133)"/><use x="20.763" y="74.5" xlink:href="#j"/><use xlink:href="#m" transform="matrix(.18 0 0-.18 7.701 79.47)"/><use x="20.763" y="20.969" xlink:href="#j"/><use xlink:href="#n" transform="matrix(.18 0 0-.18 8.325 25.935)"/><use x="20.763" y="384.99" xlink:href="#o"/><use x="20.763" y="374.29" xlink:href="#o"/><use x="20.763" y="363.58" xlink:href="#o"/><use x="20.763" y="352.87" xlink:href="#o"/><use x="20.763" y="342.17" xlink:href="#o"/><use x="20.763" y="331.46" xlink:href="#o"/><use x="20.763" y="320.75" xlink:href="#o"/><use x="20.763" y="310.05" xlink:href="#o"/><use x="20.763" y="299.34" xlink:href="#o"/><use x="20.763" y="288.63" xlink:href="#o"/><use x="20.763" y="277.93" xlink:href="#o"/><use x="20.763" y="267.22" xlink:href="#o"/><use x="20.763" y="256.51" xlink:href="#o"/><use x="20.763" y="245.81" xlink:href="#o"/><use x="20.763" y="235.1" xlink:href="#o"/><use x="20.763" y="224.4" xlink:href="#o"/><use x="20.763" y="213.69" xlink:href="#o"/><use x="20.763" y="202.98" xlink:href="#o"/><use x="20.763" y="192.28" xlink:href="#o"/><use x="20.763" y="181.57" xlink:href="#o"/><use x="20.763" y="170.86" xlink:href="#o"/><use x="20.763" y="160.16" xlink:href="#o"/><use x="20.763" y="149.45" xlink:href="#o"/><use x="20.763" y="138.74" xlink:href="#o"/><use x="20.763" y="128.04" xlink:href="#o"/><use x="20.763" y="117.33" xlink:href="#o"/><use x="20.763" y="106.62" xlink:href="#o"/><use x="20.763" y="95.92" xlink:href="#o"/><use x="20.763" y="85.21" xlink:href="#o"/><use x="20.763" y="74.5" xlink:href="#o"/><use x="20.763" y="63.795" xlink:href="#o"/><use x="20.763" y="53.09" xlink:href="#o"/><use x="20.763" y="42.38" xlink:href="#o"/><use x="20.763" y="31.675" xlink:href="#o"/><use x="20.763" y="20.969" xlink:href="#o"/><path fill="#e6e6e6" stroke="#000" d="m397.8 52.45h92.5v-45.25h-92.5z"/><path fill="none" stroke="#006400" stroke-linecap="square" stroke-width="2" d="m415.3 27.446h-13.75"/><g transform="matrix(.25 0 0-.25 421.55 36.2)"><use xlink:href="#r"/><use xlink:href="#p" transform="translate(84.91)"/><use xlink:href="#i" transform="translate(123.73)"/><use xlink:href="#q" transform="translate(195.21)"/></g></svg>