<svg width="516.25" xmlns="http://www.w3.org/2000/svg" height="523.75" viewBox="0 0 413 419" xmlns:xlink="http://www.w3.org/1999/xlink"><defs><clipPath id="a"><path d="m7.2 30.685h381.88v381.88h-381.88z"/></clipPath><path stroke="#000" id="b" stroke-width=".5" d="m0 0v-4"/><path id="c" d="m19.19 8.297h34.422v-8.297h-46.28v8.297q5.609 5.813 15.297 15.594 9.703 9.797 12.188 12.641 4.734 5.313 6.609 9 1.891 3.688 1.891 7.25 0 5.813-4.078 9.469-4.078 3.672-10.625 3.672-4.641 0-9.797-1.609-5.141-1.609-11-4.891v9.969q5.953 2.391 11.125 3.609 5.188 1.219 9.484 1.219 11.328 0 18.06-5.672 6.734-5.656 6.734-15.12 0-4.5-1.688-8.531-1.672-4.02-6.125-9.484-1.219-1.422-7.766-8.187-6.531-6.766-18.453-18.922"/><path id="d" d="m4.891 31.391h26.312v-8h-26.312z"/><path id="e" d="m37.797 64.31l-24.906-38.922h24.906zm-2.594 8.594h12.406v-47.52h10.406v-8.203h-10.406v-17.188h-9.813v17.188h-32.906v9.516z"/><path id="f" d="m33.02 40.38q-6.641 0-10.531-4.547-3.875-4.531-3.875-12.438 0-7.859 3.875-12.438 3.891-4.562 10.531-4.562 6.641 0 10.516 4.562 3.875 4.578 3.875 12.438 0 7.906-3.875 12.438-3.875 4.547-10.516 4.547m19.578 30.922v-8.984q-3.719 1.75-7.5 2.672-3.781.938-7.5.938-9.766 0-14.922-6.594-5.141-6.594-5.875-19.922 2.875 4.25 7.219 6.516 4.359 2.266 9.578 2.266 10.984 0 17.359-6.672 6.375-6.656 6.375-18.12 0-11.234-6.641-18.03-6.641-6.781-17.672-6.781-12.656 0-19.344 9.688-6.688 9.703-6.688 28.11 0 17.281 8.203 27.563 8.203 10.281 22.02 10.281 3.719 0 7.5-.734 3.781-.734 7.891-2.188"/><path id="g" d="m31.781 34.625q-7.03 0-11.06-3.766-4.02-3.766-4.02-10.344 0-6.594 4.02-10.359 4.03-3.766 11.06-3.766 7.03 0 11.08 3.781 4.063 3.797 4.063 10.344 0 6.578-4.03 10.344-4.02 3.766-11.11 3.766m-9.859 4.188q-6.344 1.563-9.891 5.906-3.531 4.359-3.531 10.609 0 8.734 6.219 13.813 6.234 5.078 17.06 5.078 10.891 0 17.09-5.078 6.203-5.078 6.203-13.813 0-6.25-3.547-10.609-3.531-4.344-9.828-5.906 7.125-1.656 11.09-6.5 3.984-4.828 3.984-11.797 0-10.609-6.469-16.281-6.469-5.656-18.531-5.656-12.05 0-18.531 5.656-6.469 5.672-6.469 16.281 0 6.969 4 11.797 4.02 4.844 11.141 6.5m-3.609 15.578q0-5.656 3.531-8.828 3.547-3.172 9.937-3.172 6.359 0 9.938 3.172 3.594 3.172 3.594 8.828 0 5.672-3.594 8.844-3.578 3.172-9.938 3.172-6.391 0-9.937-3.172-3.531-3.172-3.531-8.844"/><path id="h" d="m31.781 66.41q-7.609 0-11.453-7.5-3.828-7.484-3.828-22.531 0-14.984 3.828-22.484 3.844-7.5 11.453-7.5 7.672 0 11.5 7.5 3.844 7.5 3.844 22.484 0 15.05-3.844 22.531-3.828 7.5-11.5 7.5m0 7.813q12.266 0 18.734-9.703 6.469-9.688 6.469-28.14 0-18.406-6.469-28.11-6.469-9.688-18.734-9.688-12.25 0-18.719 9.688-6.469 9.703-6.469 28.11 0 18.453 6.469 28.14 6.469 9.703 18.719 9.703"/><path id="i" d="m12.406 8.297h16.11v55.625l-17.531-3.516v8.984l17.438 3.516h9.859v-64.61h16.11v-8.297h-41.984z"/><path stroke="#000" id="j" stroke-width=".5" d="m0 0v-2"/><path id="k" d="m10.594 10.891q0 3.266.875 6.703.891 3.453 2.469 7.672 1.594 4.234 2.766 7.359 1.313 3.656 1.313 6 0 2.984-2.188 2.984-3.969 0-6.531-4.078-2.563-4.078-3.781-9.109-.188-.641-.828-.641h-1.172q-.828 0-.828.938v.281q1.609 5.969 4.922 10.578 3.328 4.609 8.406 4.609 3.563 0 6.03-2.344 2.469-2.344 2.469-5.953 0-1.859-.828-3.906-.438-1.219-2-5.328-1.563-4.094-2.406-6.781-.828-2.688-1.359-5.281-.531-2.578-.531-5.172 0-3.313 1.406-5.609 1.422-2.297 4.594-2.297 6.391 0 11.234 7.906.094.391.156.75.078.375.125.719l7.188 29q.344 1.328 1.562 2.266 1.219.953 2.641.953 1.219 0 2.109-.781.906-.781.906-2.047 0-.578-.094-.781l-7.219-28.813q-.688-2.969-.688-4.875 0-4.297 2.875-4.297 3.219 0 4.813 3.969 1.594 3.984 2.703 9.219.203.578.781.578h1.234q.391 0 .625-.344.25-.344.25-.625-1.078-4.297-2.078-7.375-1-3.078-3.156-5.578-2.141-2.484-5.359-2.484-3.172 0-5.688 1.734-2.516 1.734-3.406 4.719-2.281-2.938-5.312-4.703-3.03-1.75-6.406-1.75-5.75 0-9.172 3.141-3.422 3.156-3.422 8.875"/><path stroke="#000" id="l" stroke-width=".5" d="m0 0h4"/><path stroke="#000" id="m" stroke-width=".5" d="m0 0h2"/><path id="n" d="m10.688 11.281q0 2.25.531 4.922.547 2.688 1.078 4.422.547 1.734 2.453 6.766 1.906 5.03 1.953 5.234 1.313 3.656 1.313 6 0 2.984-2.188 2.984-3.969 0-6.531-4.078-2.563-4.078-3.781-9.109-.188-.641-.828-.641h-1.172q-.828 0-.828.938v.281q1.609 5.969 4.922 10.578 3.328 4.609 8.406 4.609 3.563 0 6.03-2.344 2.469-2.344 2.469-5.953 0-1.859-.828-3.906-1.953-5.078-3.078-8.141-1.125-3.047-2.078-6.828-.953-3.781-.953-7 0-3.766 1.734-6.141 1.734-2.359 5.391-2.359 6.938 0 12.5 10.687 1.766 3.469 3.328 8.156 1.563 4.688 1.563 7.625 0 3.02-.984 4.703-.969 1.688-2.531 3.516-1.563 1.828-1.563 2.906 0 1.953 1.609 3.563 1.609 1.609 3.563 1.609 2.391 0 3.438-2.203 1.063-2.188 1.063-4.969 0-3.313-.953-7.906-.953-4.594-2.641-9.531-1.688-4.922-3.109-7.75-6.578-13.05-15.375-13.05-6.297 0-10.11 3.141-3.813 3.156-3.813 9.266"/><path id="o" d="m244.5 338.47l3.709.12 3.709.114 3.709.109 3.709.106 3.709.101 3.709.097 3.709.093 3.709.09 3.709.086 3.709.084 3.709.08 3.709.078 7.418.148 3.709.07 3.709.068 7.418.129 3.709.062 11.127.174 11.127.159 11.127.146 11.127.135 7.418.084 11.127.118 3.709.037-11.127-.115-3.709-.04-7.418-.084-11.127-.135-7.418-.096-7.418-.102-7.418-.107-11.127-.174-3.709-.062-7.418-.129-3.709-.068-3.709-.07-7.418-.148-3.709-.078-3.709-.08-3.709-.084-3.709-.086-3.709-.09-3.709-.093-3.709-.097-3.709-.101-3.709-.106-3.709-.109-3.709-.114-4.182-.135-3.236-.109-3.709-.131-3.709-.136-3.709-.144-3.709-.15-3.709-.158-3.709-.166-3.709-.174-3.709-.185-3.709-.195-3.709-.206-3.709-.218-3.71-.232-3.709-.247-3.709-.262-3.709-.281-3.709-.3-3.709-.322-1.047-.093-2.662-.254-3.709-.373-3.709-.404-3.709-.439-3.709-.477-3.709-.522-3.709-.573-3.918-.667-3.5-.664-3.709-.78-3.709-.874-3.709-.987-1.449-.404-2.26-.72-3.709-1.289-3.709-1.496-.498-.204-3.211-1.552-3.827-2.157-3.591-2.465-1.678-1.244-2.031-1.882-1.943-1.827-1.766-2.133-1.365-1.576-2.344-3.602-.078-.107-2.227-3.709-1.404-3.246-.246-.463-1.639-3.709-1.213-3.709-.61-2.318-.504-1.391-1.112-3.709-.864-3.709-.692-3.709-.538-3.511-.05-.198-.822-3.709-.66-3.709-.542-3.709-.452-3.709-.384-3.709-.329-3.709-.286-3.709-.185-2.689-.152-1.02-.491-3.709-.413-3.709-.351-3.709-.303-3.709-.264-3.709-.232-3.71-.205-3.709-.183-3.709-.164-3.709-.148-3.709-.134-3.709-.122-3.709-.112-3.709-.103-3.709-.095-3.709-.088-3.709-.081-3.709-.066-3.245-.046-.464-.331-3.709-.282-3.709-.243-3.709-.212-3.709-.186-3.709-.165-3.709-.147-3.709-.132-3.709-.119-3.709-.108-3.709-.098-3.709-.09-3.709-.082-3.709-.076-3.709-.07-3.709-.065-3.709-.061-3.709-.056-3.709-.053-3.709-.049-3.709-.046-3.709-.044-3.709-.041-3.709-.039-3.709-.037-3.709-.035-3.709-.033-3.709-.031-3.709-.03-3.709-.028-3.709-.027-3.709-.026-3.709-.024-3.709-.023-3.709-.022-3.709-.022-3.709-.021-3.709.021 3.709.022 3.709.022 3.709.023 3.709.024 3.709.026 3.709.027 3.709.028 3.709.03 3.709.031 3.709.033 3.709.035 3.709.037 3.709.039 3.709.041 3.709.044 3.709.046 3.709.049 3.709.053 3.709.056 3.709.061 3.709.065 3.709.07 3.709.076 3.709.082 3.709.09 3.709.098 3.709.108 3.709.119 3.709.132 3.709.147 3.709.165 3.709.186 3.709.212 3.709.243 3.709.282 3.709.331 3.709.046.464.066 3.245.081 3.709.088 3.709.095 3.709.103 3.709.112 3.709.122 3.709.134 3.709.148 3.709.164 3.709.183 3.709.205 3.709.232 3.71.264 3.709.303 3.709.351 3.709.413 3.709.491 3.709.152 1.02.185 2.689.286 3.709.329 3.709.384 3.709.452 3.709.542 3.709.66 3.709.822 3.709.05.198.538 3.511.692 3.709.864 3.709 1.112 3.709.504 1.391.61 2.318 1.213 3.709 1.639 3.709.246.463 1.404 3.246 2.227 3.709.078.107 2.344 3.602 1.365 1.576 1.766 2.133 1.943 1.827 2.031 1.882 1.678 1.244 3.591 2.465 3.827 2.157 3.211 1.552.498.204 3.709 1.496 3.709 1.289 2.26.72 1.449.404 3.709.987 3.709.874 3.709.78 3.5.664 3.918.667 3.709.573 3.709.522 3.709.477 3.709.439 3.709.404 3.709.373 2.662.254 1.047.093 3.709.322 3.709.3 3.709.281 3.709.262 3.709.247 3.71.232 3.709.218 3.709.206 3.709.195 3.709.185 3.709.174 3.709.166 3.709.158 3.709.15 3.709.144 3.709.136 3.709.131 3.709.124" clip-path="url(#a)"/><path fill="none" id="p" d="m381.74 340.96l-51.926-.625-40.799-.705-29.672-.709-25.963-.84-18.545-.792-14.836-.804-14.837-1.022-11.127-.969-11.127-1.216-7.418-.999-7.627-1.24-7.209-1.444-7.418-1.861-3.709-1.124-3.709-1.289-4.207-1.7-3.211-1.552-3.827-2.157-5.269-3.709-3.974-3.709-3.131-3.709-2.422-3.709-2.227-3.709-3.289-7.418-1.213-3.709-.61-2.318-.504-1.391-1.112-3.709-.864-3.709-.692-3.709-.588-3.709-.822-3.709-.66-3.709-.994-7.418-.713-7.418-.623-7.418-.904-7.418-.654-7.418-.701-11.128-.63-14.836-.52-18.545-.193-7.418-.613-7.418-.64-11.127-.562-14.836-.454-18.545-.401-25.963-.369-40.799-.112-18.545" clip-path="url(#a)"/></defs><g fill="#fff"><path d="m0 419.76h413.56v-419.76h-413.56z"/><path d="m7.2 412.56h381.88v-381.88h-381.88z"/></g><g fill="#add8e6"><path fill-opacity=".9" clip-path="url(#a)" d="m244.5 338.47l3.709.12 3.709.114 3.709.109 3.709.106 3.709.101 3.709.097 3.709.093 3.709.09 3.709.086 3.709.084 3.709.08 3.709.078 7.418.148 3.709.07 3.709.068 7.418.129 3.709.062 11.127.174 11.127.159 11.127.146 11.127.135 7.418.084 11.127.118 3.709.037v-302.93h-303.63l.021 3.709.022 3.709.022 3.709.023 3.709.024 3.709.026 3.709.027 3.709.028 3.709.03 3.709.031 3.709.033 3.709.035 3.709.037 3.709.039 3.709.041 3.709.044 3.709.046 3.709.049 3.709.053 3.709.056 3.709.061 3.709.065 3.709.07 3.709.076 3.709.082 3.709.09 3.709.098 3.709.108 3.709.119 3.709.132 3.709.147 3.709.165 3.709.186 3.709.212 3.709.243 3.709.282 3.709.331 3.709.046.464.066 3.245.081 3.709.088 3.709.095 3.709.103 3.709.112 3.709.122 3.709.134 3.709.148 3.709.164 3.709.183 3.709.205 3.709.232 3.71.264 3.709.303 3.709.351 3.709.413 3.709.491 3.709.152 1.02.185 2.689.286 3.709.329 3.709.384 3.709.452 3.709.542 3.709.66 3.709.822 3.709.05.198.538 3.511.692 3.709.864 3.709 1.112 3.709.504 1.391.61 2.318 1.213 3.709 1.639 3.709.246.463 1.404 3.246 2.227 3.709.078.107 2.344 3.602 1.365 1.576 1.766 2.133 1.943 1.827 2.031 1.882 1.678 1.244 3.591 2.465 3.827 2.157 3.211 1.552.498.204 3.709 1.496 3.709 1.289 2.26.72 1.449.404 3.709.987 3.709.874 3.709.78 3.5.664 3.918.667 3.709.573 3.709.522 3.709.477 3.709.439 3.709.404 3.709.373 2.662.254 1.047.093 3.709.322 3.709.3 3.709.281 3.709.262 3.709.247 3.71.232 3.709.218 3.709.206 3.709.195 3.709.185 3.709.174 3.709.166 3.709.158 3.709.15 3.709.144 3.709.136 3.709.131 3.709.124"/><use xlink:href="#o"/></g><use fill="#fff" xlink:href="#o"/><use stroke="#add8e6" xlink:href="#p"/><g stroke="#fff"><use xlink:href="#p"/><use xlink:href="#p"/></g><use stroke="#00f" xlink:href="#p"/><g fill="none" stroke="#000" stroke-linecap="square" stroke-width=".8"><path d="m7.2 344.02h381.88"/><path d="m75.74 412.56v-381.88"/></g><use x="14.544" y="344.02" xlink:href="#b"/><g transform="matrix(.1 0 0-.1 10.304 355.62)"><use xlink:href="#d"/><use x="36.08" xlink:href="#c"/></g><use x="75.74" y="344.02" xlink:href="#b"/><use x="136.94" y="344.02" xlink:href="#b"/><use xlink:href="#c" transform="matrix(.1 0 0-.1 134.63 355.62)"/><use x="198.14" y="344.02" xlink:href="#b"/><use xlink:href="#e" transform="matrix(.1 0 0-.1 195.48 355.62)"/><use x="259.34" y="344.02" xlink:href="#b"/><use xlink:href="#f" transform="matrix(.1 0 0-.1 256.82 355.62)"/><use x="320.54" y="344.02" xlink:href="#b"/><use xlink:href="#g" transform="matrix(.1 0 0-.1 318.04 355.62)"/><use x="381.74" y="344.02" xlink:href="#b"/><g transform="matrix(.1 0 0-.1 376.25 355.62)"><use xlink:href="#i"/><use x="63.62" xlink:href="#h"/></g><use x="29.844" y="344.02" xlink:href="#j"/><use x="45.14" y="344.02" xlink:href="#j"/><use x="60.44" y="344.02" xlink:href="#j"/><use x="91.04" y="344.02" xlink:href="#j"/><use x="106.34" y="344.02" xlink:href="#j"/><use x="121.64" y="344.02" xlink:href="#j"/><use x="152.24" y="344.02" xlink:href="#j"/><use x="167.54" y="344.02" xlink:href="#j"/><use x="182.84" y="344.02" xlink:href="#j"/><use x="213.44" y="344.02" xlink:href="#j"/><use x="228.74" y="344.02" xlink:href="#j"/><use x="244.04" y="344.02" xlink:href="#j"/><use x="274.64" y="344.02" xlink:href="#j"/><use x="289.94" y="344.02" xlink:href="#j"/><use x="305.24" y="344.02" xlink:href="#j"/><use x="335.84" y="344.02" xlink:href="#j"/><use x="351.14" y="344.02" xlink:href="#j"/><use x="366.44" y="344.02" xlink:href="#j"/><use xlink:href="#k" transform="matrix(.16 0 0-.16 397.08 343.89)"/><use x="75.74" y="405.22" xlink:href="#l"/><g transform="matrix(.1 0 0-.1 63.26 407.98)"><use xlink:href="#d"/><use x="36.08" xlink:href="#c"/></g><use x="75.74" y="344.02" xlink:href="#l"/><use x="75.74" y="282.82" xlink:href="#l"/><use xlink:href="#c" transform="matrix(.1 0 0-.1 67.11 285.58)"/><use x="75.74" y="221.63" xlink:href="#l"/><use xlink:href="#e" transform="matrix(.1 0 0-.1 66.43 224.38)"/><use x="75.74" y="160.43" xlink:href="#l"/><use xlink:href="#f" transform="matrix(.1 0 0-.1 66.71 163.19)"/><use x="75.74" y="99.23" xlink:href="#l"/><use xlink:href="#g" transform="matrix(.1 0 0-.1 66.743 101.99)"/><use x="75.74" y="38.03" xlink:href="#l"/><g transform="matrix(.1 0 0-.1 60.78 40.788)"><use xlink:href="#i"/><use x="63.62" xlink:href="#h"/></g><use x="75.74" y="389.92" xlink:href="#m"/><use x="75.74" y="374.62" xlink:href="#m"/><use x="75.74" y="359.32" xlink:href="#m"/><use x="75.74" y="328.72" xlink:href="#m"/><use x="75.74" y="313.42" xlink:href="#m"/><use x="75.74" y="298.12" xlink:href="#m"/><use x="75.74" y="267.52" xlink:href="#m"/><use x="75.74" y="252.22" xlink:href="#m"/><use x="75.74" y="236.92" xlink:href="#m"/><use x="75.74" y="206.33" xlink:href="#m"/><use x="75.74" y="191.03" xlink:href="#m"/><use x="75.74" y="175.73" xlink:href="#m"/><use x="75.74" y="145.13" xlink:href="#m"/><use x="75.74" y="129.83" xlink:href="#m"/><use x="75.74" y="114.53" xlink:href="#m"/><use x="75.74" y="83.928" xlink:href="#m"/><use x="75.74" y="68.63" xlink:href="#m"/><use x="75.74" y="53.33" xlink:href="#m"/><use xlink:href="#n" transform="matrix(.16 0 0-.16 71.823 19.243)"/></svg>