<svg width="702.5" xmlns="http://www.w3.org/2000/svg" height="530" viewBox="0 0 562 424" xmlns:xlink="http://www.w3.org/1999/xlink"><defs><clipPath id="a"><path d="m27.456 13.724h499.75v389.72h-499.75z"/></clipPath><path stroke="#000" id="b" stroke-width=".5" d="m0 0v-4"/><path id="c" d="m31.781 66.41q-7.609 0-11.453-7.5-3.828-7.484-3.828-22.531 0-14.984 3.828-22.484 3.844-7.5 11.453-7.5 7.672 0 11.5 7.5 3.844 7.5 3.844 22.484 0 15.05-3.844 22.531-3.828 7.5-11.5 7.5m0 7.813q12.266 0 18.734-9.703 6.469-9.688 6.469-28.14 0-18.406-6.469-28.11-6.469-9.688-18.734-9.688-12.25 0-18.719 9.688-6.469 9.703-6.469 28.11 0 18.453 6.469 28.14 6.469 9.703 18.719 9.703"/><path id="d" d="m10.688 12.406h10.313v-12.406h-10.313z"/><path id="e" d="m10.797 72.906h38.719v-8.312h-29.688v-17.859q2.141.734 4.281 1.094 2.156.359 4.313.359 12.203 0 19.328-6.688 7.141-6.688 7.141-18.11 0-11.766-7.328-18.297-7.328-6.516-20.656-6.516-4.594 0-9.359.781-4.75.781-9.828 2.344v9.922q4.391-2.391 9.08-3.563 4.688-1.172 9.906-1.172 8.453 0 13.375 4.437 4.938 4.438 4.938 12.06 0 7.609-4.938 12.05-4.922 4.453-13.375 4.453-3.953 0-7.891-.875-3.922-.875-8.02-2.734z"/><path id="f" d="m12.406 8.297h16.11v55.625l-17.531-3.516v8.984l17.438 3.516h9.859v-64.61h16.11v-8.297h-41.984z"/><path id="g" d="m19.19 8.297h34.422v-8.297h-46.28v8.297q5.609 5.813 15.297 15.594 9.703 9.797 12.188 12.641 4.734 5.313 6.609 9 1.891 3.688 1.891 7.25 0 5.813-4.078 9.469-4.078 3.672-10.625 3.672-4.641 0-9.797-1.609-5.141-1.609-11-4.891v9.969q5.953 2.391 11.125 3.609 5.188 1.219 9.484 1.219 11.328 0 18.06-5.672 6.734-5.656 6.734-15.12 0-4.5-1.688-8.531-1.672-4.02-6.125-9.484-1.219-1.422-7.766-8.187-6.531-6.766-18.453-18.922"/><path stroke="#000" id="h" stroke-width=".5" d="m0 0v-2"/><path id="i" d="m10.797 11.625q0 2.094.563 4.828.563 2.734 1.234 4.859.687 2.125 2.312 6.516 1.641 4.406 1.797 4.797 1.313 3.656 1.313 6 0 2.984-2.188 2.984-3.969 0-6.531-4.078-2.563-4.078-3.781-9.109-.188-.641-.828-.641h-1.172q-.828 0-.828.938v.281q1.609 5.969 4.922 10.578 3.328 4.609 8.406 4.609 3.563 0 6.03-2.344 2.469-2.344 2.469-5.953 0-1.859-.828-3.906-1.172-3.03-2.766-7.281-1.578-4.25-2.469-7.719-.875-3.453-.875-6.688 0-3.906 2.047-6.344 2.063-2.438 5.969-2.438 5.312 0 8.828 8.109-.141.578-.141 1.656 0 2.688.828 6.109l5.609 22.5q.344 1.328 1.562 2.266 1.219.953 2.641.953 1.172 0 2.078-.781.906-.781.906-2.047 0-.578-.109-.781l-5.609-22.313q-.969-4-.969-7.172 0-3.766 1.719-6.141 1.734-2.359 5.453-2.359 6.438 0 10.594 8.5 1.563 3.02 3.484 8.922 1.937 5.922 1.937 9.05 0 2.875-.937 4.563-.922 1.688-2.563 3.641-1.625 1.953-1.625 2.922 0 1.906 1.625 3.531 1.641 1.641 3.594 1.641 2.391 0 3.438-2.203 1.063-2.188 1.063-4.969 0-3.375-1.125-8.578-1.125-5.187-2.844-10.437-1.703-5.25-3.219-8.375-5.469-10.844-13.625-10.844-4.188 0-7.656 1.609-3.469 1.609-5.125 5.125-1.609-2.875-4.234-4.813-2.609-1.922-5.781-1.922-6.594 0-10.594 3.141-4 3.156-4 9.609"/><path stroke="#000" id="j" stroke-width=".5" d="m0 0h4"/><path stroke="#000" id="k" stroke-width=".5" d="m0 0h2"/><path id="l" d="m31-24.813q-5.563 4.406-9.594 10.09-4.02 5.688-6.594 12.141-2.563 6.438-3.828 13.469-1.266 7.03-1.266 14.11 0 7.172 1.266 14.203 1.266 7.03 3.875 13.531 2.625 6.5 6.672 12.156 4.063 5.672 9.469 9.922 0 .188.5.188h.922q.297 0 .531-.266.25-.266.25-.609 0-.438-.188-.641-4.891-4.781-8.141-10.25-3.25-5.469-5.234-11.656-1.969-6.172-2.844-12.797-.875-6.609-.875-13.781 0-31.781 16.984-48.3.297-.281.297-.828 0-.234-.266-.547-.266-.328-.516-.328h-.922q-.5 0-.5.188"/><path id="m" d="m6.5-25q-.891 0-.891.875 0 .438.203.641 17.09 16.703 17.09 48.48 0 31.781-16.906 48.3-.391.234-.391.828 0 .344.266.609.281.266.625.266h.922q.297 0 .484-.188 7.188-5.672 11.969-13.781 4.781-8.094 7-17.281 2.234-9.172 2.234-18.75 0-7.078-1.203-13.938-1.203-6.859-3.812-13.516-2.609-6.672-6.609-12.312-4-5.641-9.578-10.05-.188-.188-.484-.188z"/><path id="n" d="m9.281 0v3.516q12.5 0 12.5 3.172v52.5q-5.172-2.5-13.09-2.5v3.516q12.266 0 18.516 6.406h1.406q.344 0 .656-.281.328-.266.328-.609v-59.03q0-3.172 12.5-3.172v-3.516z"/><path id="o" d="m1.422-14.313q0 2.453 1.672 4.281 1.688 1.828 4.078 1.828 1.625 0 2.719-1 1.094-1 1.094-2.609 0-1.813-1.031-3.25-1.016-1.438-2.625-2.031 2.687-.828 8.391-.828 4.594 0 8.406 3.547 3.813 3.531 4.984 8.172l2.875 11.719q-5.422-5.516-11.281-5.516-4.297 0-7.359 2.188-3.047 2.203-4.656 5.859-1.609 3.672-1.609 7.781 0 4.578 1.875 9.609 1.891 5.03 5.281 9.328 3.391 4.297 7.781 6.859 4.406 2.563 9.281 2.563 2.938 0 5.281-1.609 2.344-1.609 3.703-4.297.984 3.906 4.297 3.906 1.266 0 2.141-.766.891-.75.891-2.02 0-.297-.031-.453-.016-.141-.063-.328l-11.438-45.41q-.781-3.125-2.875-5.719-2.094-2.594-4.938-4.328-2.828-1.734-6.203-2.703-3.359-.984-6.484-.984-5.719 0-9.937 1.109-4.219 1.094-4.219 5.094m19.484 16.906q6.391 0 12.594 8.781l5.516 21.828q-.688 3.469-2.734 5.938-2.047 2.469-5.172 2.469-3.328 0-6.281-2.719-2.953-2.703-4.906-6.469-1.859-3.609-3.594-10.375-1.734-6.766-1.734-10.672 0-3.422 1.562-6.109 1.563-2.672 4.75-2.672"/></defs><g fill="#fff"><path d="m0 424.57h562.57v-424.57h-562.57z"/><path d="m27.456 403.45h499.75v-389.72h-499.75z"/></g><g fill="none" stroke-linecap="square"><path stroke="#32cd32" stroke-width="2" clip-path="url(#a)" d="m37.07 21.22l4.805 22.481 4.673 20.738 4.677 19.699 4.751 18.97 4.311 16.344 4.555 16.409 4.589 15.675 4.305 13.955 4.479 13.787 4.21 12.302 4.714 13.05 4.388 11.498 4.265 10.596 4.661 10.958 4.38 9.733 4.551 9.558 4.22 8.383 4.353 8.183 4.417 7.844 4.01 6.742 4.198 6.684 4.874 7.306 4.712 6.622 4.082 5.403 4.457 5.564 5.02 5.875 4.74 5.175 4.656 4.758 4.909 4.684 5.02 4.456 4.274 3.547 4.738 3.68 5.209 3.757 5.429 3.613 5.473 3.352 4.994 2.821 5.619 2.921 5.892 2.796 6.02 2.597 5.445 2.139 5.907 2.113 6.372 2.056 6.611 1.912 7.569 1.936 7.211 1.62 8.092 1.585 9.04 1.516 9.739 1.371 9.198 1.079 10.878 1.05 11.983.919 12.192.728 14.532.652 14.346.467 22.261.476 24.22.293 36.21.201 64.73.089 10.358.004"/><g stroke="#000" stroke-width=".8"><path d="m27.456 395.95h499.75"/><path d="m37.07 403.45v-389.72"/></g></g><use x="37.07" y="395.95" xlink:href="#b"/><use x="122.88" y="395.95" xlink:href="#b"/><g transform="matrix(.18 0 0-.18 104.22 413.63)"><use xlink:href="#c"/><use x="63.62" xlink:href="#d"/><use x="95.41" xlink:href="#c"/><use x="159.03" xlink:href="#e"/></g><use x="208.68" y="395.95" xlink:href="#b"/><g transform="matrix(.18 0 0-.18 195.8 413.63)"><use xlink:href="#c"/><use x="63.62" xlink:href="#d"/><use x="95.41" xlink:href="#f"/></g><use x="294.49" y="395.95" xlink:href="#b"/><g transform="matrix(.18 0 0-.18 275.83 413.63)"><use xlink:href="#c"/><use x="63.62" xlink:href="#d"/><use x="95.41" xlink:href="#f"/><use x="159.03" xlink:href="#e"/></g><use x="380.3" y="395.95" xlink:href="#b"/><g transform="matrix(.18 0 0-.18 367.48 413.63)"><use xlink:href="#c"/><use x="63.62" xlink:href="#d"/><use x="95.41" xlink:href="#g"/></g><use x="466.11" y="395.95" xlink:href="#b"/><g transform="matrix(.18 0 0-.18 447.45 413.63)"><use xlink:href="#c"/><use x="63.62" xlink:href="#d"/><use x="95.41" xlink:href="#g"/><use x="159.03" xlink:href="#e"/></g><use x="54.23" y="395.95" xlink:href="#h"/><use x="71.39" y="395.95" xlink:href="#h"/><use x="88.55" y="395.95" xlink:href="#h"/><use x="105.71" y="395.95" xlink:href="#h"/><use x="140.04" y="395.95" xlink:href="#h"/><use x="157.2" y="395.95" xlink:href="#h"/><use x="174.36" y="395.95" xlink:href="#h"/><use x="191.52" y="395.95" xlink:href="#h"/><use x="225.85" y="395.95" xlink:href="#h"/><use x="243.01" y="395.95" xlink:href="#h"/><use x="260.17" y="395.95" xlink:href="#h"/><use x="277.33" y="395.95" xlink:href="#h"/><use x="311.66" y="395.95" xlink:href="#h"/><use x="328.82" y="395.95" xlink:href="#h"/><use x="345.98" y="395.95" xlink:href="#h"/><use x="363.14" y="395.95" xlink:href="#h"/><use x="397.46" y="395.95" xlink:href="#h"/><use x="414.63" y="395.95" xlink:href="#h"/><use x="431.79" y="395.95" xlink:href="#h"/><use x="448.95" y="395.95" xlink:href="#h"/><use x="483.27" y="395.95" xlink:href="#h"/><use x="500.44" y="395.95" xlink:href="#h"/><use x="517.6" y="395.95" xlink:href="#h"/><use xlink:href="#i" transform="matrix(.28 0 0-.28 535.21 395.75)"/><use x="37.07" y="395.95" xlink:href="#j"/><use x="37.07" y="302.27" xlink:href="#j"/><g transform="matrix(.18 0 0-.18 7.2 307.24)"><use xlink:href="#c"/><use x="63.62" xlink:href="#d"/><use x="95.41" xlink:href="#e"/></g><use x="37.07" y="208.59" xlink:href="#j"/><use xlink:href="#f" transform="matrix(.18 0 0-.18 25.25 213.55)"/><use x="37.07" y="114.9" xlink:href="#j"/><g transform="matrix(.18 0 0-.18 7.99 119.87)"><use xlink:href="#f"/><use x="63.62" xlink:href="#d"/><use x="95.41" xlink:href="#e"/></g><use x="37.07" y="21.22" xlink:href="#j"/><use xlink:href="#g" transform="matrix(.18 0 0-.18 24.736 26.19)"/><use x="37.07" y="377.21" xlink:href="#k"/><use x="37.07" y="358.48" xlink:href="#k"/><use x="37.07" y="339.74" xlink:href="#k"/><use x="37.07" y="321" xlink:href="#k"/><use x="37.07" y="302.27" xlink:href="#k"/><use x="37.07" y="283.53" xlink:href="#k"/><use x="37.07" y="264.79" xlink:href="#k"/><use x="37.07" y="246.06" xlink:href="#k"/><use x="37.07" y="227.32" xlink:href="#k"/><use x="37.07" y="208.59" xlink:href="#k"/><use x="37.07" y="189.85" xlink:href="#k"/><use x="37.07" y="171.11" xlink:href="#k"/><use x="37.07" y="152.38" xlink:href="#k"/><use x="37.07" y="133.64" xlink:href="#k"/><use x="37.07" y="114.9" xlink:href="#k"/><use x="37.07" y="96.17" xlink:href="#k"/><use x="37.07" y="77.43" xlink:href="#k"/><use x="37.07" y="58.692" xlink:href="#k"/><use x="37.07" y="39.955" xlink:href="#k"/><use x="37.07" y="21.22" xlink:href="#k"/><path fill="#e6e6e6" stroke="#000" d="m402.27 52.696h95.5v-45.496h-95.5z"/><path fill="none" stroke="#32cd32" stroke-linecap="square" stroke-width="2" d="m419.77 27.446h-13.75"/><g transform="matrix(.25 0 0-.25 426.02 36.2)"><use xlink:href="#o"/><use xlink:href="#n" transform="matrix(.7 0 0 .7 47.705-25.509)"/><use xlink:href="#l" transform="translate(97.71)"/><use xlink:href="#i" transform="translate(136.52)"/><use xlink:href="#m" transform="translate(208.01)"/></g></svg>