<svg width="612.5" xmlns="http://www.w3.org/2000/svg" height="456.25" viewBox="0 0 490 365" xmlns:xlink="http://www.w3.org/1999/xlink"><defs><clipPath id="a"><path d="m8.31 7.2h455.37v341.29h-455.37z"/></clipPath><path stroke="#000" id="b" stroke-width=".5" d="m0 0v-4"/><path id="c" d="m31.781 66.41q-7.609 0-11.453-7.5-3.828-7.484-3.828-22.531 0-14.984 3.828-22.484 3.844-7.5 11.453-7.5 7.672 0 11.5 7.5 3.844 7.5 3.844 22.484 0 15.05-3.844 22.531-3.828 7.5-11.5 7.5m0 7.813q12.266 0 18.734-9.703 6.469-9.688 6.469-28.14 0-18.406-6.469-28.11-6.469-9.688-18.734-9.688-12.25 0-18.719 9.688-6.469 9.703-6.469 28.11 0 18.453 6.469 28.14 6.469 9.703 18.719 9.703"/><path id="d" d="m12.406 8.297h16.11v55.625l-17.531-3.516v8.984l17.438 3.516h9.859v-64.61h16.11v-8.297h-41.984z"/><path id="e" d="m4.891 31.391h26.312v-8h-26.312z"/><path id="f" d="m10.797 72.906h38.719v-8.312h-29.688v-17.859q2.141.734 4.281 1.094 2.156.359 4.313.359 12.203 0 19.328-6.688 7.141-6.688 7.141-18.11 0-11.766-7.328-18.297-7.328-6.516-20.656-6.516-4.594 0-9.359.781-4.75.781-9.828 2.344v9.922q4.391-2.391 9.08-3.563 4.688-1.172 9.906-1.172 8.453 0 13.375 4.437 4.938 4.438 4.938 12.06 0 7.609-4.938 12.05-4.922 4.453-13.375 4.453-3.953 0-7.891-.875-3.922-.875-8.02-2.734z"/><path stroke="#000" id="g" stroke-width=".5" d="m0 0v-2"/><path id="h" d="m7.813 2.875q1.766-1.359 4.984-1.359 3.125 0 5.516 3 2.391 3 3.266 6.562l4.547 17.734q1.078 4.828 1.078 6.594 0 2.484-1.391 4.344-1.391 1.859-3.891 1.859-3.172 0-5.953-1.984-2.781-1.984-4.688-5.03-1.906-3.047-2.687-6.172-.188-.641-.781-.641h-1.219q-.781 0-.781.938v.281q.969 3.719 3.313 7.25 2.344 3.547 5.734 5.734 3.406 2.203 7.266 2.203 3.656 0 6.609-1.953 2.953-1.953 4.172-5.313 1.719 3.063 4.375 5.156 2.656 2.109 5.828 2.109 2.156 0 4.391-.766 2.25-.75 3.672-2.313 1.422-1.563 1.422-3.906 0-2.531-1.641-4.375-1.641-1.828-4.172-1.828-1.609 0-2.687 1.031-1.078 1.031-1.078 2.594 0 2.094 1.438 3.672 1.453 1.594 3.453 1.891-1.812 1.422-4.984 1.422-3.219 0-5.594-2.984-2.359-2.984-3.344-6.641l-4.391-17.672q-1.078-4.02-1.078-6.594 0-2.547 1.438-4.375 1.438-1.828 3.844-1.828 4.688 0 8.359 4.125 3.688 4.125 4.859 9.06.203.578.781.578h1.234q.391 0 .625-.266.25-.266.25-.609 0-.094-.094-.297-1.422-5.953-5.969-10.594-4.531-4.641-10.25-4.641-3.656 0-6.609 1.969-2.953 1.984-4.188 5.359-1.563-2.938-4.328-5.141-2.75-2.188-5.875-2.188-2.141 0-4.422.766-2.266.75-3.688 2.312-1.406 1.563-1.406 3.953 0 2.344 1.625 4.266 1.641 1.938 4.094 1.938 1.656 0 2.781-1 1.125-1 1.125-2.609 0-2.109-1.406-3.672-1.391-1.563-3.484-1.953"/><path stroke="#000" id="i" stroke-width=".5" d="m0 0h4"/><path id="j" d="m10.688 12.406h10.313v-12.406h-10.313z"/><path id="k" d="m19.19 8.297h34.422v-8.297h-46.28v8.297q5.609 5.813 15.297 15.594 9.703 9.797 12.188 12.641 4.734 5.313 6.609 9 1.891 3.688 1.891 7.25 0 5.813-4.078 9.469-4.078 3.672-10.625 3.672-4.641 0-9.797-1.609-5.141-1.609-11-4.891v9.969q5.953 2.391 11.125 3.609 5.188 1.219 9.484 1.219 11.328 0 18.06-5.672 6.734-5.656 6.734-15.12 0-4.5-1.688-8.531-1.672-4.02-6.125-9.484-1.219-1.422-7.766-8.187-6.531-6.766-18.453-18.922"/><path id="l" d="m40.578 39.31q7.078-1.516 11.05-6.313 3.984-4.781 3.984-11.813 0-10.781-7.422-16.703-7.422-5.906-21.09-5.906-4.578 0-9.438.906-4.859.906-10.03 2.719v9.516q4.094-2.391 8.969-3.609 4.891-1.219 10.219-1.219 9.266 0 14.13 3.656 4.859 3.656 4.859 10.641 0 6.453-4.516 10.08-4.516 3.641-12.562 3.641h-8.5v8.109h8.891q7.266 0 11.125 2.906 3.859 2.906 3.859 8.375 0 5.609-3.984 8.609-3.969 3.02-11.391 3.02-4.063 0-8.703-.891-4.641-.875-10.203-2.719v8.781q5.625 1.562 10.531 2.344 4.906.781 9.25.781 11.234 0 17.766-5.109 6.547-5.094 6.547-13.781 0-6.06-3.469-10.234-3.469-4.172-9.859-5.781"/><path id="m" d="m37.797 64.31l-24.906-38.922h24.906zm-2.594 8.594h12.406v-47.52h10.406v-8.203h-10.406v-17.188h-9.813v17.188h-32.906v9.516z"/><path id="n" d="m33.02 40.38q-6.641 0-10.531-4.547-3.875-4.531-3.875-12.438 0-7.859 3.875-12.438 3.891-4.562 10.531-4.562 6.641 0 10.516 4.562 3.875 4.578 3.875 12.438 0 7.906-3.875 12.438-3.875 4.547-10.516 4.547m19.578 30.922v-8.984q-3.719 1.75-7.5 2.672-3.781.938-7.5.938-9.766 0-14.922-6.594-5.141-6.594-5.875-19.922 2.875 4.25 7.219 6.516 4.359 2.266 9.578 2.266 10.984 0 17.359-6.672 6.375-6.656 6.375-18.12 0-11.234-6.641-18.03-6.641-6.781-17.672-6.781-12.656 0-19.344 9.688-6.688 9.703-6.688 28.11 0 17.281 8.203 27.563 8.203 10.281 22.02 10.281 3.719 0 7.5-.734 3.781-.734 7.891-2.188"/><path id="o" d="m8.203 72.906h46.875v-4.203l-26.469-68.7h-10.297l24.906 64.59h-35.02z"/><path id="p" d="m31.781 34.625q-7.03 0-11.06-3.766-4.02-3.766-4.02-10.344 0-6.594 4.02-10.359 4.03-3.766 11.06-3.766 7.03 0 11.08 3.781 4.063 3.797 4.063 10.344 0 6.578-4.03 10.344-4.02 3.766-11.11 3.766m-9.859 4.188q-6.344 1.563-9.891 5.906-3.531 4.359-3.531 10.609 0 8.734 6.219 13.813 6.234 5.078 17.06 5.078 10.891 0 17.09-5.078 6.203-5.078 6.203-13.813 0-6.25-3.547-10.609-3.531-4.344-9.828-5.906 7.125-1.656 11.09-6.5 3.984-4.828 3.984-11.797 0-10.609-6.469-16.281-6.469-5.656-18.531-5.656-12.05 0-18.531 5.656-6.469 5.672-6.469 16.281 0 6.969 4 11.797 4.02 4.844 11.141 6.5m-3.609 15.578q0-5.656 3.531-8.828 3.547-3.172 9.937-3.172 6.359 0 9.938 3.172 3.594 3.172 3.594 8.828 0 5.672-3.594 8.844-3.578 3.172-9.938 3.172-6.391 0-9.937-3.172-3.531-3.172-3.531-8.844"/><path stroke="#000" id="q" stroke-width=".5" d="m0 0h2"/><path id="r" d="m31-24.813q-5.563 4.406-9.594 10.09-4.02 5.688-6.594 12.141-2.563 6.438-3.828 13.469-1.266 7.03-1.266 14.11 0 7.172 1.266 14.203 1.266 7.03 3.875 13.531 2.625 6.5 6.672 12.156 4.063 5.672 9.469 9.922 0 .188.5.188h.922q.297 0 .531-.266.25-.266.25-.609 0-.438-.188-.641-4.891-4.781-8.141-10.25-3.25-5.469-5.234-11.656-1.969-6.172-2.844-12.797-.875-6.609-.875-13.781 0-31.781 16.984-48.3.297-.281.297-.828 0-.234-.266-.547-.266-.328-.516-.328h-.922q-.5 0-.5.188"/><path id="s" d="m6.5-25q-.891 0-.891.875 0 .438.203.641 17.09 16.703 17.09 48.48 0 31.781-16.906 48.3-.391.234-.391.828 0 .344.266.609.281.266.625.266h.922q.297 0 .484-.188 7.188-5.672 11.969-13.781 4.781-8.094 7-17.281 2.234-9.172 2.234-18.75 0-7.078-1.203-13.938-1.203-6.859-3.812-13.516-2.609-6.672-6.609-12.312-4-5.641-9.578-10.05-.188-.188-.484-.188z"/><path id="t" d="m10.688 11.281q0 2.25.531 4.922.547 2.688 1.078 4.422.547 1.734 2.453 6.766 1.906 5.03 1.953 5.234 1.313 3.656 1.313 6 0 2.984-2.188 2.984-3.969 0-6.531-4.078-2.563-4.078-3.781-9.109-.188-.641-.828-.641h-1.172q-.828 0-.828.938v.281q1.609 5.969 4.922 10.578 3.328 4.609 8.406 4.609 3.563 0 6.03-2.344 2.469-2.344 2.469-5.953 0-1.859-.828-3.906-1.953-5.078-3.078-8.141-1.125-3.047-2.078-6.828-.953-3.781-.953-7 0-3.766 1.734-6.141 1.734-2.359 5.391-2.359 6.938 0 12.5 10.687 1.766 3.469 3.328 8.156 1.563 4.688 1.563 7.625 0 3.02-.984 4.703-.969 1.688-2.531 3.516-1.563 1.828-1.563 2.906 0 1.953 1.609 3.563 1.609 1.609 3.563 1.609 2.391 0 3.438-2.203 1.063-2.188 1.063-4.969 0-3.313-.953-7.906-.953-4.594-2.641-9.531-1.688-4.922-3.109-7.75-6.578-13.05-15.375-13.05-6.297 0-10.11 3.141-3.813 3.156-3.813 9.266"/><path id="u" d="m4.984 0v2.688q0 .25.188.531l15.531 17.187q3.516 3.813 5.703 6.391 2.203 2.594 4.344 5.969 2.156 3.375 3.406 6.859 1.25 3.484 1.25 7.391 0 4.109-1.516 7.844-1.516 3.734-4.516 5.984-3 2.25-7.25 2.25-4.344 0-7.813-2.625-3.469-2.609-4.891-6.75.391.094 1.078.094 2.25 0 3.828-1.516 1.594-1.516 1.594-3.906 0-2.297-1.594-3.891-1.578-1.578-3.828-1.578-2.344 0-3.938 1.625-1.578 1.641-1.578 3.844 0 3.766 1.406 7.05 1.422 3.297 4.078 5.859 2.672 2.578 6.02 3.937 3.344 1.375 7.094 1.375 5.719 0 10.641-2.422 4.937-2.422 7.812-6.844 2.891-4.406 2.891-10.328 0-4.344-1.906-8.25-1.906-3.906-4.891-7.109-2.969-3.187-7.609-7.25-4.641-4.047-6.094-5.406l-11.328-10.891h9.609q7.078 0 11.844.109 4.766.125 5.05.375 1.172 1.266 2.406 9.234h2.922l-2.828-17.828z"/><path id="v" d="m4.203 15.188q0 6 3.953 10.609 3.953 4.625 10.156 7.703l-3.719 2.391q-3.406 2.25-5.563 5.984-2.141 3.734-2.141 7.828 0 4.797 2.516 8.641 2.516 3.859 6.688 6.06 4.172 2.203 8.906 2.203 4.438 0 8.563-1.813 4.141-1.812 6.797-5.187 2.656-3.359 2.656-8 0-3.359-1.594-6.25-1.578-2.875-4.344-5.172-2.75-2.297-5.875-3.906l5.719-3.656q3.953-2.594 6.359-6.797 2.422-4.203 2.422-8.828 0-5.422-2.906-9.875-2.906-4.438-7.688-6.891-4.781-2.437-10.11-2.437-5.172 0-9.984 2.109-4.813 2.094-7.812 6.078-3 3.984-3 9.203m5.422 0q0-3.953 2.172-7.234 2.172-3.266 5.734-5.125 3.563-1.844 7.469-1.844 5.813 0 10.547 3.391 4.734 3.391 4.734 9 0 1.906-.766 3.781-.75 1.891-2.094 3.422-1.344 1.547-3 2.516l-13.422 8.687q-3.125-1.656-5.75-4.203-2.609-2.531-4.125-5.703-1.5-3.172-1.5-6.688m6.875 30.516l12.11-7.813q4.203 2.438 6.891 5.906 2.688 3.469 2.688 7.813 0 3.375-1.891 6.172-1.875 2.813-4.906 4.375-3.02 1.563-6.484 1.563-3.03 0-6.109-1.172-3.078-1.172-5.078-3.5-2-2.313-2-5.438 0-4.688 4.781-7.906"/><path id="w" d="m25-2.203q-12.25 0-16.672 10.08-4.422 10.09-4.422 24.02 0 8.688 1.578 16.344 1.594 7.672 6.297 13.02 4.719 5.359 13.219 5.359 6.594 0 10.781-3.234 4.203-3.219 6.406-8.328 2.203-5.094 3-10.938.813-5.828.813-12.219 0-8.594-1.594-16.09-1.578-7.5-6.219-12.75-4.641-5.25-13.188-5.25m0 2.594q5.563 0 8.297 5.703 2.734 5.719 3.375 12.656.641 6.938.641 14.75 0 7.516-.641 13.859-.641 6.359-3.359 11.5-2.703 5.156-8.313 5.156-5.656 0-8.391-5.188-2.734-5.172-3.375-11.5-.641-6.313-.641-13.828 0-5.563.266-10.5.281-4.938 1.453-10.188 1.172-5.25 3.781-8.844 2.609-3.578 6.906-3.578"/><path id="x" d="m8.406 5.516q0 2.25 1.656 3.859 1.656 1.609 3.859 1.609 1.359 0 2.672-.734 1.328-.734 2.062-2.047.734-1.313.734-2.688 0-2.188-1.625-3.859-1.609-1.656-3.844-1.656-2.203 0-3.859 1.656-1.656 1.672-1.656 3.859"/><path id="y" d="m7.516 13.281q-.828 0-1.375.625-.531.641-.531 1.375 0 .828.531 1.406.547.594 1.375.594h62.797q.734 0 1.266-.594.547-.578.547-1.406 0-.734-.547-1.375-.531-.625-1.266-.625zm0 19.438q-.828 0-1.375.578-.531.594-.531 1.422 0 .734.531 1.359.547.641 1.375.641h62.797q.734 0 1.266-.641.547-.625.547-1.359 0-.828-.547-1.422-.531-.578-1.266-.578z"/></defs><g fill="#fff"><path d="m0 365.71h490.48v-365.71h-490.48z"/><path d="m8.31 348.49h455.37v-341.29h-455.37z"/></g><g fill="none" stroke-linecap="square"><path stroke="#008000" clip-path="url(#a)" d="m17.07 338.69l21.06-.637 19.744-.782 15.58-.794 16.632-1.089 12.975-1.086 11.87-1.241 9.131-1.165 8.863-1.352 6.467-1.157 6.77-1.396 7.215-1.736 6.508-1.824 7-2.278 5.403-2 7.963-3.328 9.02-3.972 2.036-.795 3.141-.973 4.074-.319 1.383.326.965.426 1.688 1.254 1.689 2.107 1.334 2.45 1.334 3.28.867 2.608 3.181 11.775 1.703 5.282 1.095 1.568 1.094-.362.956-1.836.956-2.909 1.651-6.199 1.927-6.775 1.927-4.597 1.35-1.609 1.349-.267.519.244 1.528 1.775 1.528 3.205 1.356 3.812 3.56 11.456 1.397 3.187 1.231.968 1.231-1.626 1.073-4.173.537-3.21.536-4.02 1.13-11.27.887-11.569.887-13.907 1.774-34.03 2.845-65.753 2.118-50.4 1.925-41.42 1.441-26.289 1.521-22.351.761-8.942.811-7.87.811-6.169.811-4.516.811-2.935.748-1.385.863-.135.862 1.297.863 2.579.862 3.71 1.26 7.139 1.907 13.785 2.929 25.365 5.708 52.33 2.488 21.1 2.155 16.836 2.622 18.573 2.642 16.614 3.471 18.855 3.623 16.528 2.118 8.369 2.882 10.07 1.86 5.787 2.081 5.89 3.299 8.23 1.532 3.415 3.986 7.854 4.092 6.76 1.925 2.798 2.781 3.672 3.239 3.793 2.266 2.384 4.1 3.83 4.545 3.632 1.193.862 3.612 2.405 3.144 1.871 5.775 2.986 3.988 1.775 3.728 1.481 5.652 1.967 6.07 1.803 5.93 1.509 6.481 1.415 8.436 1.549 6.607 1.026 8.917 1.177 10.662 1.158 12.13 1.067 14.32 1 16.574.906"/><path stroke="#f00" clip-path="url(#a)" d="m17.07 13.763h437.86"/><g stroke="#000" stroke-width=".8"><path d="m8.31 341.93h455.37"/><path d="m236 348.49v-341.29"/></g></g><use x="17.07" y="341.93" xlink:href="#b"/><g transform="matrix(.13 0 0-.13 7.2 355.81)"><use xlink:href="#e"/><use x="36.08" xlink:href="#d"/><use x="99.71" xlink:href="#c"/></g><use x="126.53" y="341.93" xlink:href="#b"/><g transform="matrix(.13 0 0-.13 120.94 355.81)"><use xlink:href="#e"/><use x="36.08" xlink:href="#f"/></g><use x="236" y="341.93" xlink:href="#b"/><use x="345.46" y="341.93" xlink:href="#b"/><use xlink:href="#f" transform="matrix(.13 0 0-.13 342.39 355.81)"/><use x="454.93" y="341.93" xlink:href="#b"/><g transform="matrix(.13 0 0-.13 447.8 355.81)"><use xlink:href="#d"/><use x="63.62" xlink:href="#c"/></g><use x="38.96" y="341.93" xlink:href="#g"/><use x="60.853" y="341.93" xlink:href="#g"/><use x="82.75" y="341.93" xlink:href="#g"/><use x="104.64" y="341.93" xlink:href="#g"/><use x="148.42" y="341.93" xlink:href="#g"/><use x="170.32" y="341.93" xlink:href="#g"/><use x="192.21" y="341.93" xlink:href="#g"/><use x="214.1" y="341.93" xlink:href="#g"/><use x="257.89" y="341.93" xlink:href="#g"/><use x="279.78" y="341.93" xlink:href="#g"/><use x="301.67" y="341.93" xlink:href="#g"/><use x="323.57" y="341.93" xlink:href="#g"/><use x="367.35" y="341.93" xlink:href="#g"/><use x="389.25" y="341.93" xlink:href="#g"/><use x="411.14" y="341.93" xlink:href="#g"/><use x="433.03" y="341.93" xlink:href="#g"/><use xlink:href="#h" transform="matrix(.2 0 0-.2 471.68 341.77)"/><use x="236" y="341.93" xlink:href="#i"/><use x="236" y="301.91" xlink:href="#i"/><g transform="matrix(.13 0 0-.13 213.38 305.5)"><use xlink:href="#c"/><use x="63.62" xlink:href="#j"/><use x="95.41" xlink:href="#d"/></g><use x="236" y="261.89" xlink:href="#i"/><g transform="matrix(.13 0 0-.13 213.48 265.48)"><use xlink:href="#c"/><use x="63.62" xlink:href="#j"/><use x="95.41" xlink:href="#k"/></g><use x="236" y="221.87" xlink:href="#i"/><g transform="matrix(.13 0 0-.13 213.22 225.46)"><use xlink:href="#c"/><use x="63.62" xlink:href="#j"/><use x="95.41" xlink:href="#l"/></g><use x="236" y="181.85" xlink:href="#i"/><g transform="matrix(.13 0 0-.13 212.91 185.44)"><use xlink:href="#c"/><use x="63.62" xlink:href="#j"/><use x="95.41" xlink:href="#m"/></g><use x="236" y="141.83" xlink:href="#i"/><g transform="matrix(.13 0 0-.13 213.31 145.42)"><use xlink:href="#c"/><use x="63.62" xlink:href="#j"/><use x="95.41" xlink:href="#f"/></g><use x="236" y="101.81" xlink:href="#i"/><g transform="matrix(.13 0 0-.13 213 105.4)"><use xlink:href="#c"/><use x="63.62" xlink:href="#j"/><use x="95.41" xlink:href="#n"/></g><use x="236" y="61.788" xlink:href="#i"/><g transform="matrix(.13 0 0-.13 213.29 65.38)"><use xlink:href="#c"/><use x="63.62" xlink:href="#j"/><use x="95.41" xlink:href="#o"/></g><use x="236" y="21.767" xlink:href="#i"/><g transform="matrix(.13 0 0-.13 213.07 25.355)"><use xlink:href="#c"/><use x="63.62" xlink:href="#j"/><use x="95.41" xlink:href="#p"/></g><use x="236" y="333.93" xlink:href="#q"/><use x="236" y="325.92" xlink:href="#q"/><use x="236" y="317.92" xlink:href="#q"/><use x="236" y="309.92" xlink:href="#q"/><use x="236" y="293.91" xlink:href="#q"/><use x="236" y="285.9" xlink:href="#q"/><use x="236" y="277.9" xlink:href="#q"/><use x="236" y="269.9" xlink:href="#q"/><use x="236" y="253.89" xlink:href="#q"/><use x="236" y="245.88" xlink:href="#q"/><use x="236" y="237.88" xlink:href="#q"/><use x="236" y="229.87" xlink:href="#q"/><use x="236" y="213.87" xlink:href="#q"/><use x="236" y="205.86" xlink:href="#q"/><use x="236" y="197.86" xlink:href="#q"/><use x="236" y="189.85" xlink:href="#q"/><use x="236" y="173.85" xlink:href="#q"/><use x="236" y="165.84" xlink:href="#q"/><use x="236" y="157.84" xlink:href="#q"/><use x="236" y="149.83" xlink:href="#q"/><use x="236" y="133.83" xlink:href="#q"/><use x="236" y="125.82" xlink:href="#q"/><use x="236" y="117.82" xlink:href="#q"/><use x="236" y="109.81" xlink:href="#q"/><use x="236" y="93.8" xlink:href="#q"/><use x="236" y="85.8" xlink:href="#q"/><use x="236" y="77.8" xlink:href="#q"/><use x="236" y="69.792" xlink:href="#q"/><use x="236" y="53.784" xlink:href="#q"/><use x="236" y="45.78" xlink:href="#q"/><use x="236" y="37.776" xlink:href="#q"/><use x="236" y="29.772" xlink:href="#q"/><use x="236" y="13.763" xlink:href="#q"/><path fill="#e6e6e6" stroke="#000" d="m17.31 66.56h83.52v-50.36h-83.52z"/><path fill="none" stroke="#008000" stroke-linecap="square" d="m29.91 30.777h-9.9"/><g transform="matrix(.18 0 0-.18 34.41 37.08)"><use xlink:href="#t"/><use xlink:href="#r" transform="translate(48.39)"/><use xlink:href="#h" transform="translate(87.21)"/><use xlink:href="#s" transform="translate(144.29)"/></g><path fill="none" stroke="#f00" stroke-linecap="square" d="m29.91 49.31h-9.9"/><g transform="matrix(.18 0 0-.18 34.41 55.614)"><use xlink:href="#t" transform="translate(0 .391)"/><use xlink:href="#y" transform="translate(65.947.391)"/><use xlink:href="#w" transform="translate(150.01.391)"/><use xlink:href="#x" transform="translate(200.01.391)"/><use xlink:href="#v" transform="translate(228.55.391)"/><use xlink:href="#u" transform="translate(278.55.391)"/></g></svg>