<svg width="593.75" xmlns="http://www.w3.org/2000/svg" height="525" viewBox="0 0 475 420" xmlns:xlink="http://www.w3.org/1999/xlink"><defs><clipPath id="a"><path d="m7.2 7.2h444.14v399.73h-444.14z"/></clipPath><path stroke="#000" id="b" stroke-width=".5" d="m0 0v-4"/><path id="c" d="m31.781 66.41q-7.609 0-11.453-7.5-3.828-7.484-3.828-22.531 0-14.984 3.828-22.484 3.844-7.5 11.453-7.5 7.672 0 11.5 7.5 3.844 7.5 3.844 22.484 0 15.05-3.844 22.531-3.828 7.5-11.5 7.5m0 7.813q12.266 0 18.734-9.703 6.469-9.688 6.469-28.14 0-18.406-6.469-28.11-6.469-9.688-18.734-9.688-12.25 0-18.719 9.688-6.469 9.703-6.469 28.11 0 18.453 6.469 28.14 6.469 9.703 18.719 9.703"/><path id="d" d="m12.406 8.297h16.11v55.625l-17.531-3.516v8.984l17.438 3.516h9.859v-64.61h16.11v-8.297h-41.984z"/><path id="e" d="m4.891 31.391h26.312v-8h-26.312z"/><path id="f" d="m10.797 72.906h38.719v-8.312h-29.688v-17.859q2.141.734 4.281 1.094 2.156.359 4.313.359 12.203 0 19.328-6.688 7.141-6.688 7.141-18.11 0-11.766-7.328-18.297-7.328-6.516-20.656-6.516-4.594 0-9.359.781-4.75.781-9.828 2.344v9.922q4.391-2.391 9.08-3.563 4.688-1.172 9.906-1.172 8.453 0 13.375 4.437 4.938 4.438 4.938 12.06 0 7.609-4.938 12.05-4.922 4.453-13.375 4.453-3.953 0-7.891-.875-3.922-.875-8.02-2.734z"/><path stroke="#000" id="g" stroke-width=".5" d="m0 0v-2"/><path id="h" d="m7.813 2.875q1.766-1.359 4.984-1.359 3.125 0 5.516 3 2.391 3 3.266 6.562l4.547 17.734q1.078 4.828 1.078 6.594 0 2.484-1.391 4.344-1.391 1.859-3.891 1.859-3.172 0-5.953-1.984-2.781-1.984-4.688-5.03-1.906-3.047-2.687-6.172-.188-.641-.781-.641h-1.219q-.781 0-.781.938v.281q.969 3.719 3.313 7.25 2.344 3.547 5.734 5.734 3.406 2.203 7.266 2.203 3.656 0 6.609-1.953 2.953-1.953 4.172-5.313 1.719 3.063 4.375 5.156 2.656 2.109 5.828 2.109 2.156 0 4.391-.766 2.25-.75 3.672-2.313 1.422-1.563 1.422-3.906 0-2.531-1.641-4.375-1.641-1.828-4.172-1.828-1.609 0-2.687 1.031-1.078 1.031-1.078 2.594 0 2.094 1.438 3.672 1.453 1.594 3.453 1.891-1.812 1.422-4.984 1.422-3.219 0-5.594-2.984-2.359-2.984-3.344-6.641l-4.391-17.672q-1.078-4.02-1.078-6.594 0-2.547 1.438-4.375 1.438-1.828 3.844-1.828 4.688 0 8.359 4.125 3.688 4.125 4.859 9.06.203.578.781.578h1.234q.391 0 .625-.266.25-.266.25-.609 0-.094-.094-.297-1.422-5.953-5.969-10.594-4.531-4.641-10.25-4.641-3.656 0-6.609 1.969-2.953 1.984-4.188 5.359-1.563-2.938-4.328-5.141-2.75-2.188-5.875-2.188-2.141 0-4.422.766-2.266.75-3.688 2.312-1.406 1.563-1.406 3.953 0 2.344 1.625 4.266 1.641 1.938 4.094 1.938 1.656 0 2.781-1 1.125-1 1.125-2.609 0-2.109-1.406-3.672-1.391-1.563-3.484-1.953"/><path stroke="#000" id="i" stroke-width=".5" d="m0 0h4"/><path stroke="#000" id="j" stroke-width=".5" d="m0 0h2"/><path id="k" d="m31-24.813q-5.563 4.406-9.594 10.09-4.02 5.688-6.594 12.141-2.563 6.438-3.828 13.469-1.266 7.03-1.266 14.11 0 7.172 1.266 14.203 1.266 7.03 3.875 13.531 2.625 6.5 6.672 12.156 4.063 5.672 9.469 9.922 0 .188.5.188h.922q.297 0 .531-.266.25-.266.25-.609 0-.438-.188-.641-4.891-4.781-8.141-10.25-3.25-5.469-5.234-11.656-1.969-6.172-2.844-12.797-.875-6.609-.875-13.781 0-31.781 16.984-48.3.297-.281.297-.828 0-.234-.266-.547-.266-.328-.516-.328h-.922q-.5 0-.5.188"/><path id="l" d="m6.5-25q-.891 0-.891.875 0 .438.203.641 17.09 16.703 17.09 48.48 0 31.781-16.906 48.3-.391.234-.391.828 0 .344.266.609.281.266.625.266h.922q.297 0 .484-.188 7.188-5.672 11.969-13.781 4.781-8.094 7-17.281 2.234-9.172 2.234-18.75 0-7.078-1.203-13.938-1.203-6.859-3.812-13.516-2.609-6.672-6.609-12.312-4-5.641-9.578-10.05-.188-.188-.484-.188z"/><path id="m" d="m7.516 23q-.828 0-1.375.625-.531.641-.531 1.375 0 .734.531 1.359.547.641 1.375.641h29.406v29.5q0 .781.578 1.281.594.516 1.422.516.734 0 1.359-.516.641-.5.641-1.281v-29.5h29.391q.734 0 1.266-.641.547-.625.547-1.359 0-.734-.547-1.375-.531-.625-1.266-.625h-29.391v-29.5q0-.781-.641-1.281-.625-.516-1.359-.516-.828 0-1.422.516-.578.5-.578 1.281v29.5z"/><path id="n" d="m29.5-19.578q0 2.25 1 6.547 1 4.297 2.438 9.156 1.438 4.859 2.469 7.984.391 4.969.391 7.516 0 6.438-1.281 11.984-1.266 5.547-4.781 9.281-3.516 3.734-9.813 3.734-3.313 0-6.609-1.422-3.297-1.406-5.672-3.953-2.359-2.531-3.25-5.766-.188-.578-.781-.578h-1.219q-.781 0-.781.875v.344q1.125 4.484 3.984 8.656 2.859 4.188 6.984 6.797 4.125 2.609 8.719 2.609 4.688 0 8.094-3.172 3.422-3.172 5.469-8.06 2.063-4.875 2.953-9.859.906-4.984.906-9.375 5.03 13.672 11.281 25.875l1.516 3.234q.297.281.688.281h1.219q.781 0 .781-.922 0-.188-.203-.578l-1.516-3.125q-4.344-8.656-7.984-17.547-3.625-8.875-6.219-17.12-.391-3.375-1.5-9.234-1.094-5.859-2.656-10.906-1.563-5.063-3.125-5.25-1.5 0-1.5 2"/><path id="o" d="m9.281 0v3.516q12.5 0 12.5 3.172v52.5q-5.172-2.5-13.09-2.5v3.516q12.266 0 18.516 6.406h1.406q.344 0 .656-.281.328-.266.328-.609v-59.03q0-3.172 12.5-3.172v-3.516z"/><path id="p" d="m10.203 23q-.828 0-1.375.625-.531.641-.531 1.375 0 .734.531 1.359.547.641 1.375.641h57.38q.781 0 1.297-.641.516-.625.516-1.359 0-.734-.516-1.375-.516-.625-1.297-.625z"/></defs><g fill="#fff"><path d="m0 420.12h475.82v-420.12h-475.82z"/><path d="m7.2 406.93h444.14v-399.73h-444.14z"/></g><g fill="none" stroke-linecap="square"><path stroke="#00f" clip-path="url(#a)" d="m15.741 399.02l68.11-.248 34.421-.336 18.989-.373 14.14-.485 9.456-.525 8.506-.733 4.872-.613 5.844-1.053 4.103-1.071 2.266-.769 3.108-1.344 2.02-1.105 1.973-1.306 2.26-1.82 1.98-1.896 4.976-5.32 1.56-1.246.969-.506.969-.282 2.116-.11 1.209-.127.817-.307.829-.615.829-1.033.828-1.581.777-2.124.726-2.702.725-3.593.726-4.746.739-6.407.684-7.787.683-10.2.683-13.464.683-17.947.683-24.2.683-33.06.632-41.929.633-57.694.598-75.76.435-73.61m14.273 0l.717 115.21.744 85.27.744 59.815.744 41.37.714 27.18.694 17.973.63 11.156.631 7.613.625 5.05.625 3.301.5 1.753.653 1.471.402.583.804.687.804.305.804.118 5.578.027 4.935-.043 3.736.302 2.829.515 2.967.771 6.384 2.139 9.149 3.295 7.48 2.385 4.969 1.361 6.322 1.481 7.704 1.474 8.05 1.223 8.304 1 9.487.897 12.151.871 13 .689 16.328.629 21.984.58 27.876.478 15.487.188"/><path stroke="#008000" clip-path="url(#a)" d="m15.741 398.26l38.458-.444 25.722-.492 21.357-.632 15.451-.676 9.605-.569 10.801-.844 6.628-.671 8.324-1.084 6.981-1.211 4.824-1.073 4.488-1.249 3.206-1.096 3.613-1.517 3.356-1.786 2.712-1.825 2.098-1.74 1.499-1.479 2.02-2.404 1.329-1.925 1.328-2.282 1.525-3.196 1.165-2.995 1.165-3.631 1.092-4.156 1.204-5.722 1.045-6.255 1.058-7.997.96-9.203.961-11.673.935-14.502.935-18.539.916-23.14.917-29.06.999-39.08 1.163-53.883 1.861-86.87.685-23.38.569-12.941.455-5.564.227-1.149.114-.172.114.091.227.952.342 3.253.455 7.394.568 13.269.913 27.548 3.408 109.01 1.203 29.18 1.167 22.967 1.126 17.878 1.126 14.482 1.173 12.235 1.117 9.542 1.234 8.73 1.351 7.952 1.29 6.489 1.841 8.109 4.129 16.464 3.366 13.805 4.407 18.227 1.959 7.189 1.508 4.792 1.08 2.966 1.145 2.712 1.145 2.283 1.127 1.871 1.126 1.559 1.2 1.393 2.037 1.939 2.514 1.974 2.037 1.395 2.638 1.582 3.051 1.531 3.199 1.297 4.045 1.275 3.463.845 3.549.689 4.533.689 5.834.665 6.631.549 10.744.605 13.538.475 17.11.361 27.19.316 43.49.236 36.854.098"/><g stroke="#000" stroke-width=".8"><path d="m7.2 399.24h444.14"/><path d="m229.27 406.93v-399.73"/></g></g><use x="15.741" y="399.24" xlink:href="#b"/><g transform="matrix(.1 0 0-.1 8.151 410.84)"><use xlink:href="#e"/><use x="36.08" xlink:href="#d"/><use x="99.71" xlink:href="#c"/></g><use x="122.51" y="399.24" xlink:href="#b"/><g transform="matrix(.1 0 0-.1 118.2 410.84)"><use xlink:href="#e"/><use x="36.08" xlink:href="#f"/></g><use x="229.27" y="399.24" xlink:href="#b"/><use x="336.03" y="399.24" xlink:href="#b"/><use xlink:href="#f" transform="matrix(.1 0 0-.1 333.68 410.84)"/><use x="442.8" y="399.24" xlink:href="#b"/><g transform="matrix(.1 0 0-.1 437.32 410.84)"><use xlink:href="#d"/><use x="63.62" xlink:href="#c"/></g><use x="37.09" y="399.24" xlink:href="#g"/><use x="58.45" y="399.24" xlink:href="#g"/><use x="79.8" y="399.24" xlink:href="#g"/><use x="101.15" y="399.24" xlink:href="#g"/><use x="143.86" y="399.24" xlink:href="#g"/><use x="165.21" y="399.24" xlink:href="#g"/><use x="186.56" y="399.24" xlink:href="#g"/><use x="207.92" y="399.24" xlink:href="#g"/><use x="250.62" y="399.24" xlink:href="#g"/><use x="271.98" y="399.24" xlink:href="#g"/><use x="293.33" y="399.24" xlink:href="#g"/><use x="314.68" y="399.24" xlink:href="#g"/><use x="357.39" y="399.24" xlink:href="#g"/><use x="378.74" y="399.24" xlink:href="#g"/><use x="400.09" y="399.24" xlink:href="#g"/><use x="421.45" y="399.24" xlink:href="#g"/><use xlink:href="#h" transform="matrix(.16 0 0-.16 459.34 399.11)"/><use x="229.27" y="399.24" xlink:href="#i"/><use x="229.27" y="292.47" xlink:href="#i"/><use xlink:href="#f" transform="matrix(.1 0 0-.1 220.55 295.23)"/><use x="229.27" y="185.71" xlink:href="#i"/><g transform="matrix(.1 0 0-.1 214.31 188.47)"><use xlink:href="#d"/><use x="63.62" xlink:href="#c"/></g><use x="229.27" y="78.946" xlink:href="#i"/><g transform="matrix(.1 0 0-.1 214.52 81.71)"><use xlink:href="#d"/><use x="63.62" xlink:href="#f"/></g><use x="229.27" y="377.89" xlink:href="#j"/><use x="229.27" y="356.53" xlink:href="#j"/><use x="229.27" y="335.18" xlink:href="#j"/><use x="229.27" y="313.83" xlink:href="#j"/><use x="229.27" y="271.12" xlink:href="#j"/><use x="229.27" y="249.77" xlink:href="#j"/><use x="229.27" y="228.42" xlink:href="#j"/><use x="229.27" y="207.06" xlink:href="#j"/><use x="229.27" y="164.36" xlink:href="#j"/><use x="229.27" y="143" xlink:href="#j"/><use x="229.27" y="121.65" xlink:href="#j"/><use x="229.27" y="100.3" xlink:href="#j"/><use x="229.27" y="57.59" xlink:href="#j"/><use x="229.27" y="36.24" xlink:href="#j"/><use x="229.27" y="14.887" xlink:href="#j"/><path fill="#f00" stroke="#f00" clip-path="url(#a)" d="m229.27 316.39c.68 0 1.331-.27 1.812-.751.48-.48.75-1.132.75-1.811 0-.68-.27-1.332-.75-1.812-.481-.481-1.132-.751-1.812-.751-.679 0-1.331.27-1.812.751-.48.48-.75 1.132-.75 1.812 0 .679.27 1.331.75 1.811.481.481 1.133.751 1.812.751z"/><path fill="#e6e6e6" stroke="#000" d="m389.06 53.28h56.28v-40.08h-56.28z"/><path fill="none" stroke="#00f" stroke-linecap="square" d="m399.86 26.28h-6.6"/><g transform="matrix(.12 0 0-.12 402.86 30.48)"><use xlink:href="#n" transform="translate(0 .677)"/><use xlink:href="#m" transform="matrix(.7 0 0 .7 76.24 43.19)"/><use xlink:href="#o" transform="matrix(.7 0 0 .7 51.709-24.833)"/><use xlink:href="#k" transform="translate(152.09.677)"/><use xlink:href="#h" transform="translate(190.91.677)"/><use xlink:href="#l" transform="translate(247.99.677)"/></g><path fill="none" stroke="#008000" stroke-linecap="square" d="m399.86 38.758h-6.6"/><g transform="matrix(.12 0 0-.12 402.86 42.958)"><use xlink:href="#n"/><use xlink:href="#p" transform="matrix(.7 0 0 .7 63.953 42.516)"/><use xlink:href="#o" transform="matrix(.7 0 0 .7 51.709-25.509)"/><use xlink:href="#k" transform="translate(158.65)"/><use xlink:href="#h" transform="translate(197.46)"/><use xlink:href="#l" transform="translate(254.54)"/></g></svg>