<svg width="516.25" xmlns="http://www.w3.org/2000/svg" height="523.75" viewBox="0 0 413 419" xmlns:xlink="http://www.w3.org/1999/xlink"><defs><clipPath id="a"><path d="m7.446 30.685h381.88v381.88h-381.88z"/></clipPath><path stroke="#000" id="b" stroke-width=".5" d="m0 0v-4"/><path id="c" d="m31.781 66.41q-7.609 0-11.453-7.5-3.828-7.484-3.828-22.531 0-14.984 3.828-22.484 3.844-7.5 11.453-7.5 7.672 0 11.5 7.5 3.844 7.5 3.844 22.484 0 15.05-3.844 22.531-3.828 7.5-11.5 7.5m0 7.813q12.266 0 18.734-9.703 6.469-9.688 6.469-28.14 0-18.406-6.469-28.11-6.469-9.688-18.734-9.688-12.25 0-18.719 9.688-6.469 9.703-6.469 28.11 0 18.453 6.469 28.14 6.469 9.703 18.719 9.703"/><path id="d" d="m12.406 8.297h16.11v55.625l-17.531-3.516v8.984l17.438 3.516h9.859v-64.61h16.11v-8.297h-41.984z"/><path id="e" d="m4.891 31.391h26.312v-8h-26.312z"/><path id="f" d="m10.797 72.906h38.719v-8.312h-29.688v-17.859q2.141.734 4.281 1.094 2.156.359 4.313.359 12.203 0 19.328-6.688 7.141-6.688 7.141-18.11 0-11.766-7.328-18.297-7.328-6.516-20.656-6.516-4.594 0-9.359.781-4.75.781-9.828 2.344v9.922q4.391-2.391 9.08-3.563 4.688-1.172 9.906-1.172 8.453 0 13.375 4.437 4.938 4.438 4.938 12.06 0 7.609-4.938 12.05-4.922 4.453-13.375 4.453-3.953 0-7.891-.875-3.922-.875-8.02-2.734z"/><path stroke="#000" id="g" stroke-width=".5" d="m0 0v-2"/><path id="h" d="m10.594 10.891q0 3.266.875 6.703.891 3.453 2.469 7.672 1.594 4.234 2.766 7.359 1.313 3.656 1.313 6 0 2.984-2.188 2.984-3.969 0-6.531-4.078-2.563-4.078-3.781-9.109-.188-.641-.828-.641h-1.172q-.828 0-.828.938v.281q1.609 5.969 4.922 10.578 3.328 4.609 8.406 4.609 3.563 0 6.03-2.344 2.469-2.344 2.469-5.953 0-1.859-.828-3.906-.438-1.219-2-5.328-1.563-4.094-2.406-6.781-.828-2.688-1.359-5.281-.531-2.578-.531-5.172 0-3.313 1.406-5.609 1.422-2.297 4.594-2.297 6.391 0 11.234 7.906.094.391.156.75.078.375.125.719l7.188 29q.344 1.328 1.562 2.266 1.219.953 2.641.953 1.219 0 2.109-.781.906-.781.906-2.047 0-.578-.094-.781l-7.219-28.813q-.688-2.969-.688-4.875 0-4.297 2.875-4.297 3.219 0 4.813 3.969 1.594 3.984 2.703 9.219.203.578.781.578h1.234q.391 0 .625-.344.25-.344.25-.625-1.078-4.297-2.078-7.375-1-3.078-3.156-5.578-2.141-2.484-5.359-2.484-3.172 0-5.688 1.734-2.516 1.734-3.406 4.719-2.281-2.938-5.312-4.703-3.03-1.75-6.406-1.75-5.75 0-9.172 3.141-3.422 3.156-3.422 8.875"/><path stroke="#000" id="i" stroke-width=".5" d="m0 0h4"/><path stroke="#000" id="j" stroke-width=".5" d="m0 0h2"/><path id="k" d="m10.688 11.281q0 2.25.531 4.922.547 2.688 1.078 4.422.547 1.734 2.453 6.766 1.906 5.03 1.953 5.234 1.313 3.656 1.313 6 0 2.984-2.188 2.984-3.969 0-6.531-4.078-2.563-4.078-3.781-9.109-.188-.641-.828-.641h-1.172q-.828 0-.828.938v.281q1.609 5.969 4.922 10.578 3.328 4.609 8.406 4.609 3.563 0 6.03-2.344 2.469-2.344 2.469-5.953 0-1.859-.828-3.906-1.953-5.078-3.078-8.141-1.125-3.047-2.078-6.828-.953-3.781-.953-7 0-3.766 1.734-6.141 1.734-2.359 5.391-2.359 6.938 0 12.5 10.687 1.766 3.469 3.328 8.156 1.563 4.688 1.563 7.625 0 3.02-.984 4.703-.969 1.688-2.531 3.516-1.563 1.828-1.563 2.906 0 1.953 1.609 3.563 1.609 1.609 3.563 1.609 2.391 0 3.438-2.203 1.063-2.188 1.063-4.969 0-3.313-.953-7.906-.953-4.594-2.641-9.531-1.688-4.922-3.109-7.75-6.578-13.05-15.375-13.05-6.297 0-10.11 3.141-3.813 3.156-3.813 9.266"/><path id="l" d="m196.55 405.22l-.019-1.836-.019-1.873-.039-3.709-.041-3.709-.043-3.709-.045-3.709-.047-3.709-.049-3.709-.052-3.709-.054-3.709-.057-3.709-.06-3.709-.062-3.709-.067-3.709-.07-3.709-.074-3.709-.079-3.709-.083-3.709-.089-3.709-.095-3.709-.101-3.709-.108-3.709-.116-3.709-.124-3.709-.135-3.709-.145-3.709-.158-3.709-.172-3.709-.188-3.709-.206-3.709-.228-3.709-.251-3.709-.281-3.709-.315-3.709-.056-.612-.299-3.097-.405-3.709-.464-3.709-.538-3.709-.633-3.709-.752-3.709-.618-2.593-.293-1.116-1.126-3.709-1.425-3.709-.865-1.852-1-1.857-2.542-3.709-.167-.204-3.505-3.505-.204-.167-3.709-2.542-1.857-1-1.852-.865-3.709-1.425-3.709-1.126-1.116-.293-2.593-.618-3.709-.752-3.709-.633-3.709-.538-3.709-.464-3.709-.405-3.097-.299-.612-.056-3.709-.315-3.709-.281-3.709-.251-3.709-.228-3.709-.206-3.709-.188-3.709-.172-3.709-.158-3.709-.145-3.709-.135-3.709-.124-3.709-.116-3.709-.108-3.709-.101-3.709-.095-3.709-.089-3.709-.083-3.709-.079-3.709-.074-3.709-.07-3.709-.067-7.418-.122-3.709-.057-7.418-.106-7.418-.096-7.418-.088-3.709-.041-3.709-.039 3.709.039 3.709.041 7.418.088 7.418.096 7.418.106 3.709.057 7.418.122 3.709.067 3.709.07 3.709.074 3.709.079 3.709.083 3.709.089 3.709.095 3.709.101 3.709.108 3.709.116 3.709.124 3.709.135 3.709.145 3.709.158 3.709.172 3.709.188 3.709.206 3.709.228 3.709.251 3.709.281 3.709.315.612.056 3.097.299 3.709.405 3.709.464 3.709.538 3.709.633 3.709.752 2.593.618 1.116.293 3.709 1.126 3.709 1.425 1.852.865 1.857 1 3.709 2.542.204.167 3.505 3.505.167.204 2.542 3.709 1 1.857.865 1.852 1.425 3.709 1.126 3.709.293 1.116.618 2.593.752 3.709.633 3.709.538 3.709.464 3.709.405 3.709.299 3.097.056.612.315 3.709.281 3.709.251 3.709.228 3.709.206 3.709.188 3.709.172 3.709.158 3.709.145 3.709.135 3.709.124 3.709.116 3.709.108 3.709.101 3.709.095 3.709.089 3.709.083 3.709.079 3.709.074 3.709.07 3.709.067 3.709.062 3.709.06 3.709.057 3.709.054 3.709.052 3.709.049 3.709.047 3.709.045 3.709.043 3.709.041 3.709.039 3.709.019 1.873.019 1.836" clip-path="url(#a)"/><path id="m" d="m381.98 219.79l-7.418-.077-3.709-.041-3.709-.043-3.709-.045-3.709-.047-3.709-.049-7.418-.106-3.709-.057-3.709-.06-3.709-.062-3.709-.067-3.709-.07-3.709-.074-3.709-.079-3.709-.083-3.709-.089-3.709-.095-3.709-.101-3.709-.108-3.709-.116-3.709-.124-3.709-.135-3.709-.145-3.709-.158-3.709-.172-3.709-.188-3.709-.206-3.709-.228-3.709-.251-3.709-.281-3.709-.315-.612-.056-3.097-.299-3.709-.405-3.709-.464-3.709-.538-3.709-.633-3.709-.752-2.593-.618-1.116-.293-3.709-1.126-3.709-1.425-1.852-.865-1.857-1-3.709-2.542-.204-.167-3.505-3.505-.167-.204-2.542-3.709-1-1.857-.865-1.852-1.425-3.709-1.126-3.709-.293-1.116-.618-2.593-.752-3.709-.633-3.709-.538-3.709-.464-3.709-.405-3.709-.299-3.097-.056-.612-.315-3.709-.281-3.709-.251-3.709-.228-3.709-.206-3.709-.188-3.709-.172-3.709-.158-3.709-.145-3.709-.135-3.709-.124-3.709-.116-3.709-.108-3.709-.101-3.709-.095-3.709-.089-3.709-.083-3.709-.079-3.709-.074-3.709-.07-3.709-.067-3.709-.062-3.709-.06-3.709-.057-3.709-.054-3.709-.052-3.709-.049-3.709-.047-3.709-.045-3.709-.043-3.709-.041-3.709-.039-3.709-.019-1.873-.019-1.836.019 1.836.019 1.873.039 3.709.041 3.709.043 3.709.045 3.709.047 3.709.049 3.709.052 3.709.054 3.709.057 3.709.06 3.709.062 3.709.067 3.709.07 3.709.074 3.709.079 3.709.083 3.709.089 3.709.095 3.709.101 3.709.108 3.709.116 3.709.124 3.709.135 3.709.145 3.709.158 3.709.172 3.709.188 3.709.206 3.709.228 3.709.251 3.709.281 3.709.315 3.709.056.612.299 3.097.405 3.709.464 3.709.538 3.709.633 3.709.752 3.709.618 2.593.293 1.116 1.126 3.709 1.425 3.709.865 1.852 1 1.857 2.542 3.709.167.204 3.505 3.505.204.167 3.709 2.542 1.857 1 1.852.865 3.709 1.425 3.709 1.126 1.116.293 2.593.618 3.709.752 3.709.633 3.709.538 3.709.464 3.709.405 3.097.299.612.056 3.709.315 3.709.281 3.709.251 3.709.228 3.709.206 3.709.188 3.709.172 3.709.158 3.709.145 3.709.135 3.709.124 3.709.116 3.709.108 3.709.101 3.709.095 3.709.089 3.709.083 3.709.079 3.709.074 3.709.07 3.709.067 3.709.062 3.709.06 3.709.057 7.418.106 3.709.049 3.709.047 3.709.045 3.709.043 3.709.041 7.418.077" clip-path="url(#a)"/><path fill="none" id="n" d="m196.55 405.22l-.019-1.836-.019-1.873-.039-3.709-.041-3.709-.043-3.709-.045-3.709-.047-3.709-.049-3.709-.052-3.709-.054-3.709-.057-3.709-.06-3.709-.062-3.709-.067-3.709-.07-3.709-.074-3.709-.079-3.709-.083-3.709-.089-3.709-.095-3.709-.101-3.709-.108-3.709-.116-3.709-.124-3.709-.135-3.709-.145-3.709-.158-3.709-.172-3.709-.188-3.709-.206-3.709-.228-3.709-.251-3.709-.281-3.709-.315-3.709-.056-.612-.299-3.097-.405-3.709-.464-3.709-.538-3.709-.633-3.709-.752-3.709-.618-2.593-.293-1.116-1.126-3.709-1.425-3.709-.865-1.852-1-1.857-2.542-3.709-.167-.204-3.505-3.505-.204-.167-3.709-2.542-1.857-1-1.852-.865-3.709-1.425-3.709-1.126-1.116-.293-2.593-.618-3.709-.752-3.709-.633-3.709-.538-3.709-.464-3.709-.405-3.097-.299-.612-.056-3.709-.315-3.709-.281-3.709-.251-3.709-.228-3.709-.206-3.709-.188-3.709-.172-3.709-.158-3.709-.145-3.709-.135-3.709-.124-3.709-.116-3.709-.108-3.709-.101-3.709-.095-3.709-.089-3.709-.083-3.709-.079-3.709-.074-3.709-.07-3.709-.067-7.418-.122-3.709-.057-7.418-.106-7.418-.096-7.418-.088-3.709-.041-7.418-.077" clip-path="url(#a)"/><path fill="none" id="o" d="m381.98 219.79l-7.418-.077-3.709-.041-3.709-.043-3.709-.045-3.709-.047-3.709-.049-7.418-.106-3.709-.057-3.709-.06-3.709-.062-3.709-.067-3.709-.07-3.709-.074-3.709-.079-3.709-.083-3.709-.089-3.709-.095-3.709-.101-3.709-.108-3.709-.116-3.709-.124-3.709-.135-3.709-.145-3.709-.158-3.709-.172-3.709-.188-3.709-.206-3.709-.228-3.709-.251-3.709-.281-3.709-.315-.612-.056-3.097-.299-3.709-.405-3.709-.464-3.709-.538-3.709-.633-3.709-.752-2.593-.618-1.116-.293-3.709-1.126-3.709-1.425-1.852-.865-1.857-1-3.709-2.542-.204-.167-3.505-3.505-.167-.204-2.542-3.709-1-1.857-.865-1.852-1.425-3.709-1.126-3.709-.293-1.116-.618-2.593-.752-3.709-.633-3.709-.538-3.709-.464-3.709-.405-3.709-.299-3.097-.056-.612-.315-3.709-.281-3.709-.251-3.709-.228-3.709-.206-3.709-.188-3.709-.172-3.709-.158-3.709-.145-3.709-.135-3.709-.124-3.709-.116-3.709-.108-3.709-.101-3.709-.095-3.709-.089-3.709-.083-3.709-.079-3.709-.074-3.709-.07-3.709-.067-3.709-.062-3.709-.06-3.709-.057-3.709-.054-3.709-.052-3.709-.049-3.709-.047-3.709-.045-3.709-.043-3.709-.041-3.709-.039-3.709-.019-1.873-.019-1.836" clip-path="url(#a)"/></defs><g fill="#fff"><path d="m0 419.76h413.81v-419.76h-413.81z"/><path d="m7.446 412.56h381.88v-381.88h-381.88z"/></g><g fill="#add8e6"><path fill-opacity=".9" clip-path="url(#a)" d="m196.55 405.22h185.43v-185.43l-7.418-.077-3.709-.041-3.709-.043-3.709-.045-3.709-.047-3.709-.049-7.418-.106-3.709-.057-3.709-.06-3.709-.062-3.709-.067-3.709-.07-3.709-.074-3.709-.079-3.709-.083-3.709-.089-3.709-.095-3.709-.101-3.709-.108-3.709-.116-3.709-.124-3.709-.135-3.709-.145-3.709-.158-3.709-.172-3.709-.188-3.709-.206-3.709-.228-3.709-.251-3.709-.281-3.709-.315-.612-.056-3.097-.299-3.709-.405-3.709-.464-3.709-.538-3.709-.633-3.709-.752-2.593-.618-1.116-.293-3.709-1.126-3.709-1.425-1.852-.865-1.857-1-3.709-2.542-.204-.167-3.505-3.505-.167-.204-2.542-3.709-1-1.857-.865-1.852-1.425-3.709-1.126-3.709-.293-1.116-.618-2.593-.752-3.709-.633-3.709-.538-3.709-.464-3.709-.405-3.709-.299-3.097-.056-.612-.315-3.709-.281-3.709-.251-3.709-.228-3.709-.206-3.709-.188-3.709-.172-3.709-.158-3.709-.145-3.709-.135-3.709-.124-3.709-.116-3.709-.108-3.709-.101-3.709-.095-3.709-.089-3.709-.083-3.709-.079-3.709-.074-3.709-.07-3.709-.067-3.709-.062-3.709-.06-3.709-.057-3.709-.054-3.709-.052-3.709-.049-3.709-.047-3.709-.045-3.709-.043-3.709-.041-3.709-.039-3.709-.019-1.873-.019-1.836h-185.43v185.43l7.418.077 3.709.041 7.418.088 7.418.096 7.418.106 3.709.057 7.418.122 3.709.067 3.709.07 3.709.074 3.709.079 3.709.083 3.709.089 3.709.095 3.709.101 3.709.108 3.709.116 3.709.124 3.709.135 3.709.145 3.709.158 3.709.172 3.709.188 3.709.206 3.709.228 3.709.251 3.709.281 3.709.315.612.056 3.097.299 3.709.405 3.709.464 3.709.538 3.709.633 3.709.752 2.593.618 1.116.293 3.709 1.126 3.709 1.425 1.852.865 1.857 1 3.709 2.542.204.167 3.505 3.505.167.204 2.542 3.709 1 1.857.865 1.852 1.425 3.709 1.126 3.709.293 1.116.618 2.593.752 3.709.633 3.709.538 3.709.464 3.709.405 3.709.299 3.097.056.612.315 3.709.281 3.709.251 3.709.228 3.709.206 3.709.188 3.709.172 3.709.158 3.709.145 3.709.135 3.709.124 3.709.116 3.709.108 3.709.101 3.709.095 3.709.089 3.709.083 3.709.079 3.709.074 3.709.07 3.709.067 3.709.062 3.709.06 3.709.057 3.709.054 3.709.052 3.709.049 3.709.047 3.709.045 3.709.043 3.709.041 3.709.039 3.709.019 1.873.019 1.836"/><use xlink:href="#l"/><use xlink:href="#m"/></g><g fill="#fff"><use xlink:href="#l"/><use xlink:href="#m"/></g><g stroke="#add8e6"><use xlink:href="#n"/><use xlink:href="#o"/></g><g stroke="#fff"><use xlink:href="#n"/><use xlink:href="#o"/><use xlink:href="#n"/><use xlink:href="#o"/></g><g stroke="#00f"><use xlink:href="#n"/><use xlink:href="#o"/></g><g fill="none" stroke="#000" stroke-linecap="square" stroke-width=".8"><path d="m7.446 221.63h381.88"/><path d="m198.39 412.56v-381.88"/></g><use x="14.79" y="221.63" xlink:href="#b"/><g transform="matrix(.1 0 0-.1 7.2 233.22)"><use xlink:href="#e"/><use x="36.08" xlink:href="#d"/><use x="99.71" xlink:href="#c"/></g><use x="106.59" y="221.63" xlink:href="#b"/><g transform="matrix(.1 0 0-.1 102.28 233.22)"><use xlink:href="#e"/><use x="36.08" xlink:href="#f"/></g><use x="198.39" y="221.63" xlink:href="#b"/><use x="290.18" y="221.63" xlink:href="#b"/><use xlink:href="#f" transform="matrix(.1 0 0-.1 287.83 233.22)"/><use x="381.98" y="221.63" xlink:href="#b"/><g transform="matrix(.1 0 0-.1 376.5 233.22)"><use xlink:href="#d"/><use x="63.62" xlink:href="#c"/></g><use x="33.15" y="221.63" xlink:href="#g"/><use x="51.51" y="221.63" xlink:href="#g"/><use x="69.869" y="221.63" xlink:href="#g"/><use x="88.23" y="221.63" xlink:href="#g"/><use x="124.95" y="221.63" xlink:href="#g"/><use x="143.31" y="221.63" xlink:href="#g"/><use x="161.67" y="221.63" xlink:href="#g"/><use x="180.03" y="221.63" xlink:href="#g"/><use x="216.75" y="221.63" xlink:href="#g"/><use x="235.11" y="221.63" xlink:href="#g"/><use x="253.46" y="221.63" xlink:href="#g"/><use x="271.82" y="221.63" xlink:href="#g"/><use x="308.54" y="221.63" xlink:href="#g"/><use x="326.9" y="221.63" xlink:href="#g"/><use x="345.26" y="221.63" xlink:href="#g"/><use x="363.62" y="221.63" xlink:href="#g"/><use xlink:href="#h" transform="matrix(.16 0 0-.16 397.33 221.5)"/><use x="198.39" y="405.22" xlink:href="#i"/><g transform="matrix(.1 0 0-.1 179.21 407.98)"><use xlink:href="#e"/><use x="36.08" xlink:href="#d"/><use x="99.71" xlink:href="#c"/></g><use x="198.39" y="313.42" xlink:href="#i"/><g transform="matrix(.1 0 0-.1 185.78 316.18)"><use xlink:href="#e"/><use x="36.08" xlink:href="#f"/></g><use x="198.39" y="221.63" xlink:href="#i"/><use x="198.39" y="129.83" xlink:href="#i"/><use xlink:href="#f" transform="matrix(.1 0 0-.1 189.67 132.59)"/><use x="198.39" y="38.03" xlink:href="#i"/><g transform="matrix(.1 0 0-.1 183.42 40.788)"><use xlink:href="#d"/><use x="63.62" xlink:href="#c"/></g><use x="198.39" y="386.86" xlink:href="#j"/><use x="198.39" y="368.5" xlink:href="#j"/><use x="198.39" y="350.14" xlink:href="#j"/><use x="198.39" y="331.78" xlink:href="#j"/><use x="198.39" y="295.06" xlink:href="#j"/><use x="198.39" y="276.7" xlink:href="#j"/><use x="198.39" y="258.34" xlink:href="#j"/><use x="198.39" y="239.98" xlink:href="#j"/><use x="198.39" y="203.27" xlink:href="#j"/><use x="198.39" y="184.91" xlink:href="#j"/><use x="198.39" y="166.55" xlink:href="#j"/><use x="198.39" y="148.19" xlink:href="#j"/><use x="198.39" y="111.47" xlink:href="#j"/><use x="198.39" y="93.11" xlink:href="#j"/><use x="198.39" y="74.75" xlink:href="#j"/><use x="198.39" y="56.39" xlink:href="#j"/><use xlink:href="#k" transform="matrix(.16 0 0-.16 194.47 19.243)"/></svg>